<svg width="229" height="37" viewBox="0 0 229 37" fill="none" xmlns="http://www.w3.org/2000/svg">
<path d="M0.296875 29V0.855469H6.07812L14.0859 22.2422H14.7695L22.8164 0.855469H28.6172V29H25.5703V3.88281H24.8672L16.6836 25.6016H12.1719L4.04688 3.88281H3.34375V29H0.296875ZM44.125 29.4492C42.0026 29.4492 40.2904 29.1042 38.9883 28.4141C37.6862 27.724 36.7357 26.6237 36.1367 25.1133C35.5508 23.6029 35.2578 21.6107 35.2578 19.1367C35.2578 15.6862 35.8893 13.1016 37.1523 11.3828C38.4284 9.66406 40.6615 8.80469 43.8516 8.80469C46.0521 8.80469 47.7708 9.19531 49.0078 9.97656C50.2448 10.7448 51.1172 11.9297 51.625 13.5312C52.1328 15.1328 52.3867 17.1641 52.3867 19.625H38.3047C38.3047 22.2682 38.7539 24.1628 39.6523 25.3086C40.5638 26.4414 42.0807 27.0078 44.2031 27.0078C45.9349 27.0078 47.1784 26.7539 47.9336 26.2461C48.7018 25.7253 49.112 24.8333 49.1641 23.5703H52.2305C52.2305 25.5755 51.5664 27.0599 50.2383 28.0234C48.9232 28.974 46.8854 29.4492 44.125 29.4492ZM38.3438 17.3984H49.3398C49.2878 15.8229 49.0794 14.5859 48.7148 13.6875C48.3633 12.7891 47.7969 12.151 47.0156 11.7734C46.2344 11.3958 45.1797 11.207 43.8516 11.207C42.5234 11.207 41.4622 11.3958 40.668 11.7734C39.8867 12.151 39.3138 12.7891 38.9492 13.6875C38.5977 14.5859 38.3958 15.8229 38.3438 17.3984ZM66.8203 11.5781H61.9766V23.7656C61.9766 24.8724 62.2109 25.6667 62.6797 26.1484C63.1615 26.6172 63.9297 26.8516 64.9844 26.8516C65.401 26.8516 65.7982 26.832 66.1758 26.793C66.5664 26.7409 66.9245 26.6888 67.25 26.6367V29.2344C66.9115 29.2995 66.5143 29.3581 66.0586 29.4102C65.6029 29.4753 65.0495 29.5078 64.3984 29.5078C60.7786 29.5078 58.9688 27.457 58.9688 23.3555V11.5781H55.4141V9.19531H58.9688V3.78516H61.957V9.19531H66.8203V11.5781ZM74.5938 9.25391L74.9648 12.3203C75.6549 10.9271 76.5859 9.99609 77.7578 9.52734C78.9297 9.04557 80.1276 8.80469 81.3516 8.80469H81.7227V11.793H81.293C79.8737 11.793 78.5977 12.0729 77.4648 12.6328C76.332 13.1927 75.5573 14.1042 75.1406 15.3672V29H72.1328V9.25391H74.5938ZM94.1836 29.4492C92.0091 29.4492 90.2513 29.1042 88.9102 28.4141C87.582 27.724 86.612 26.6237 86 25.1133C85.401 23.5898 85.1016 21.5911 85.1016 19.1172C85.1016 16.6432 85.401 14.651 86 13.1406C86.612 11.6302 87.582 10.5299 88.9102 9.83984C90.2513 9.14974 92.0091 8.80469 94.1836 8.80469C96.3841 8.80469 98.1549 9.14974 99.4961 9.83984C100.837 10.5169 101.814 11.6107 102.426 13.1211C103.038 14.6185 103.344 16.5977 103.344 19.0586C103.344 21.5456 103.038 23.5573 102.426 25.0938C101.814 26.6172 100.837 27.724 99.4961 28.4141C98.1549 29.1042 96.3841 29.4492 94.1836 29.4492ZM94.3008 27.0078C95.8242 27.0078 97.0156 26.7669 97.875 26.2852C98.7474 25.8034 99.3659 24.9961 99.7305 23.8633C100.095 22.7174 100.277 21.1484 100.277 19.1562C100.277 17.151 100.089 15.5755 99.7109 14.4297C99.3464 13.2708 98.7214 12.4505 97.8359 11.9688C96.9505 11.487 95.7331 11.2461 94.1836 11.2461C92.6602 11.2461 91.4622 11.4935 90.5898 11.9883C89.7174 12.4701 89.0924 13.2904 88.7148 14.4492C88.3503 15.5951 88.168 17.1771 88.168 19.1953C88.168 21.1745 88.3503 22.737 88.7148 23.8828C89.0924 25.0156 89.7305 25.8229 90.6289 26.3047C91.5273 26.7734 92.7513 27.0078 94.3008 27.0078ZM109.203 36.5977V9.25391H111.605L111.957 11.8711C112.27 11.3763 112.68 10.8945 113.188 10.4258C113.695 9.95703 114.385 9.57292 115.258 9.27344C116.143 8.96094 117.296 8.80469 118.715 8.80469C121.397 8.80469 123.383 9.58594 124.672 11.1484C125.961 12.6979 126.605 15.3021 126.605 18.9609C126.605 22.8021 125.954 25.5104 124.652 27.0859C123.363 28.6615 121.371 29.4492 118.676 29.4492C117.009 29.4492 115.674 29.2474 114.672 28.8438C113.682 28.4271 112.862 27.7435 112.211 26.793V36.5977H109.203ZM117.973 27.0078C119.392 27.0078 120.505 26.7604 121.312 26.2656C122.12 25.7708 122.693 24.9375 123.031 23.7656C123.383 22.5807 123.559 20.9661 123.559 18.9219C123.559 16.9688 123.389 15.4388 123.051 14.332C122.712 13.2122 122.139 12.418 121.332 11.9492C120.538 11.4805 119.438 11.2461 118.031 11.2461C116.56 11.2461 115.401 11.487 114.555 11.9688C113.708 12.4505 113.103 13.2643 112.738 14.4102C112.387 15.556 112.211 17.125 112.211 19.1172C112.211 21.2135 112.367 22.8346 112.68 23.9805C113.005 25.1263 113.585 25.9206 114.418 26.3633C115.251 26.793 116.436 27.0078 117.973 27.0078ZM132.484 29V0.835938H135.492V11.6172C136.143 10.6406 136.944 9.93099 137.895 9.48828C138.858 9.03255 140.264 8.80469 142.113 8.80469C144.639 8.80469 146.436 9.4362 147.504 10.6992C148.585 11.9492 149.125 14.0521 149.125 17.0078V29H146.117V17.0078C146.117 14.9635 145.74 13.5052 144.984 12.6328C144.242 11.7604 142.992 11.3242 141.234 11.3242C139.164 11.3242 137.686 11.7734 136.801 12.6719C135.928 13.5703 135.492 15.0677 135.492 17.1641V29H132.484ZM163.988 29.4492C161.814 29.4492 160.056 29.1042 158.715 28.4141C157.387 27.724 156.417 26.6237 155.805 25.1133C155.206 23.5898 154.906 21.5911 154.906 19.1172C154.906 16.6432 155.206 14.651 155.805 13.1406C156.417 11.6302 157.387 10.5299 158.715 9.83984C160.056 9.14974 161.814 8.80469 163.988 8.80469C166.189 8.80469 167.96 9.14974 169.301 9.83984C170.642 10.5169 171.618 11.6107 172.23 13.1211C172.842 14.6185 173.148 16.5977 173.148 19.0586C173.148 21.5456 172.842 23.5573 172.23 25.0938C171.618 26.6172 170.642 27.724 169.301 28.4141C167.96 29.1042 166.189 29.4492 163.988 29.4492ZM164.105 27.0078C165.629 27.0078 166.82 26.7669 167.68 26.2852C168.552 25.8034 169.171 24.9961 169.535 23.8633C169.9 22.7174 170.082 21.1484 170.082 19.1562C170.082 17.151 169.893 15.5755 169.516 14.4297C169.151 13.2708 168.526 12.4505 167.641 11.9688C166.755 11.487 165.538 11.2461 163.988 11.2461C162.465 11.2461 161.267 11.4935 160.395 11.9883C159.522 12.4701 158.897 13.2904 158.52 14.4492C158.155 15.5951 157.973 17.1771 157.973 19.1953C157.973 21.1745 158.155 22.737 158.52 23.8828C158.897 25.0156 159.535 25.8229 160.434 26.3047C161.332 26.7734 162.556 27.0078 164.105 27.0078ZM188.52 29.4492C187.1 29.4492 185.948 29.2995 185.062 29C184.19 28.6875 183.5 28.2969 182.992 27.8281C182.484 27.3464 182.074 26.8646 181.762 26.3828L181.41 29H179.008V0.855469H182.016V11.4609C182.667 10.5104 183.487 9.83333 184.477 9.42969C185.479 9.01302 186.814 8.80469 188.48 8.80469C191.176 8.80469 193.168 9.59245 194.457 11.168C195.759 12.7305 196.41 15.4388 196.41 19.293C196.41 22.9388 195.766 25.543 194.477 27.1055C193.188 28.668 191.202 29.4492 188.52 29.4492ZM187.836 27.0078C189.242 27.0078 190.342 26.7734 191.137 26.3047C191.944 25.8359 192.517 25.0417 192.855 23.9219C193.194 22.8021 193.363 21.2721 193.363 19.332C193.363 17.2747 193.188 15.6602 192.836 14.4883C192.497 13.3164 191.924 12.4831 191.117 11.9883C190.31 11.4935 189.197 11.2461 187.777 11.2461C186.241 11.2461 185.056 11.4674 184.223 11.9102C183.389 12.3398 182.81 13.1276 182.484 14.2734C182.172 15.4062 182.016 17.0273 182.016 19.1367C182.016 21.1289 182.191 22.6979 182.543 23.8438C182.908 24.9896 183.513 25.8034 184.359 26.2852C185.206 26.7669 186.365 27.0078 187.836 27.0078ZM201.801 1.92969H205.824V5.67969H201.801V1.92969ZM205.316 29H202.309V9.25391H205.316V29ZM224.945 22.9453H228.012C227.999 25.2891 227.4 26.9622 226.215 27.9648C225.03 28.9544 223.057 29.4492 220.297 29.4492C218.109 29.4492 216.345 29.1042 215.004 28.4141C213.676 27.724 212.706 26.6172 212.094 25.0938C211.495 23.5573 211.195 21.5456 211.195 19.0586C211.195 16.5846 211.501 14.599 212.113 13.1016C212.725 11.5911 213.695 10.4974 215.023 9.82031C216.365 9.13021 218.129 8.78516 220.316 8.78516C222.895 8.78516 224.809 9.31901 226.059 10.3867C227.322 11.4414 227.973 13.0755 228.012 15.2891H224.945C224.841 13.8177 224.424 12.776 223.695 12.1641C222.979 11.5391 221.827 11.2266 220.238 11.2266C218.728 11.2266 217.536 11.4674 216.664 11.9492C215.792 12.431 215.173 13.2448 214.809 14.3906C214.444 15.5365 214.262 17.1055 214.262 19.0977C214.262 21.1029 214.444 22.6849 214.809 23.8438C215.186 24.9896 215.824 25.8034 216.723 26.2852C217.621 26.7669 218.845 27.0078 220.395 27.0078C222.022 27.0078 223.181 26.7083 223.871 26.1094C224.561 25.4974 224.919 24.4427 224.945 22.9453Z" fill="#4E4E4E"/>
</svg>
