<svg width="79" height="89" viewBox="0 0 79 89" fill="none" xmlns="http://www.w3.org/2000/svg">
<path d="M73.7306 2.92411C76.1269 4.3401 77.4361 5.38256 77.6601 6.05168C77.806 6.62325 77.4642 8.54285 76.6364 11.8103C75.9982 14.1423 74.9183 16.3152 73.396 18.3291C71.9517 20.4403 67.7819 25.4131 60.8866 33.2474C52.9782 42.3615 47.1769 48.9194 43.483 52.921L19.5561 78.8408C14.8546 83.9341 11.7652 86.7341 10.2875 87.2402C8.23334 88.0073 6.42263 87.4159 4.85537 85.4672C4.62027 85.1747 4.35163 84.6454 4.04934 83.8794C3.84217 82.6451 3.11167 81.2488 1.85784 79.6895C0.682347 78.228 0.119851 76.6495 0.17008 74.9541C0.287584 73.7328 1.81831 71.4365 4.76235 68.065C7.70629 64.6935 16.362 55.0434 30.7293 39.1148C33.0799 36.5683 36.0211 33.291 39.5528 29.2829C43.1628 25.3722 45.5974 22.7347 46.8568 21.3706C53.5731 14.0949 58.476 9.05708 61.5656 6.25718C64.7337 3.55471 67.053 2.04433 68.5254 1.72592C69.9978 1.40751 71.7323 1.80694 73.7306 2.92411Z" fill="#6D614E"/>
<path d="M6.0428 1.93173C3.6171 3.27712 2.28512 4.28106 2.04675 4.94334C1.88881 5.5105 2.18837 7.43946 2.94544 10.73C3.5326 13.08 4.56529 15.2838 6.04343 17.3416C7.44106 19.4943 11.5015 24.5875 18.2246 32.621C25.9327 41.9634 31.5897 48.6889 35.1956 52.7973L58.5521 79.4085C63.141 84.637 66.1693 87.5264 67.6354 88.0767C69.6727 88.9027 71.4951 88.3651 73.1044 86.4626C73.3456 86.1774 73.6257 85.6566 73.9449 84.899C74.1788 83.671 74.9386 82.2957 76.226 80.7742C77.4328 79.3478 78.0294 77.7863 78.0167 76.0898C77.9251 74.8656 76.4446 72.5252 73.575 69.0687C70.7054 65.6122 62.2616 55.7121 48.245 39.3684C45.9504 36.754 43.0812 33.3917 39.6377 29.2815C36.1138 25.2665 33.7371 22.5587 32.5079 21.1581C25.9517 13.6883 21.1596 8.50875 18.1318 5.61941C15.0237 2.82519 12.7372 1.24746 11.2725 0.88612C9.80791 0.524781 8.06466 0.873282 6.0428 1.93173Z" fill="#6D614E"/>
</svg>
