<svg width="118" height="118" viewBox="0 0 118 118" fill="none" xmlns="http://www.w3.org/2000/svg">
<path d="M9.08324 15.4941C10.2943 14.9401 11.142 14.6631 11.6264 14.6631C12.5953 14.6631 14.5733 15.9415 17.5606 18.4981C20.5479 21.0548 22.6874 23.2919 23.9792 25.2094C24.8673 26.6582 25.5939 27.5317 26.1591 27.83C26.6435 28.0856 27.0472 28.5757 27.3701 29.3001C27.7738 30.0245 28.1775 30.3866 28.5812 30.3866C29.3886 30.3866 30.0344 29.5557 30.5189 27.8939C31.2455 25.5929 32.5777 23.7393 34.5153 22.3331C35.4034 21.6088 35.8475 21.0335 35.8475 20.6074C35.8475 20.1813 36.0897 19.8404 36.5741 19.5847C37.1393 19.2865 38.1485 18.9456 39.6018 18.5621C41.5394 18.0507 43.1542 17.7951 44.446 17.7951C46.6259 17.7951 47.958 18.5408 48.4424 20.0321C48.6039 20.4583 48.6847 20.7352 48.6847 20.8631C48.6847 21.2466 48.3617 21.6088 47.7158 21.9496C47.1507 22.2479 46.7066 22.5675 46.3837 22.9084C46.1414 23.2493 45.8185 23.6541 45.4148 24.1228C45.0919 24.5915 44.7689 24.9963 44.446 25.3372C43.5579 26.1468 42.8312 27.4678 42.2661 29.3001C41.7009 31.0471 41.2569 31.9846 40.9339 32.1124C40.611 32.2402 39.9247 33.7529 38.8751 36.6505C37.987 39.5906 37.3411 41.0607 36.9374 41.0607C36.6145 41.0607 36.453 41.2525 36.453 41.636C36.453 42.3178 35.3631 42.6586 33.1832 42.6586C31.8914 42.6586 30.5996 42.5734 29.3078 42.403C25.271 41.9343 22.97 40.9968 22.4048 39.5906C22.1626 39.0793 21.5167 38.2271 20.4671 37.034C19.4983 35.7983 19.0139 35.0739 19.0139 34.8608C19.0139 34.5199 18.368 33.8168 17.0762 32.7516C15.8651 31.7289 15.2596 30.9619 15.2596 30.4506C15.2596 29.9392 14.977 29.4279 14.4119 28.9166C11.7476 26.1895 10.2136 24.3785 9.80987 23.4836C9.72913 23.3558 9.36582 22.738 8.71992 21.6301C8.07403 20.4796 7.75108 19.7339 7.75108 19.393C7.75108 18.9669 7.50887 18.626 7.02445 18.3703C6.78224 18.2425 6.66113 18.0507 6.66113 17.7951C6.66113 16.9855 7.4685 16.2185 9.08324 15.4941Z" fill="#6D614E"/>
<path d="M77.8641 15.4941C76.6531 14.9401 75.8053 14.6631 75.3209 14.6631C74.3521 14.6631 72.374 15.9415 69.3867 18.4981C66.3995 21.0548 64.26 23.2919 62.9682 25.2094C62.0801 26.6582 61.3534 27.5317 60.7883 27.83C60.3039 28.0856 59.9002 28.5757 59.5772 29.3001C59.1735 30.0245 58.7699 30.3866 58.3662 30.3866C57.5588 30.3866 56.9129 29.5557 56.4285 27.8939C55.7019 25.5929 54.3697 23.7393 52.432 22.3331C51.5439 21.6088 51.0999 21.0335 51.0999 20.6074C51.0999 20.1813 50.8576 19.8404 50.3732 19.5847C49.8081 19.2865 48.7989 18.9456 47.3456 18.5621C45.4079 18.0507 43.7932 17.7951 42.5014 17.7951C40.3215 17.7951 38.9893 18.5408 38.5049 20.0321C38.3434 20.4583 38.2627 20.7352 38.2627 20.8631C38.2627 21.2466 38.5856 21.6088 39.2315 21.9496C39.7967 22.2479 40.2407 22.5675 40.5637 22.9084C40.8059 23.2493 41.1289 23.6541 41.5325 24.1228C41.8555 24.5915 42.1784 24.9963 42.5014 25.3372C43.3895 26.1468 44.1161 27.4678 44.6813 29.3001C45.2464 31.0471 45.6905 31.9846 46.0134 32.1124C46.3364 32.2402 47.0226 33.7529 48.0722 36.6505C48.9603 39.5906 49.6062 41.0607 50.0099 41.0607C50.3329 41.0607 50.4943 41.2525 50.4943 41.636C50.4943 42.3178 51.5843 42.6586 53.7642 42.6586C55.056 42.6586 56.3477 42.5734 57.6395 42.403C61.6764 41.9343 63.9774 40.9968 64.5425 39.5906C64.7847 39.0793 65.4306 38.2271 66.4802 37.034C67.4491 35.7983 67.9335 35.0739 67.9335 34.8608C67.9335 34.5199 68.5794 33.8168 69.8712 32.7516C71.0822 31.7289 71.6877 30.9619 71.6877 30.4506C71.6877 29.9392 71.9703 29.4279 72.5355 28.9166C75.1998 26.1895 76.7338 24.3785 77.1375 23.4836C77.2182 23.3558 77.5815 22.738 78.2274 21.6301C78.8733 20.4796 79.1963 19.7339 79.1963 19.393C79.1963 18.9669 79.4385 18.626 79.9229 18.3703C80.1651 18.2425 80.2862 18.0507 80.2862 17.7951C80.2862 16.9855 79.4789 16.2185 77.8641 15.4941Z" fill="#6D614E"/>
<path d="M72.7405 15.4941C73.9515 14.9401 74.7993 14.6631 75.2837 14.6631C76.2525 14.6631 78.2306 15.9415 81.2178 18.4981C84.2051 21.0548 86.3446 23.2919 87.6364 25.2094C88.5245 26.6582 89.2511 27.5317 89.8163 27.83C90.3007 28.0856 90.7044 28.5757 91.0274 29.3001C91.431 30.0245 91.8347 30.3866 92.2384 30.3866C93.0458 30.3866 93.6917 29.5557 94.1761 27.8939C94.9027 25.5929 96.2349 23.7393 98.1726 22.3331C99.0607 21.6088 99.5047 21.0335 99.5047 20.6074C99.5047 20.1813 99.7469 19.8404 100.231 19.5847C100.797 19.2865 101.806 18.9456 103.259 18.5621C105.197 18.0507 106.811 17.7951 108.103 17.7951C110.283 17.7951 111.615 18.5408 112.1 20.0321C112.261 20.4583 112.342 20.7352 112.342 20.8631C112.342 21.2466 112.019 21.6088 111.373 21.9496C110.808 22.2479 110.364 22.5675 110.041 22.9084C109.799 23.2493 109.476 23.6541 109.072 24.1228C108.749 24.5915 108.426 24.9963 108.103 25.3372C107.215 26.1468 106.488 27.4678 105.923 29.3001C105.358 31.0471 104.914 31.9846 104.591 32.1124C104.268 32.2402 103.582 33.7529 102.532 36.6505C101.644 39.5906 100.998 41.0607 100.595 41.0607C100.272 41.0607 100.11 41.2525 100.11 41.636C100.11 42.3178 99.0203 42.6586 96.8404 42.6586C95.5486 42.6586 94.2568 42.5734 92.965 42.403C88.9282 41.9343 86.6272 40.9968 86.062 39.5906C85.8198 39.0793 85.1739 38.2271 84.1244 37.034C83.1555 35.7983 82.6711 35.0739 82.6711 34.8608C82.6711 34.5199 82.0252 33.8168 80.7334 32.7516C79.5224 31.7289 78.9168 30.9619 78.9168 30.4506C78.9168 29.9392 78.6343 29.4279 78.0691 28.9166C75.4048 26.1895 73.8708 24.3785 73.4671 23.4836C73.3864 23.3558 73.023 22.738 72.3771 21.6301C71.7313 20.4796 71.4083 19.7339 71.4083 19.393C71.4083 18.9669 71.1661 18.626 70.6817 18.3703C70.4395 18.2425 70.3184 18.0507 70.3184 17.7951C70.3184 16.9855 71.1257 16.2185 72.7405 15.4941Z" fill="#6D614E"/>
<path d="M9.08324 15.4941C10.2943 14.9401 11.142 14.6631 11.6264 14.6631C12.5953 14.6631 14.5733 15.9415 17.5606 18.4981C20.5479 21.0548 22.6874 23.2919 23.9792 25.2094C24.8673 26.6582 25.5939 27.5317 26.1591 27.83C26.6435 28.0856 27.0472 28.5757 27.3701 29.3001C27.7738 30.0245 28.1775 30.3866 28.5812 30.3866C29.3886 30.3866 30.0344 29.5557 30.5189 27.8939C31.2455 25.5929 32.5777 23.7393 34.5153 22.3331C35.4034 21.6088 35.8475 21.0335 35.8475 20.6074C35.8475 20.1813 36.0897 19.8404 36.5741 19.5847C37.1393 19.2865 38.1485 18.9456 39.6018 18.5621C41.5394 18.0507 43.1542 17.7951 44.446 17.7951C46.6259 17.7951 47.958 18.5408 48.4424 20.0321C48.6039 20.4583 48.6847 20.7352 48.6847 20.8631C48.6847 21.2466 48.3617 21.6088 47.7158 21.9496C47.1507 22.2479 46.7066 22.5675 46.3837 22.9084C46.1414 23.2493 45.8185 23.6541 45.4148 24.1228C45.0919 24.5915 44.7689 24.9963 44.446 25.3372C43.5579 26.1468 42.8312 27.4678 42.2661 29.3001C41.7009 31.0471 41.2569 31.9846 40.9339 32.1124C40.611 32.2402 39.9247 33.7529 38.8751 36.6505C37.987 39.5906 37.3411 41.0607 36.9374 41.0607C36.6145 41.0607 36.453 41.2525 36.453 41.636C36.453 42.3178 35.3631 42.6586 33.1832 42.6586C31.8914 42.6586 30.5996 42.5734 29.3078 42.403C25.271 41.9343 22.97 40.9968 22.4048 39.5906C22.1626 39.0793 21.5167 38.2271 20.4671 37.034C19.4983 35.7983 19.0139 35.0739 19.0139 34.8608C19.0139 34.5199 18.368 33.8168 17.0762 32.7516C15.8651 31.7289 15.2596 30.9619 15.2596 30.4506C15.2596 29.9392 14.977 29.4279 14.4119 28.9166C11.7476 26.1895 10.2136 24.3785 9.80987 23.4836C9.72913 23.3558 9.36582 22.738 8.71992 21.6301C8.07403 20.4796 7.75108 19.7339 7.75108 19.393C7.75108 18.9669 7.50887 18.626 7.02445 18.3703C6.78224 18.2425 6.66113 18.0507 6.66113 17.7951C6.66113 16.9855 7.4685 16.2185 9.08324 15.4941Z" fill="#6D614E"/>
<path d="M77.8641 15.4941C76.6531 14.9401 75.8053 14.6631 75.3209 14.6631C74.3521 14.6631 72.374 15.9415 69.3867 18.4981C66.3995 21.0548 64.26 23.2919 62.9682 25.2094C62.0801 26.6582 61.3534 27.5317 60.7883 27.83C60.3039 28.0856 59.9002 28.5757 59.5772 29.3001C59.1735 30.0245 58.7699 30.3866 58.3662 30.3866C57.5588 30.3866 56.9129 29.5557 56.4285 27.8939C55.7019 25.5929 54.3697 23.7393 52.432 22.3331C51.5439 21.6088 51.0999 21.0335 51.0999 20.6074C51.0999 20.1813 50.8576 19.8404 50.3732 19.5847C49.8081 19.2865 48.7989 18.9456 47.3456 18.5621C45.4079 18.0507 43.7932 17.7951 42.5014 17.7951C40.3215 17.7951 38.9893 18.5408 38.5049 20.0321C38.3434 20.4583 38.2627 20.7352 38.2627 20.8631C38.2627 21.2466 38.5856 21.6088 39.2315 21.9496C39.7967 22.2479 40.2407 22.5675 40.5637 22.9084C40.8059 23.2493 41.1289 23.6541 41.5325 24.1228C41.8555 24.5915 42.1784 24.9963 42.5014 25.3372C43.3895 26.1468 44.1161 27.4678 44.6813 29.3001C45.2464 31.0471 45.6905 31.9846 46.0134 32.1124C46.3364 32.2402 47.0226 33.7529 48.0722 36.6505C48.9603 39.5906 49.6062 41.0607 50.0099 41.0607C50.3329 41.0607 50.4943 41.2525 50.4943 41.636C50.4943 42.3178 51.5843 42.6586 53.7642 42.6586C55.056 42.6586 56.3477 42.5734 57.6395 42.403C61.6764 41.9343 63.9774 40.9968 64.5425 39.5906C64.7847 39.0793 65.4306 38.2271 66.4802 37.034C67.4491 35.7983 67.9335 35.0739 67.9335 34.8608C67.9335 34.5199 68.5794 33.8168 69.8712 32.7516C71.0822 31.7289 71.6877 30.9619 71.6877 30.4506C71.6877 29.9392 71.9703 29.4279 72.5355 28.9166C75.1998 26.1895 76.7338 24.3785 77.1375 23.4836C77.2182 23.3558 77.5815 22.738 78.2274 21.6301C78.8733 20.4796 79.1963 19.7339 79.1963 19.393C79.1963 18.9669 79.4385 18.626 79.9229 18.3703C80.1651 18.2425 80.2862 18.0507 80.2862 17.7951C80.2862 16.9855 79.4789 16.2185 77.8641 15.4941Z" fill="#6D614E"/>
<path d="M72.7405 15.4941C73.9515 14.9401 74.7993 14.6631 75.2837 14.6631C76.2525 14.6631 78.2306 15.9415 81.2178 18.4981C84.2051 21.0548 86.3446 23.2919 87.6364 25.2094C88.5245 26.6582 89.2511 27.5317 89.8163 27.83C90.3007 28.0856 90.7044 28.5757 91.0274 29.3001C91.431 30.0245 91.8347 30.3866 92.2384 30.3866C93.0458 30.3866 93.6917 29.5557 94.1761 27.8939C94.9027 25.5929 96.2349 23.7393 98.1726 22.3331C99.0607 21.6088 99.5047 21.0335 99.5047 20.6074C99.5047 20.1813 99.7469 19.8404 100.231 19.5847C100.797 19.2865 101.806 18.9456 103.259 18.5621C105.197 18.0507 106.811 17.7951 108.103 17.7951C110.283 17.7951 111.615 18.5408 112.1 20.0321C112.261 20.4583 112.342 20.7352 112.342 20.8631C112.342 21.2466 112.019 21.6088 111.373 21.9496C110.808 22.2479 110.364 22.5675 110.041 22.9084C109.799 23.2493 109.476 23.6541 109.072 24.1228C108.749 24.5915 108.426 24.9963 108.103 25.3372C107.215 26.1468 106.488 27.4678 105.923 29.3001C105.358 31.0471 104.914 31.9846 104.591 32.1124C104.268 32.2402 103.582 33.7529 102.532 36.6505C101.644 39.5906 100.998 41.0607 100.595 41.0607C100.272 41.0607 100.11 41.2525 100.11 41.636C100.11 42.3178 99.0203 42.6586 96.8404 42.6586C95.5486 42.6586 94.2568 42.5734 92.965 42.403C88.9282 41.9343 86.6272 40.9968 86.062 39.5906C85.8198 39.0793 85.1739 38.2271 84.1244 37.034C83.1555 35.7983 82.6711 35.0739 82.6711 34.8608C82.6711 34.5199 82.0252 33.8168 80.7334 32.7516C79.5224 31.7289 78.9168 30.9619 78.9168 30.4506C78.9168 29.9392 78.6343 29.4279 78.0691 28.9166C75.4048 26.1895 73.8708 24.3785 73.4671 23.4836C73.3864 23.3558 73.023 22.738 72.3771 21.6301C71.7313 20.4796 71.4083 19.7339 71.4083 19.393C71.4083 18.9669 71.1661 18.626 70.6817 18.3703C70.4395 18.2425 70.3184 18.0507 70.3184 17.7951C70.3184 16.9855 71.1257 16.2185 72.7405 15.4941Z" fill="#6D614E"/>
<path d="M9.08324 44.9941C10.2943 44.4401 11.142 44.1631 11.6264 44.1631C12.5953 44.1631 14.5733 45.4415 17.5606 47.9981C20.5479 50.5548 22.6874 52.7919 23.9792 54.7094C24.8673 56.1582 25.5939 57.0317 26.1591 57.33C26.6435 57.5856 27.0472 58.0757 27.3701 58.8001C27.7738 59.5244 28.1775 59.8866 28.5812 59.8866C29.3886 59.8866 30.0344 59.0557 30.5189 57.3939C31.2455 55.0929 32.5777 53.2393 34.5153 51.8331C35.4034 51.1088 35.8475 50.5335 35.8475 50.1074C35.8475 49.6813 36.0897 49.3404 36.5741 49.0847C37.1393 48.7865 38.1485 48.4456 39.6018 48.0621C41.5394 47.5507 43.1542 47.2951 44.446 47.2951C46.6259 47.2951 47.958 48.0408 48.4424 49.5321C48.6039 49.9583 48.6847 50.2352 48.6847 50.3631C48.6847 50.7466 48.3617 51.1088 47.7158 51.4496C47.1507 51.7479 46.7066 52.0675 46.3837 52.4084C46.1414 52.7493 45.8185 53.1541 45.4148 53.6228C45.0919 54.0915 44.7689 54.4963 44.446 54.8372C43.5579 55.6468 42.8312 56.9678 42.2661 58.8001C41.7009 60.5471 41.2569 61.4846 40.9339 61.6124C40.611 61.7402 39.9247 63.2529 38.8751 66.1505C37.987 69.0906 37.3411 70.5607 36.9374 70.5607C36.6145 70.5607 36.453 70.7525 36.453 71.136C36.453 71.8178 35.3631 72.1586 33.1832 72.1586C31.8914 72.1586 30.5996 72.0734 29.3078 71.903C25.271 71.4343 22.97 70.4968 22.4048 69.0906C22.1626 68.5793 21.5167 67.7271 20.4671 66.534C19.4983 65.2983 19.0139 64.5739 19.0139 64.3608C19.0139 64.0199 18.368 63.3168 17.0762 62.2516C15.8651 61.2289 15.2596 60.4619 15.2596 59.9506C15.2596 59.4392 14.977 58.9279 14.4119 58.4166C11.7476 55.6895 10.2136 53.8785 9.80987 52.9836C9.72913 52.8558 9.36582 52.238 8.71992 51.1301C8.07403 49.9796 7.75108 49.2339 7.75108 48.893C7.75108 48.4669 7.50887 48.126 7.02445 47.8703C6.78224 47.7425 6.66113 47.5507 6.66113 47.2951C6.66113 46.4855 7.4685 45.7185 9.08324 44.9941Z" fill="#6D614E"/>
<path d="M77.8641 44.9941C76.6531 44.4401 75.8053 44.1631 75.3209 44.1631C74.3521 44.1631 72.374 45.4415 69.3867 47.9981C66.3995 50.5548 64.26 52.7919 62.9682 54.7094C62.0801 56.1582 61.3534 57.0317 60.7883 57.33C60.3039 57.5856 59.9002 58.0757 59.5772 58.8001C59.1735 59.5244 58.7699 59.8866 58.3662 59.8866C57.5588 59.8866 56.9129 59.0557 56.4285 57.3939C55.7019 55.0929 54.3697 53.2393 52.432 51.8331C51.5439 51.1088 51.0999 50.5335 51.0999 50.1074C51.0999 49.6813 50.8576 49.3404 50.3732 49.0847C49.8081 48.7865 48.7989 48.4456 47.3456 48.0621C45.4079 47.5507 43.7932 47.2951 42.5014 47.2951C40.3215 47.2951 38.9893 48.0408 38.5049 49.5321C38.3434 49.9583 38.2627 50.2352 38.2627 50.3631C38.2627 50.7466 38.5856 51.1088 39.2315 51.4496C39.7967 51.7479 40.2407 52.0675 40.5637 52.4084C40.8059 52.7493 41.1289 53.1541 41.5325 53.6228C41.8555 54.0915 42.1784 54.4963 42.5014 54.8372C43.3895 55.6468 44.1161 56.9678 44.6813 58.8001C45.2464 60.5471 45.6905 61.4846 46.0134 61.6124C46.3364 61.7402 47.0226 63.2529 48.0722 66.1505C48.9603 69.0906 49.6062 70.5607 50.0099 70.5607C50.3329 70.5607 50.4943 70.7525 50.4943 71.136C50.4943 71.8178 51.5843 72.1586 53.7642 72.1586C55.056 72.1586 56.3477 72.0734 57.6395 71.903C61.6764 71.4343 63.9774 70.4968 64.5425 69.0906C64.7847 68.5793 65.4306 67.7271 66.4802 66.534C67.4491 65.2983 67.9335 64.5739 67.9335 64.3608C67.9335 64.0199 68.5794 63.3168 69.8712 62.2516C71.0822 61.2289 71.6877 60.4619 71.6877 59.9506C71.6877 59.4392 71.9703 58.9279 72.5355 58.4166C75.1998 55.6895 76.7338 53.8785 77.1375 52.9836C77.2182 52.8558 77.5815 52.238 78.2274 51.1301C78.8733 49.9796 79.1963 49.2339 79.1963 48.893C79.1963 48.4669 79.4385 48.126 79.9229 47.8703C80.1651 47.7425 80.2862 47.5507 80.2862 47.2951C80.2862 46.4855 79.4789 45.7185 77.8641 44.9941Z" fill="#6D614E"/>
<path d="M72.7405 44.9941C73.9515 44.4401 74.7993 44.1631 75.2837 44.1631C76.2525 44.1631 78.2306 45.4415 81.2178 47.9981C84.2051 50.5548 86.3446 52.7919 87.6364 54.7094C88.5245 56.1582 89.2511 57.0317 89.8163 57.33C90.3007 57.5856 90.7044 58.0757 91.0274 58.8001C91.431 59.5244 91.8347 59.8866 92.2384 59.8866C93.0458 59.8866 93.6917 59.0557 94.1761 57.3939C94.9027 55.0929 96.2349 53.2393 98.1726 51.8331C99.0607 51.1088 99.5047 50.5335 99.5047 50.1074C99.5047 49.6813 99.7469 49.3404 100.231 49.0847C100.797 48.7865 101.806 48.4456 103.259 48.0621C105.197 47.5507 106.811 47.2951 108.103 47.2951C110.283 47.2951 111.615 48.0408 112.1 49.5321C112.261 49.9583 112.342 50.2352 112.342 50.3631C112.342 50.7466 112.019 51.1088 111.373 51.4496C110.808 51.7479 110.364 52.0675 110.041 52.4084C109.799 52.7493 109.476 53.1541 109.072 53.6228C108.749 54.0915 108.426 54.4963 108.103 54.8372C107.215 55.6468 106.488 56.9678 105.923 58.8001C105.358 60.5471 104.914 61.4846 104.591 61.6124C104.268 61.7402 103.582 63.2529 102.532 66.1505C101.644 69.0906 100.998 70.5607 100.595 70.5607C100.272 70.5607 100.11 70.7525 100.11 71.136C100.11 71.8178 99.0203 72.1586 96.8404 72.1586C95.5486 72.1586 94.2568 72.0734 92.965 71.903C88.9282 71.4343 86.6272 70.4968 86.062 69.0906C85.8198 68.5793 85.1739 67.7271 84.1244 66.534C83.1555 65.2983 82.6711 64.5739 82.6711 64.3608C82.6711 64.0199 82.0252 63.3168 80.7334 62.2516C79.5224 61.2289 78.9168 60.4619 78.9168 59.9506C78.9168 59.4392 78.6343 58.9279 78.0691 58.4166C75.4048 55.6895 73.8708 53.8785 73.4671 52.9836C73.3864 52.8558 73.023 52.238 72.3771 51.1301C71.7313 49.9796 71.4083 49.2339 71.4083 48.893C71.4083 48.4669 71.1661 48.126 70.6817 47.8703C70.4395 47.7425 70.3184 47.5507 70.3184 47.2951C70.3184 46.4855 71.1257 45.7185 72.7405 44.9941Z" fill="#6D614E"/>
<path d="M9.08324 44.9941C10.2943 44.4401 11.142 44.1631 11.6264 44.1631C12.5953 44.1631 14.5733 45.4415 17.5606 47.9981C20.5479 50.5548 22.6874 52.7919 23.9792 54.7094C24.8673 56.1582 25.5939 57.0317 26.1591 57.33C26.6435 57.5856 27.0472 58.0757 27.3701 58.8001C27.7738 59.5244 28.1775 59.8866 28.5812 59.8866C29.3886 59.8866 30.0344 59.0557 30.5189 57.3939C31.2455 55.0929 32.5777 53.2393 34.5153 51.8331C35.4034 51.1088 35.8475 50.5335 35.8475 50.1074C35.8475 49.6813 36.0897 49.3404 36.5741 49.0847C37.1393 48.7865 38.1485 48.4456 39.6018 48.0621C41.5394 47.5507 43.1542 47.2951 44.446 47.2951C46.6259 47.2951 47.958 48.0408 48.4424 49.5321C48.6039 49.9583 48.6847 50.2352 48.6847 50.3631C48.6847 50.7466 48.3617 51.1088 47.7158 51.4496C47.1507 51.7479 46.7066 52.0675 46.3837 52.4084C46.1414 52.7493 45.8185 53.1541 45.4148 53.6228C45.0919 54.0915 44.7689 54.4963 44.446 54.8372C43.5579 55.6468 42.8312 56.9678 42.2661 58.8001C41.7009 60.5471 41.2569 61.4846 40.9339 61.6124C40.611 61.7402 39.9247 63.2529 38.8751 66.1505C37.987 69.0906 37.3411 70.5607 36.9374 70.5607C36.6145 70.5607 36.453 70.7525 36.453 71.136C36.453 71.8178 35.3631 72.1586 33.1832 72.1586C31.8914 72.1586 30.5996 72.0734 29.3078 71.903C25.271 71.4343 22.97 70.4968 22.4048 69.0906C22.1626 68.5793 21.5167 67.7271 20.4671 66.534C19.4983 65.2983 19.0139 64.5739 19.0139 64.3608C19.0139 64.0199 18.368 63.3168 17.0762 62.2516C15.8651 61.2289 15.2596 60.4619 15.2596 59.9506C15.2596 59.4392 14.977 58.9279 14.4119 58.4166C11.7476 55.6895 10.2136 53.8785 9.80987 52.9836C9.72913 52.8558 9.36582 52.238 8.71992 51.1301C8.07403 49.9796 7.75108 49.2339 7.75108 48.893C7.75108 48.4669 7.50887 48.126 7.02445 47.8703C6.78224 47.7425 6.66113 47.5507 6.66113 47.2951C6.66113 46.4855 7.4685 45.7185 9.08324 44.9941Z" fill="#6D614E"/>
<path d="M77.8641 44.9941C76.6531 44.4401 75.8053 44.1631 75.3209 44.1631C74.3521 44.1631 72.374 45.4415 69.3867 47.9981C66.3995 50.5548 64.26 52.7919 62.9682 54.7094C62.0801 56.1582 61.3534 57.0317 60.7883 57.33C60.3039 57.5856 59.9002 58.0757 59.5772 58.8001C59.1735 59.5244 58.7699 59.8866 58.3662 59.8866C57.5588 59.8866 56.9129 59.0557 56.4285 57.3939C55.7019 55.0929 54.3697 53.2393 52.432 51.8331C51.5439 51.1088 51.0999 50.5335 51.0999 50.1074C51.0999 49.6813 50.8576 49.3404 50.3732 49.0847C49.8081 48.7865 48.7989 48.4456 47.3456 48.0621C45.4079 47.5507 43.7932 47.2951 42.5014 47.2951C40.3215 47.2951 38.9893 48.0408 38.5049 49.5321C38.3434 49.9583 38.2627 50.2352 38.2627 50.3631C38.2627 50.7466 38.5856 51.1088 39.2315 51.4496C39.7967 51.7479 40.2407 52.0675 40.5637 52.4084C40.8059 52.7493 41.1289 53.1541 41.5325 53.6228C41.8555 54.0915 42.1784 54.4963 42.5014 54.8372C43.3895 55.6468 44.1161 56.9678 44.6813 58.8001C45.2464 60.5471 45.6905 61.4846 46.0134 61.6124C46.3364 61.7402 47.0226 63.2529 48.0722 66.1505C48.9603 69.0906 49.6062 70.5607 50.0099 70.5607C50.3329 70.5607 50.4943 70.7525 50.4943 71.136C50.4943 71.8178 51.5843 72.1586 53.7642 72.1586C55.056 72.1586 56.3477 72.0734 57.6395 71.903C61.6764 71.4343 63.9774 70.4968 64.5425 69.0906C64.7847 68.5793 65.4306 67.7271 66.4802 66.534C67.4491 65.2983 67.9335 64.5739 67.9335 64.3608C67.9335 64.0199 68.5794 63.3168 69.8712 62.2516C71.0822 61.2289 71.6877 60.4619 71.6877 59.9506C71.6877 59.4392 71.9703 58.9279 72.5355 58.4166C75.1998 55.6895 76.7338 53.8785 77.1375 52.9836C77.2182 52.8558 77.5815 52.238 78.2274 51.1301C78.8733 49.9796 79.1963 49.2339 79.1963 48.893C79.1963 48.4669 79.4385 48.126 79.9229 47.8703C80.1651 47.7425 80.2862 47.5507 80.2862 47.2951C80.2862 46.4855 79.4789 45.7185 77.8641 44.9941Z" fill="#6D614E"/>
<path d="M72.7405 44.9941C73.9515 44.4401 74.7993 44.1631 75.2837 44.1631C76.2525 44.1631 78.2306 45.4415 81.2178 47.9981C84.2051 50.5548 86.3446 52.7919 87.6364 54.7094C88.5245 56.1582 89.2511 57.0317 89.8163 57.33C90.3007 57.5856 90.7044 58.0757 91.0274 58.8001C91.431 59.5244 91.8347 59.8866 92.2384 59.8866C93.0458 59.8866 93.6917 59.0557 94.1761 57.3939C94.9027 55.0929 96.2349 53.2393 98.1726 51.8331C99.0607 51.1088 99.5047 50.5335 99.5047 50.1074C99.5047 49.6813 99.7469 49.3404 100.231 49.0847C100.797 48.7865 101.806 48.4456 103.259 48.0621C105.197 47.5507 106.811 47.2951 108.103 47.2951C110.283 47.2951 111.615 48.0408 112.1 49.5321C112.261 49.9583 112.342 50.2352 112.342 50.3631C112.342 50.7466 112.019 51.1088 111.373 51.4496C110.808 51.7479 110.364 52.0675 110.041 52.4084C109.799 52.7493 109.476 53.1541 109.072 53.6228C108.749 54.0915 108.426 54.4963 108.103 54.8372C107.215 55.6468 106.488 56.9678 105.923 58.8001C105.358 60.5471 104.914 61.4846 104.591 61.6124C104.268 61.7402 103.582 63.2529 102.532 66.1505C101.644 69.0906 100.998 70.5607 100.595 70.5607C100.272 70.5607 100.11 70.7525 100.11 71.136C100.11 71.8178 99.0203 72.1586 96.8404 72.1586C95.5486 72.1586 94.2568 72.0734 92.965 71.903C88.9282 71.4343 86.6272 70.4968 86.062 69.0906C85.8198 68.5793 85.1739 67.7271 84.1244 66.534C83.1555 65.2983 82.6711 64.5739 82.6711 64.3608C82.6711 64.0199 82.0252 63.3168 80.7334 62.2516C79.5224 61.2289 78.9168 60.4619 78.9168 59.9506C78.9168 59.4392 78.6343 58.9279 78.0691 58.4166C75.4048 55.6895 73.8708 53.8785 73.4671 52.9836C73.3864 52.8558 73.023 52.238 72.3771 51.1301C71.7313 49.9796 71.4083 49.2339 71.4083 48.893C71.4083 48.4669 71.1661 48.126 70.6817 47.8703C70.4395 47.7425 70.3184 47.5507 70.3184 47.2951C70.3184 46.4855 71.1257 45.7185 72.7405 44.9941Z" fill="#6D614E"/>
<path d="M9.08324 74.4941C10.2943 73.9401 11.142 73.6631 11.6264 73.6631C12.5953 73.6631 14.5733 74.9415 17.5606 77.4981C20.5479 80.0548 22.6874 82.2919 23.9792 84.2094C24.8673 85.6582 25.5939 86.5317 26.1591 86.83C26.6435 87.0856 27.0472 87.5757 27.3701 88.3001C27.7738 89.0245 28.1775 89.3866 28.5812 89.3866C29.3886 89.3866 30.0344 88.5557 30.5189 86.8939C31.2455 84.5929 32.5777 82.7393 34.5153 81.3331C35.4034 80.6088 35.8475 80.0335 35.8475 79.6074C35.8475 79.1813 36.0897 78.8404 36.5741 78.5847C37.1393 78.2865 38.1485 77.9456 39.6018 77.5621C41.5394 77.0507 43.1542 76.7951 44.446 76.7951C46.6259 76.7951 47.958 77.5408 48.4424 79.0321C48.6039 79.4583 48.6847 79.7352 48.6847 79.8631C48.6847 80.2466 48.3617 80.6088 47.7158 80.9497C47.1507 81.2479 46.7066 81.5675 46.3837 81.9084C46.1414 82.2493 45.8185 82.6541 45.4148 83.1228C45.0919 83.5915 44.7689 83.9963 44.446 84.3372C43.5579 85.1468 42.8312 86.4678 42.2661 88.3001C41.7009 90.0471 41.2569 90.9846 40.9339 91.1124C40.611 91.2402 39.9247 92.7529 38.8751 95.6505C37.987 98.5906 37.3411 100.061 36.9374 100.061C36.6145 100.061 36.453 100.252 36.453 100.636C36.453 101.318 35.3631 101.659 33.1832 101.659C31.8914 101.659 30.5996 101.573 29.3078 101.403C25.271 100.934 22.97 99.9968 22.4048 98.5907C22.1626 98.0793 21.5167 97.2271 20.4671 96.034C19.4983 94.7983 19.0139 94.0739 19.0139 93.8608C19.0139 93.5199 18.368 92.8168 17.0762 91.7516C15.8651 90.7289 15.2596 89.9619 15.2596 89.4506C15.2596 88.9392 14.977 88.4279 14.4119 87.9166C11.7476 85.1895 10.2136 83.3785 9.80987 82.4836C9.72913 82.3558 9.36582 81.738 8.71992 80.6301C8.07403 79.4796 7.75108 78.7339 7.75108 78.393C7.75108 77.9669 7.50887 77.626 7.02445 77.3703C6.78224 77.2425 6.66113 77.0507 6.66113 76.7951C6.66113 75.9855 7.4685 75.2185 9.08324 74.4941Z" fill="#6D614E"/>
<path d="M77.8641 74.4941C76.6531 73.9401 75.8053 73.6631 75.3209 73.6631C74.3521 73.6631 72.374 74.9415 69.3867 77.4981C66.3995 80.0548 64.26 82.2919 62.9682 84.2094C62.0801 85.6582 61.3534 86.5317 60.7883 86.83C60.3039 87.0856 59.9002 87.5757 59.5772 88.3001C59.1735 89.0245 58.7699 89.3866 58.3662 89.3866C57.5588 89.3866 56.9129 88.5557 56.4285 86.8939C55.7019 84.5929 54.3697 82.7393 52.432 81.3331C51.5439 80.6088 51.0999 80.0335 51.0999 79.6074C51.0999 79.1813 50.8576 78.8404 50.3732 78.5847C49.8081 78.2865 48.7989 77.9456 47.3456 77.5621C45.4079 77.0507 43.7932 76.7951 42.5014 76.7951C40.3215 76.7951 38.9893 77.5408 38.5049 79.0321C38.3434 79.4583 38.2627 79.7352 38.2627 79.8631C38.2627 80.2466 38.5856 80.6088 39.2315 80.9497C39.7967 81.2479 40.2407 81.5675 40.5637 81.9084C40.8059 82.2493 41.1289 82.6541 41.5325 83.1228C41.8555 83.5915 42.1784 83.9963 42.5014 84.3372C43.3895 85.1468 44.1161 86.4678 44.6813 88.3001C45.2464 90.0471 45.6905 90.9846 46.0134 91.1124C46.3364 91.2402 47.0226 92.7529 48.0722 95.6505C48.9603 98.5906 49.6062 100.061 50.0099 100.061C50.3329 100.061 50.4943 100.252 50.4943 100.636C50.4943 101.318 51.5843 101.659 53.7642 101.659C55.056 101.659 56.3477 101.573 57.6395 101.403C61.6764 100.934 63.9774 99.9968 64.5425 98.5907C64.7847 98.0793 65.4306 97.2271 66.4802 96.034C67.4491 94.7983 67.9335 94.0739 67.9335 93.8608C67.9335 93.5199 68.5794 92.8168 69.8712 91.7516C71.0822 90.7289 71.6877 89.9619 71.6877 89.4506C71.6877 88.9392 71.9703 88.4279 72.5355 87.9166C75.1998 85.1895 76.7338 83.3785 77.1375 82.4836C77.2182 82.3558 77.5815 81.738 78.2274 80.6301C78.8733 79.4796 79.1963 78.7339 79.1963 78.393C79.1963 77.9669 79.4385 77.626 79.9229 77.3703C80.1651 77.2425 80.2862 77.0507 80.2862 76.7951C80.2862 75.9855 79.4789 75.2185 77.8641 74.4941Z" fill="#6D614E"/>
<path d="M72.7405 74.4941C73.9515 73.9401 74.7993 73.6631 75.2837 73.6631C76.2525 73.6631 78.2306 74.9415 81.2178 77.4981C84.2051 80.0548 86.3446 82.2919 87.6364 84.2094C88.5245 85.6582 89.2511 86.5317 89.8163 86.83C90.3007 87.0856 90.7044 87.5757 91.0274 88.3001C91.431 89.0245 91.8347 89.3866 92.2384 89.3866C93.0458 89.3866 93.6917 88.5557 94.1761 86.8939C94.9027 84.5929 96.2349 82.7393 98.1726 81.3331C99.0607 80.6088 99.5047 80.0335 99.5047 79.6074C99.5047 79.1813 99.7469 78.8404 100.231 78.5847C100.797 78.2865 101.806 77.9456 103.259 77.5621C105.197 77.0507 106.811 76.7951 108.103 76.7951C110.283 76.7951 111.615 77.5408 112.1 79.0321C112.261 79.4583 112.342 79.7352 112.342 79.8631C112.342 80.2466 112.019 80.6088 111.373 80.9497C110.808 81.2479 110.364 81.5675 110.041 81.9084C109.799 82.2493 109.476 82.6541 109.072 83.1228C108.749 83.5915 108.426 83.9963 108.103 84.3372C107.215 85.1468 106.488 86.4678 105.923 88.3001C105.358 90.0471 104.914 90.9846 104.591 91.1124C104.268 91.2402 103.582 92.7529 102.532 95.6505C101.644 98.5906 100.998 100.061 100.595 100.061C100.272 100.061 100.11 100.252 100.11 100.636C100.11 101.318 99.0203 101.659 96.8404 101.659C95.5486 101.659 94.2568 101.573 92.965 101.403C88.9282 100.934 86.6272 99.9968 86.062 98.5907C85.8198 98.0793 85.1739 97.2271 84.1244 96.034C83.1555 94.7983 82.6711 94.0739 82.6711 93.8608C82.6711 93.5199 82.0252 92.8168 80.7334 91.7516C79.5224 90.7289 78.9168 89.9619 78.9168 89.4506C78.9168 88.9392 78.6343 88.4279 78.0691 87.9166C75.4048 85.1895 73.8708 83.3785 73.4671 82.4836C73.3864 82.3558 73.023 81.738 72.3771 80.6301C71.7313 79.4796 71.4083 78.7339 71.4083 78.393C71.4083 77.9669 71.1661 77.626 70.6817 77.3703C70.4395 77.2425 70.3184 77.0507 70.3184 76.7951C70.3184 75.9855 71.1257 75.2185 72.7405 74.4941Z" fill="#6D614E"/>
<path d="M9.08324 74.4941C10.2943 73.9401 11.142 73.6631 11.6264 73.6631C12.5953 73.6631 14.5733 74.9415 17.5606 77.4981C20.5479 80.0548 22.6874 82.2919 23.9792 84.2094C24.8673 85.6582 25.5939 86.5317 26.1591 86.83C26.6435 87.0856 27.0472 87.5757 27.3701 88.3001C27.7738 89.0245 28.1775 89.3866 28.5812 89.3866C29.3886 89.3866 30.0344 88.5557 30.5189 86.8939C31.2455 84.5929 32.5777 82.7393 34.5153 81.3331C35.4034 80.6088 35.8475 80.0335 35.8475 79.6074C35.8475 79.1813 36.0897 78.8404 36.5741 78.5847C37.1393 78.2865 38.1485 77.9456 39.6018 77.5621C41.5394 77.0507 43.1542 76.7951 44.446 76.7951C46.6259 76.7951 47.958 77.5408 48.4424 79.0321C48.6039 79.4583 48.6847 79.7352 48.6847 79.8631C48.6847 80.2466 48.3617 80.6088 47.7158 80.9497C47.1507 81.2479 46.7066 81.5675 46.3837 81.9084C46.1414 82.2493 45.8185 82.6541 45.4148 83.1228C45.0919 83.5915 44.7689 83.9963 44.446 84.3372C43.5579 85.1468 42.8312 86.4678 42.2661 88.3001C41.7009 90.0471 41.2569 90.9846 40.9339 91.1124C40.611 91.2402 39.9247 92.7529 38.8751 95.6505C37.987 98.5906 37.3411 100.061 36.9374 100.061C36.6145 100.061 36.453 100.252 36.453 100.636C36.453 101.318 35.3631 101.659 33.1832 101.659C31.8914 101.659 30.5996 101.573 29.3078 101.403C25.271 100.934 22.97 99.9968 22.4048 98.5907C22.1626 98.0793 21.5167 97.2271 20.4671 96.034C19.4983 94.7983 19.0139 94.0739 19.0139 93.8608C19.0139 93.5199 18.368 92.8168 17.0762 91.7516C15.8651 90.7289 15.2596 89.9619 15.2596 89.4506C15.2596 88.9392 14.977 88.4279 14.4119 87.9166C11.7476 85.1895 10.2136 83.3785 9.80987 82.4836C9.72913 82.3558 9.36582 81.738 8.71992 80.6301C8.07403 79.4796 7.75108 78.7339 7.75108 78.393C7.75108 77.9669 7.50887 77.626 7.02445 77.3703C6.78224 77.2425 6.66113 77.0507 6.66113 76.7951C6.66113 75.9855 7.4685 75.2185 9.08324 74.4941Z" fill="#6D614E"/>
<path d="M77.8641 74.4941C76.6531 73.9401 75.8053 73.6631 75.3209 73.6631C74.3521 73.6631 72.374 74.9415 69.3867 77.4981C66.3995 80.0548 64.26 82.2919 62.9682 84.2094C62.0801 85.6582 61.3534 86.5317 60.7883 86.83C60.3039 87.0856 59.9002 87.5757 59.5772 88.3001C59.1735 89.0245 58.7699 89.3866 58.3662 89.3866C57.5588 89.3866 56.9129 88.5557 56.4285 86.8939C55.7019 84.5929 54.3697 82.7393 52.432 81.3331C51.5439 80.6088 51.0999 80.0335 51.0999 79.6074C51.0999 79.1813 50.8576 78.8404 50.3732 78.5847C49.8081 78.2865 48.7989 77.9456 47.3456 77.5621C45.4079 77.0507 43.7932 76.7951 42.5014 76.7951C40.3215 76.7951 38.9893 77.5408 38.5049 79.0321C38.3434 79.4583 38.2627 79.7352 38.2627 79.8631C38.2627 80.2466 38.5856 80.6088 39.2315 80.9497C39.7967 81.2479 40.2407 81.5675 40.5637 81.9084C40.8059 82.2493 41.1289 82.6541 41.5325 83.1228C41.8555 83.5915 42.1784 83.9963 42.5014 84.3372C43.3895 85.1468 44.1161 86.4678 44.6813 88.3001C45.2464 90.0471 45.6905 90.9846 46.0134 91.1124C46.3364 91.2402 47.0226 92.7529 48.0722 95.6505C48.9603 98.5906 49.6062 100.061 50.0099 100.061C50.3329 100.061 50.4943 100.252 50.4943 100.636C50.4943 101.318 51.5843 101.659 53.7642 101.659C55.056 101.659 56.3477 101.573 57.6395 101.403C61.6764 100.934 63.9774 99.9968 64.5425 98.5907C64.7847 98.0793 65.4306 97.2271 66.4802 96.034C67.4491 94.7983 67.9335 94.0739 67.9335 93.8608C67.9335 93.5199 68.5794 92.8168 69.8712 91.7516C71.0822 90.7289 71.6877 89.9619 71.6877 89.4506C71.6877 88.9392 71.9703 88.4279 72.5355 87.9166C75.1998 85.1895 76.7338 83.3785 77.1375 82.4836C77.2182 82.3558 77.5815 81.738 78.2274 80.6301C78.8733 79.4796 79.1963 78.7339 79.1963 78.393C79.1963 77.9669 79.4385 77.626 79.9229 77.3703C80.1651 77.2425 80.2862 77.0507 80.2862 76.7951C80.2862 75.9855 79.4789 75.2185 77.8641 74.4941Z" fill="#6D614E"/>
<path d="M72.7405 74.4941C73.9515 73.9401 74.7993 73.6631 75.2837 73.6631C76.2525 73.6631 78.2306 74.9415 81.2178 77.4981C84.2051 80.0548 86.3446 82.2919 87.6364 84.2094C88.5245 85.6582 89.2511 86.5317 89.8163 86.83C90.3007 87.0856 90.7044 87.5757 91.0274 88.3001C91.431 89.0245 91.8347 89.3866 92.2384 89.3866C93.0458 89.3866 93.6917 88.5557 94.1761 86.8939C94.9027 84.5929 96.2349 82.7393 98.1726 81.3331C99.0607 80.6088 99.5047 80.0335 99.5047 79.6074C99.5047 79.1813 99.7469 78.8404 100.231 78.5847C100.797 78.2865 101.806 77.9456 103.259 77.5621C105.197 77.0507 106.811 76.7951 108.103 76.7951C110.283 76.7951 111.615 77.5408 112.1 79.0321C112.261 79.4583 112.342 79.7352 112.342 79.8631C112.342 80.2466 112.019 80.6088 111.373 80.9497C110.808 81.2479 110.364 81.5675 110.041 81.9084C109.799 82.2493 109.476 82.6541 109.072 83.1228C108.749 83.5915 108.426 83.9963 108.103 84.3372C107.215 85.1468 106.488 86.4678 105.923 88.3001C105.358 90.0471 104.914 90.9846 104.591 91.1124C104.268 91.2402 103.582 92.7529 102.532 95.6505C101.644 98.5906 100.998 100.061 100.595 100.061C100.272 100.061 100.11 100.252 100.11 100.636C100.11 101.318 99.0203 101.659 96.8404 101.659C95.5486 101.659 94.2568 101.573 92.965 101.403C88.9282 100.934 86.6272 99.9968 86.062 98.5907C85.8198 98.0793 85.1739 97.2271 84.1244 96.034C83.1555 94.7983 82.6711 94.0739 82.6711 93.8608C82.6711 93.5199 82.0252 92.8168 80.7334 91.7516C79.5224 90.7289 78.9168 89.9619 78.9168 89.4506C78.9168 88.9392 78.6343 88.4279 78.0691 87.9166C75.4048 85.1895 73.8708 83.3785 73.4671 82.4836C73.3864 82.3558 73.023 81.738 72.3771 80.6301C71.7313 79.4796 71.4083 78.7339 71.4083 78.393C71.4083 77.9669 71.1661 77.626 70.6817 77.3703C70.4395 77.2425 70.3184 77.0507 70.3184 76.7951C70.3184 75.9855 71.1257 75.2185 72.7405 74.4941Z" fill="#6D614E"/>
</svg>
