<svg width="71" height="45" viewBox="0 0 71 45" fill="none" xmlns="http://www.w3.org/2000/svg">
<path d="M28.256 5.744C28.256 6.128 28.576 6.992 29.216 8.336C29.856 9.616 30.176 10.512 30.176 11.024C30.176 11.664 30.336 12.144 30.656 12.464C31.104 12.72 31.68 14.704 32.384 18.416C33.152 22.064 33.76 25.872 34.208 29.84C34.336 30.928 34.496 32.528 34.688 34.64C34.944 36.752 35.072 37.904 35.072 38.096C35.2 39.248 35.264 40.016 35.264 40.4C35.264 41.36 35.104 42.224 34.784 42.992L34.208 44.624L31.136 44.24C27.616 43.856 25.856 43.248 25.856 42.416C25.856 42.032 25.728 40.4 25.472 37.52C25.216 34.576 25.056 32.944 24.992 32.624C24.992 32.112 24.896 31.696 24.704 31.376C24.576 31.184 24.448 29.936 24.32 27.632C24.256 24.688 23.936 22.48 23.36 21.008C22.976 19.984 22.784 18.896 22.784 17.744C22.784 16.464 22.688 15.76 22.496 15.632C22.368 15.568 21.92 14.864 21.152 13.52L20.192 11.504L18.848 13.136C18.144 14.032 17.216 15.856 16.064 18.608C14.976 21.296 14.24 23.568 13.856 25.424C13.664 26.32 13.376 27.344 12.992 28.496C12.672 29.584 12.416 30.608 12.224 31.568C12.032 32.464 11.936 33.616 11.936 35.024C11.936 35.216 11.936 35.536 11.936 35.984C12 36.368 12.032 36.688 12.032 36.944L12.32 41.936L10.592 43.472C9.76 44.24 8.96 44.624 8.192 44.624C7.936 44.624 7.36 44.528 6.464 44.336C5.568 44.144 4.736 44.048 3.968 44.048C2.944 43.856 2.368 40.816 2.24 34.928C2.176 30.768 1.888 28.4 1.376 27.824C1.056 27.44 0.896 25.648 0.896 22.448V18.896C1.088 11.344 2.048 6.288 3.776 3.728C4.224 2.896 4.352 2.224 4.16 1.712C3.968 1.264 4.16 1.04 4.736 1.04L5.792 1.136C7.2 1.264 8.032 1.328 8.288 1.328C8.544 1.392 8.736 1.712 8.864 2.288C9.056 2.864 9.344 4.496 9.728 7.184C9.984 8.592 10.272 9.296 10.592 9.296C10.72 9.296 11.008 9.072 11.456 8.624C11.968 8.112 12.352 7.856 12.608 7.856C13.12 7.856 13.568 7.6 13.952 7.088C15.104 5.616 17.088 4.816 19.904 4.688C21.504 4.624 22.528 4.304 22.976 3.728C23.296 3.344 23.552 3.152 23.744 3.152C24 3.152 24.736 3.408 25.952 3.92C27.488 4.624 28.256 5.232 28.256 5.744ZM55.8958 2C57.5598 1.36 59.8638 1.04 62.8078 1.04C64.4718 1.04 65.3998 1.2 65.5918 1.52C65.7838 1.776 66.1038 1.744 66.5518 1.424C67.0638 1.04 67.4158 1.072 67.6078 1.52C67.7998 2.096 68.3758 2.544 69.3358 2.864C69.9118 3.056 70.2638 3.28 70.3918 3.536C70.5838 3.792 70.6798 4.24 70.6798 4.88V5.84C70.5518 7.568 70.3598 8.464 70.1038 8.528C70.0398 8.592 69.6238 8.624 68.8558 8.624C67.5118 8.624 66.4238 8.592 65.5918 8.528H63.8638C62.4558 8.528 61.4318 8.688 60.7918 9.008C60.1518 9.264 59.6078 9.84 59.1598 10.736C58.1998 12.528 57.6878 16.88 57.6238 23.792C57.4958 29.104 57.2718 31.92 56.9518 32.24C56.5678 32.624 56.3758 33.104 56.3758 33.68C56.3758 34.192 55.9918 34.448 55.2238 34.448C54.5198 34.448 53.9118 34.416 53.3998 34.352C50.9038 34.096 49.3038 33.872 48.5998 33.68C47.8958 33.424 47.5118 33.008 47.4478 32.432C47.3198 29.68 47.1278 27.568 46.8718 26.096C45.9118 20.784 45.4318 15.856 45.4318 11.312V10.544C45.4958 7.216 45.8798 4.88 46.5838 3.536C47.3518 2.128 48.5678 1.424 50.2318 1.424C51.4478 1.424 52.2478 1.68 52.6318 2.192C52.9518 2.512 53.2398 2.672 53.4958 2.672C53.9438 2.672 54.7438 2.448 55.8958 2Z" fill="#6D614E"/>
</svg>
