<svg width="83" height="17" viewBox="0 0 83 17" fill="none" xmlns="http://www.w3.org/2000/svg">
<path d="M3.288 16.228C2.704 16.228 2.176 16.152 1.704 16C1.232 15.84 0.912 15.68 0.744 15.52L0.708 13.036C0.972 13.18 1.184 13.276 1.344 13.324C1.504 13.372 1.712 13.396 1.968 13.396C2.4 13.396 2.74 13.268 2.988 13.012C3.244 12.756 3.372 12.324 3.372 11.716V2.992L2.796 1.936H7.272V11.488C7.272 12.048 7.24 12.548 7.176 12.988C7.12 13.42 7.004 13.848 6.828 14.272C6.652 14.688 6.42 15.036 6.132 15.316C5.844 15.588 5.46 15.808 4.98 15.976C4.5 16.144 3.936 16.228 3.288 16.228ZM13.7053 14.812C14.0573 14.812 14.3253 14.668 14.5093 14.38C14.7013 14.084 14.7973 13.68 14.7973 13.168V9.376C14.7973 7.816 14.4293 7.036 13.6933 7.036C13.3493 7.036 13.0813 7.176 12.8893 7.456C12.6973 7.736 12.6013 8.132 12.6013 8.644V12.544C12.6013 14.056 12.9693 14.812 13.7053 14.812ZM13.6093 16.252C11.7773 16.252 10.4373 15.836 9.58931 15.004C8.74131 14.172 8.31731 12.844 8.31731 11.02C8.31731 9.212 8.74531 7.852 9.60131 6.94C10.4573 6.02 11.8493 5.56 13.7773 5.56C15.6573 5.56 17.0133 6 17.8453 6.88C18.6853 7.752 19.1053 9.076 19.1053 10.852C19.1053 12.692 18.6613 14.052 17.7733 14.932C16.8933 15.812 15.5053 16.252 13.6093 16.252ZM24.2886 16H20.4126V8.236L19.6926 7.792V6.508L22.2726 5.8H24.3126V7.348C24.3526 7.292 24.4086 7.22 24.4806 7.132C24.5606 7.036 24.7046 6.888 24.9126 6.688C25.1206 6.488 25.3326 6.312 25.5486 6.16C25.7726 6.008 26.0406 5.872 26.3526 5.752C26.6726 5.624 26.9886 5.56 27.3006 5.56C28.1006 5.56 28.7126 5.712 29.1366 6.016C29.5606 6.32 29.8606 6.816 30.0366 7.504C30.3086 7.032 30.7246 6.592 31.2846 6.184C31.8526 5.768 32.4766 5.56 33.1566 5.56C33.9086 5.56 34.4926 5.692 34.9086 5.956C35.3326 6.212 35.6406 6.652 35.8326 7.276C36.0246 7.9 36.1206 8.78 36.1206 9.916V16H32.2206V9.568C32.2206 9.216 32.1366 8.94 31.9686 8.74C31.8006 8.54 31.5446 8.44 31.2006 8.44C30.9686 8.44 30.6526 8.632 30.2526 9.016C30.2766 9.4 30.2886 9.816 30.2886 10.264V16H26.3286V9.568C26.3526 8.816 26.0326 8.44 25.3686 8.44C25.3206 8.44 25.2726 8.444 25.2246 8.452C25.1846 8.46 25.1446 8.468 25.1046 8.476C25.0726 8.484 25.0326 8.5 24.9846 8.524C24.9446 8.54 24.9086 8.556 24.8766 8.572C24.8446 8.58 24.8086 8.6 24.7686 8.632C24.7286 8.656 24.6966 8.676 24.6726 8.692C24.6486 8.708 24.6126 8.736 24.5646 8.776C24.5246 8.808 24.4926 8.832 24.4686 8.848C24.4526 8.864 24.4206 8.892 24.3726 8.932C24.3326 8.964 24.3046 8.988 24.2886 9.004V16ZM41.3591 16H37.4711V2.428L36.7511 1.996V0.88L40.6031 0.28H41.3831V7.348L41.5271 7.168C41.6231 7.04 41.7631 6.888 41.9471 6.712C42.1391 6.536 42.3511 6.364 42.5831 6.196C42.8151 6.02 43.0911 5.872 43.4111 5.752C43.7391 5.624 44.0591 5.56 44.3711 5.56C45.4671 5.56 46.2391 5.86 46.6871 6.46C47.1431 7.06 47.3711 8.064 47.3711 9.472C47.3711 9.52 47.3711 9.592 47.3711 9.688C47.3631 9.784 47.3591 9.86 47.3591 9.916V16H43.3991V9.568C43.4231 8.816 43.1031 8.44 42.4391 8.44C42.3751 8.44 42.3111 8.444 42.2471 8.452C42.1911 8.46 42.1311 8.48 42.0671 8.512C42.0031 8.544 41.9511 8.568 41.9111 8.584C41.8791 8.6 41.8271 8.632 41.7551 8.68C41.6911 8.728 41.6471 8.76 41.6231 8.776C41.6071 8.792 41.5591 8.832 41.4791 8.896C41.4071 8.96 41.3671 8.996 41.3591 9.004V16ZM54.722 14.404C54.674 14.516 54.574 14.664 54.422 14.848C54.278 15.032 54.086 15.236 53.846 15.46C53.606 15.676 53.31 15.86 52.958 16.012C52.606 16.172 52.25 16.252 51.89 16.252C50.762 16.252 49.954 15.916 49.466 15.244C48.986 14.572 48.746 13.452 48.746 11.884V7.612L48.326 7.18V5.8H52.682V12.64C52.674 13 52.734 13.268 52.862 13.444C52.99 13.612 53.222 13.696 53.558 13.696C53.606 13.696 53.65 13.696 53.69 13.696C53.73 13.688 53.77 13.68 53.81 13.672C53.85 13.656 53.882 13.644 53.906 13.636C53.938 13.628 53.974 13.616 54.014 13.6C54.054 13.576 54.086 13.556 54.11 13.54C54.134 13.524 54.166 13.504 54.206 13.48C54.246 13.448 54.274 13.424 54.29 13.408C54.314 13.392 54.346 13.368 54.386 13.336C54.434 13.296 54.47 13.268 54.494 13.252V7.612L53.846 7.18V5.8H58.418V16H55.094L54.722 14.404ZM63.9448 16H60.0688V8.236L59.3488 7.792V6.436L61.9288 5.8H62.9008L63.2488 8.656C63.5768 6.696 64.6288 5.716 66.4048 5.716C66.6048 5.716 66.8128 5.752 67.0288 5.824L66.6208 10.096C66.4528 9.944 66.0848 9.868 65.5168 9.868C64.7008 9.868 64.1768 10.084 63.9448 10.516V16ZM67.979 16V8.236L67.259 7.792V6.508L69.839 5.8H71.843V16H67.979ZM69.719 4.696L67.751 2.716V2.296L69.719 0.328H70.175L72.227 2.296V2.716L70.175 4.696H69.719ZM78.6825 14.932L78.5625 15.064C78.4825 15.16 78.3585 15.272 78.1905 15.4C78.0305 15.528 77.8425 15.656 77.6265 15.784C77.4185 15.912 77.1625 16.02 76.8585 16.108C76.5545 16.204 76.2425 16.252 75.9225 16.252C73.7625 16.252 72.6825 15.184 72.6825 13.048C72.6825 12.632 72.7585 12.252 72.9105 11.908C73.0625 11.556 73.2585 11.26 73.4985 11.02C73.7385 10.78 74.0265 10.568 74.3625 10.384C74.6985 10.192 75.0345 10.044 75.3705 9.94C75.7145 9.828 76.0745 9.736 76.4505 9.664C76.8265 9.592 77.1625 9.544 77.4585 9.52C77.7545 9.496 78.0385 9.484 78.3105 9.484V9.268C78.3105 8.78 78.1785 8.436 77.9145 8.236C77.6585 8.036 77.2425 7.936 76.6665 7.936C76.1705 7.936 75.6545 7.996 75.1185 8.116C74.5825 8.228 74.1625 8.364 73.8585 8.524L73.0905 6.892C73.6345 6.54 74.3425 6.232 75.2145 5.968C76.0865 5.696 76.9745 5.56 77.8785 5.56C78.6785 5.56 79.3385 5.64 79.8585 5.8C80.3785 5.952 80.7985 6.216 81.1185 6.592C81.4465 6.96 81.6785 7.432 81.8145 8.008C81.9505 8.576 82.0185 9.3 82.0185 10.18V15.064L82.3545 16H79.0665L78.6825 14.932ZM77.7345 14.14C77.8385 14.14 77.9345 14.12 78.0225 14.08C78.1185 14.032 78.1905 13.988 78.2385 13.948C78.2865 13.9 78.3105 13.876 78.3105 13.876V10.996C77.8225 10.996 77.4345 11.132 77.1465 11.404C76.8585 11.668 76.7145 12.08 76.7145 12.64C76.7145 13.64 77.0545 14.14 77.7345 14.14Z" fill="black"/>
</svg>
