<svg width="1500" height="250" viewBox="0 0 1500 250" fill="none" xmlns="http://www.w3.org/2000/svg">
<rect width="250" height="250" fill="#D4E2CD"/>
<path d="M82.5284 241L86.8239 214.818H89.3807L85.0852 241H82.5284ZM70.6136 233.739L71.0227 231.182H90.5568L90.1477 233.739H70.6136ZM73.3239 241L77.6193 214.818H80.1761L75.8807 241H73.3239ZM72.1477 224.636L72.5568 222.08H92.0909L91.6818 224.636H72.1477ZM103.961 241H95.8814V214.818H104.319C106.859 214.818 109.032 215.342 110.839 216.391C112.646 217.43 114.031 218.926 114.994 220.878C115.957 222.821 116.438 225.148 116.438 227.858C116.438 230.585 115.952 232.933 114.981 234.902C114.009 236.862 112.594 238.371 110.737 239.428C108.879 240.476 106.62 241 103.961 241ZM99.0518 238.188H103.756C105.921 238.188 107.715 237.77 109.138 236.935C110.562 236.099 111.623 234.911 112.322 233.368C113.021 231.825 113.37 229.989 113.37 227.858C113.37 225.744 113.025 223.925 112.335 222.399C111.644 220.865 110.613 219.689 109.241 218.871C107.869 218.044 106.16 217.631 104.114 217.631H99.0518V238.188ZM120.683 235.631V233.023L132.188 214.818H134.08V218.858H132.802L124.109 232.614V232.818H139.603V235.631H120.683ZM133.006 241V234.838V233.624V214.818H136.023V241H133.006ZM144.854 241V214.818H160.655V217.631H148.025V226.477H159.837V229.29H148.025V238.188H160.86V241H144.854ZM165.909 241V238.699L174.551 229.239C175.566 228.131 176.401 227.168 177.057 226.349C177.713 225.523 178.199 224.747 178.515 224.023C178.838 223.29 179 222.523 179 221.722C179 220.801 178.779 220.004 178.336 219.331C177.901 218.658 177.304 218.138 176.546 217.771C175.787 217.405 174.935 217.222 173.989 217.222C172.983 217.222 172.105 217.43 171.355 217.848C170.614 218.257 170.039 218.832 169.63 219.574C169.229 220.315 169.029 221.185 169.029 222.182H166.012C166.012 220.648 166.365 219.301 167.073 218.142C167.78 216.983 168.743 216.08 169.962 215.432C171.189 214.784 172.566 214.46 174.091 214.46C175.625 214.46 176.985 214.784 178.169 215.432C179.354 216.08 180.283 216.953 180.956 218.053C181.63 219.152 181.966 220.375 181.966 221.722C181.966 222.685 181.792 223.626 181.442 224.547C181.101 225.459 180.505 226.477 179.652 227.602C178.809 228.719 177.637 230.082 176.137 231.693L170.256 237.983V238.188H182.426V241H165.909ZM209.235 223H206.064C205.877 222.088 205.549 221.287 205.08 220.597C204.62 219.906 204.057 219.327 203.392 218.858C202.736 218.381 202.007 218.023 201.206 217.784C200.405 217.545 199.57 217.426 198.701 217.426C197.115 217.426 195.679 217.827 194.392 218.628C193.114 219.429 192.096 220.609 191.337 222.169C190.587 223.729 190.212 225.642 190.212 227.909C190.212 230.176 190.587 232.089 191.337 233.649C192.096 235.209 193.114 236.389 194.392 237.19C195.679 237.991 197.115 238.392 198.701 238.392C199.57 238.392 200.405 238.273 201.206 238.034C202.007 237.795 202.736 237.442 203.392 236.973C204.057 236.496 204.62 235.912 205.08 235.222C205.549 234.523 205.877 233.722 206.064 232.818H209.235C208.996 234.156 208.561 235.354 207.931 236.411C207.3 237.467 206.516 238.366 205.578 239.108C204.641 239.841 203.588 240.399 202.421 240.783C201.262 241.166 200.022 241.358 198.701 241.358C196.468 241.358 194.482 240.812 192.743 239.722C191.005 238.631 189.637 237.08 188.64 235.068C187.642 233.057 187.144 230.67 187.144 227.909C187.144 225.148 187.642 222.761 188.64 220.75C189.637 218.739 191.005 217.188 192.743 216.097C194.482 215.006 196.468 214.46 198.701 214.46C200.022 214.46 201.262 214.652 202.421 215.036C203.588 215.419 204.641 215.982 205.578 216.723C206.516 217.456 207.3 218.351 207.931 219.408C208.561 220.456 208.996 221.653 209.235 223ZM222.438 241H214.358V214.818H222.795C225.335 214.818 227.509 215.342 229.315 216.391C231.122 217.43 232.507 218.926 233.47 220.878C234.433 222.821 234.915 225.148 234.915 227.858C234.915 230.585 234.429 232.933 233.457 234.902C232.486 236.862 231.071 238.371 229.213 239.428C227.355 240.476 225.097 241 222.438 241ZM217.528 238.188H222.233C224.398 238.188 226.192 237.77 227.615 236.935C229.038 236.099 230.099 234.911 230.798 233.368C231.497 231.825 231.847 229.989 231.847 227.858C231.847 225.744 231.501 223.925 230.811 222.399C230.121 220.865 229.089 219.689 227.717 218.871C226.345 218.044 224.636 217.631 222.591 217.631H217.528V238.188Z" fill="black"/>
<rect x="250" width="250" height="250" fill="#FAFAFE"/>
<path d="M351.528 241L355.824 214.818H358.381L354.085 241H351.528ZM339.614 233.739L340.023 231.182H359.557L359.148 233.739H339.614ZM342.324 241L346.619 214.818H349.176L344.881 241H342.324ZM341.148 224.636L341.557 222.08H361.091L360.682 224.636H341.148ZM364.881 241V214.818H380.58V217.631H368.052V226.477H379.404V229.29H368.052V241H364.881ZM383.815 241H380.491L390.104 214.818H393.377L402.991 241H399.667L391.843 218.96H391.638L383.815 241ZM385.042 230.773H398.44V233.585H385.042V230.773ZM407.069 241V214.818H422.768V217.631H410.239V226.477H421.592V229.29H410.239V241H407.069ZM426.002 241H422.678L432.292 214.818H435.565L445.178 241H441.854L434.031 218.96H433.826L426.002 241ZM427.229 230.773H440.627V233.585H427.229V230.773ZM449.256 241V214.818H464.955V217.631H452.427V226.477H463.779V229.29H452.427V241H449.256ZM470.385 241V214.818H486.186V217.631H473.556V226.477H485.368V229.29H473.556V238.188H486.391V241H470.385Z" fill="black"/>
<rect x="500" width="250" height="250" fill="#1C5253"/>
<path d="M594.528 241L598.824 214.818H601.381L597.085 241H594.528ZM582.614 233.739L583.023 231.182H602.557L602.148 233.739H582.614ZM585.324 241L589.619 214.818H592.176L587.881 241H585.324ZM584.148 224.636L584.557 222.08H604.091L603.682 224.636H584.148ZM616.626 214.818V241H613.455V218.142H613.302L606.91 222.386V219.165L613.455 214.818H616.626ZM645.684 223H642.513C642.326 222.088 641.998 221.287 641.529 220.597C641.069 219.906 640.506 219.327 639.842 218.858C639.185 218.381 638.457 218.023 637.656 217.784C636.854 217.545 636.019 217.426 635.15 217.426C633.565 217.426 632.129 217.827 630.842 218.628C629.563 219.429 628.545 220.609 627.786 222.169C627.036 223.729 626.661 225.642 626.661 227.909C626.661 230.176 627.036 232.089 627.786 233.649C628.545 235.209 629.563 236.389 630.842 237.19C632.129 237.991 633.565 238.392 635.15 238.392C636.019 238.392 636.854 238.273 637.656 238.034C638.457 237.795 639.185 237.442 639.842 236.973C640.506 236.496 641.069 235.912 641.529 235.222C641.998 234.523 642.326 233.722 642.513 232.818H645.684C645.445 234.156 645.011 235.354 644.38 236.411C643.749 237.467 642.965 238.366 642.028 239.108C641.09 239.841 640.038 240.399 638.87 240.783C637.711 241.166 636.471 241.358 635.15 241.358C632.917 241.358 630.931 240.812 629.192 239.722C627.454 238.631 626.086 237.08 625.089 235.068C624.092 233.057 623.593 230.67 623.593 227.909C623.593 225.148 624.092 222.761 625.089 220.75C626.086 218.739 627.454 217.188 629.192 216.097C630.931 215.006 632.917 214.46 635.15 214.46C636.471 214.46 637.711 214.652 638.87 215.036C640.038 215.419 641.09 215.982 642.028 216.723C642.965 217.456 643.749 218.351 644.38 219.408C645.011 220.456 645.445 221.653 645.684 223ZM658.529 241.358C657.029 241.358 655.678 241.06 654.476 240.463C653.275 239.866 652.311 239.048 651.587 238.009C650.863 236.969 650.466 235.784 650.398 234.455H653.466C653.586 235.639 654.123 236.619 655.077 237.395C656.04 238.162 657.191 238.545 658.529 238.545C659.603 238.545 660.557 238.294 661.392 237.791C662.236 237.288 662.897 236.598 663.374 235.72C663.86 234.834 664.103 233.832 664.103 232.716C664.103 231.574 663.851 230.555 663.348 229.661C662.854 228.757 662.172 228.045 661.303 227.526C660.434 227.006 659.441 226.741 658.324 226.733C657.523 226.724 656.701 226.848 655.857 227.104C655.013 227.351 654.319 227.67 653.773 228.062L650.807 227.705L652.392 214.818H665.995V217.631H655.051L654.131 225.352H654.284C654.821 224.926 655.495 224.572 656.304 224.291C657.114 224.01 657.958 223.869 658.836 223.869C660.438 223.869 661.865 224.253 663.118 225.02C664.38 225.778 665.368 226.818 666.084 228.139C666.809 229.46 667.171 230.969 667.171 232.665C667.171 234.335 666.796 235.827 666.046 237.139C665.304 238.443 664.282 239.474 662.978 240.233C661.674 240.983 660.191 241.358 658.529 241.358ZM672.249 241V238.699L680.891 229.239C681.906 228.131 682.741 227.168 683.397 226.349C684.053 225.523 684.539 224.747 684.854 224.023C685.178 223.29 685.34 222.523 685.34 221.722C685.34 220.801 685.119 220.004 684.675 219.331C684.241 218.658 683.644 218.138 682.886 217.771C682.127 217.405 681.275 217.222 680.329 217.222C679.323 217.222 678.445 217.43 677.695 217.848C676.954 218.257 676.379 218.832 675.969 219.574C675.569 220.315 675.369 221.185 675.369 222.182H672.352C672.352 220.648 672.705 219.301 673.413 218.142C674.12 216.983 675.083 216.08 676.302 215.432C677.529 214.784 678.906 214.46 680.431 214.46C681.965 214.46 683.325 214.784 684.509 215.432C685.694 216.08 686.623 216.953 687.296 218.053C687.969 219.152 688.306 220.375 688.306 221.722C688.306 222.685 688.131 223.626 687.782 224.547C687.441 225.459 686.844 226.477 685.992 227.602C685.148 228.719 683.977 230.082 682.477 231.693L676.596 237.983V238.188H688.766V241H672.249ZM702.228 241.358C700.728 241.358 699.377 241.06 698.175 240.463C696.974 239.866 696.011 239.048 695.286 238.009C694.562 236.969 694.165 235.784 694.097 234.455H697.165C697.285 235.639 697.822 236.619 698.776 237.395C699.739 238.162 700.89 238.545 702.228 238.545C703.302 238.545 704.256 238.294 705.092 237.791C705.935 237.288 706.596 236.598 707.073 235.72C707.559 234.834 707.802 233.832 707.802 232.716C707.802 231.574 707.55 230.555 707.048 229.661C706.553 228.757 705.871 228.045 705.002 227.526C704.133 227.006 703.14 226.741 702.023 226.733C701.222 226.724 700.4 226.848 699.556 227.104C698.712 227.351 698.018 227.67 697.472 228.062L694.506 227.705L696.092 214.818H709.694V217.631H698.751L697.83 225.352H697.984C698.521 224.926 699.194 224.572 700.004 224.291C700.813 224.01 701.657 223.869 702.535 223.869C704.137 223.869 705.565 224.253 706.817 225.02C708.079 225.778 709.067 226.818 709.783 228.139C710.508 229.46 710.87 230.969 710.87 232.665C710.87 234.335 710.495 235.827 709.745 237.139C709.004 238.443 707.981 239.474 706.677 240.233C705.373 240.983 703.89 241.358 702.228 241.358ZM724.795 241.358C723.108 241.358 721.603 241.068 720.282 240.489C718.97 239.909 717.926 239.104 717.15 238.072C716.383 237.033 715.966 235.827 715.897 234.455H719.119C719.187 235.298 719.477 236.027 719.988 236.641C720.5 237.246 721.169 237.714 721.995 238.047C722.822 238.379 723.738 238.545 724.744 238.545C725.869 238.545 726.866 238.349 727.735 237.957C728.605 237.565 729.287 237.02 729.781 236.321C730.275 235.622 730.522 234.812 730.522 233.892C730.522 232.929 730.284 232.081 729.806 231.348C729.329 230.607 728.63 230.027 727.71 229.609C726.789 229.192 725.664 228.983 724.335 228.983H722.238V226.17H724.335C725.375 226.17 726.287 225.983 727.071 225.608C727.863 225.233 728.481 224.705 728.924 224.023C729.376 223.341 729.602 222.54 729.602 221.619C729.602 220.733 729.406 219.962 729.014 219.305C728.622 218.649 728.068 218.138 727.352 217.771C726.645 217.405 725.809 217.222 724.846 217.222C723.943 217.222 723.091 217.388 722.289 217.72C721.497 218.044 720.849 218.517 720.346 219.139C719.843 219.753 719.571 220.494 719.528 221.364H716.46C716.511 219.991 716.924 218.79 717.7 217.759C718.475 216.719 719.49 215.909 720.743 215.33C722.004 214.75 723.389 214.46 724.897 214.46C726.517 214.46 727.906 214.788 729.065 215.445C730.224 216.092 731.115 216.949 731.737 218.014C732.359 219.08 732.67 220.23 732.67 221.466C732.67 222.94 732.282 224.197 731.507 225.237C730.74 226.277 729.696 226.997 728.375 227.398V227.602C730.028 227.875 731.319 228.578 732.248 229.712C733.177 230.837 733.642 232.23 733.642 233.892C733.642 235.315 733.254 236.594 732.478 237.727C731.711 238.852 730.663 239.739 729.333 240.386C728.004 241.034 726.491 241.358 724.795 241.358Z" fill="white"/>
<rect x="750" width="250" height="250" fill="#B7918C"/>
<path d="M846.528 241L850.824 214.818H853.381L849.085 241H846.528ZM834.614 233.739L835.023 231.182H854.557L854.148 233.739H834.614ZM837.324 241L841.619 214.818H844.176L839.881 241H837.324ZM836.148 224.636L836.557 222.08H856.091L855.682 224.636H836.148ZM859.881 241V214.818H869.035C870.859 214.818 872.363 215.134 873.548 215.764C874.732 216.386 875.614 217.226 876.194 218.283C876.773 219.331 877.063 220.494 877.063 221.773C877.063 222.898 876.863 223.827 876.462 224.56C876.07 225.293 875.55 225.872 874.903 226.298C874.263 226.724 873.569 227.04 872.819 227.244V227.5C873.62 227.551 874.425 227.832 875.235 228.344C876.045 228.855 876.722 229.588 877.268 230.543C877.813 231.497 878.086 232.665 878.086 234.045C878.086 235.358 877.788 236.538 877.191 237.587C876.594 238.635 875.653 239.466 874.366 240.08C873.079 240.693 871.404 241 869.342 241H859.881ZM863.052 238.188H869.342C871.413 238.188 872.883 237.787 873.752 236.986C874.63 236.176 875.069 235.196 875.069 234.045C875.069 233.159 874.843 232.341 874.391 231.591C873.94 230.832 873.296 230.227 872.461 229.776C871.626 229.315 870.637 229.085 869.495 229.085H863.052V238.188ZM863.052 226.324H868.933C869.887 226.324 870.748 226.136 871.515 225.761C872.29 225.386 872.904 224.858 873.356 224.176C873.816 223.494 874.046 222.693 874.046 221.773C874.046 220.622 873.646 219.646 872.844 218.845C872.043 218.036 870.773 217.631 869.035 217.631H863.052V226.324ZM883.653 241L895.364 217.835V217.631H881.864V214.818H898.636V217.784L886.977 241H883.653ZM911.385 214.46C912.459 214.469 913.533 214.673 914.607 215.074C915.681 215.474 916.661 216.139 917.547 217.068C918.434 217.989 919.145 219.246 919.682 220.839C920.219 222.433 920.488 224.432 920.488 226.835C920.488 229.162 920.266 231.229 919.823 233.036C919.388 234.834 918.757 236.351 917.931 237.587C917.113 238.822 916.115 239.76 914.939 240.399C913.772 241.038 912.451 241.358 910.976 241.358C909.51 241.358 908.202 241.068 907.051 240.489C905.909 239.901 904.972 239.087 904.239 238.047C903.515 236.999 903.05 235.784 902.846 234.403H905.965C906.246 235.605 906.804 236.598 907.64 237.382C908.483 238.158 909.596 238.545 910.976 238.545C912.996 238.545 914.59 237.663 915.757 235.899C916.934 234.135 917.522 231.642 917.522 228.42H917.317C916.84 229.136 916.273 229.754 915.617 230.274C914.961 230.794 914.232 231.195 913.431 231.476C912.63 231.757 911.777 231.898 910.874 231.898C909.374 231.898 907.998 231.527 906.745 230.786C905.5 230.036 904.503 229.009 903.753 227.705C903.012 226.392 902.641 224.892 902.641 223.205C902.641 221.602 902.999 220.136 903.715 218.807C904.439 217.469 905.453 216.403 906.757 215.611C908.07 214.818 909.613 214.435 911.385 214.46ZM911.385 217.273C910.311 217.273 909.344 217.541 908.483 218.078C907.631 218.607 906.953 219.322 906.451 220.226C905.956 221.121 905.709 222.114 905.709 223.205C905.709 224.295 905.948 225.288 906.425 226.183C906.911 227.07 907.571 227.777 908.407 228.305C909.25 228.825 910.209 229.085 911.283 229.085C912.093 229.085 912.847 228.928 913.546 228.612C914.245 228.288 914.854 227.849 915.374 227.295C915.902 226.733 916.316 226.098 916.614 225.391C916.912 224.675 917.061 223.929 917.061 223.153C917.061 222.131 916.814 221.172 916.32 220.277C915.834 219.382 915.161 218.658 914.3 218.104C913.448 217.55 912.476 217.273 911.385 217.273ZM934.719 214.818V241H931.549V218.142H931.396L925.004 222.386V219.165L931.549 214.818H934.719ZM950.636 241.358C948.88 241.358 947.329 241.047 945.982 240.425C944.644 239.794 943.6 238.929 942.85 237.83C942.1 236.722 941.729 235.46 941.738 234.045C941.729 232.937 941.947 231.915 942.39 230.977C942.833 230.031 943.438 229.243 944.205 228.612C944.981 227.973 945.846 227.568 946.8 227.398V227.244C945.548 226.92 944.55 226.217 943.809 225.135C943.067 224.044 942.701 222.804 942.71 221.415C942.701 220.085 943.038 218.896 943.719 217.848C944.401 216.8 945.339 215.973 946.532 215.368C947.734 214.763 949.102 214.46 950.636 214.46C952.153 214.46 953.508 214.763 954.701 215.368C955.894 215.973 956.832 216.8 957.513 217.848C958.204 218.896 958.553 220.085 958.562 221.415C958.553 222.804 958.174 224.044 957.424 225.135C956.683 226.217 955.698 226.92 954.471 227.244V227.398C955.417 227.568 956.269 227.973 957.028 228.612C957.786 229.243 958.391 230.031 958.843 230.977C959.295 231.915 959.525 232.937 959.533 234.045C959.525 235.46 959.141 236.722 958.383 237.83C957.633 238.929 956.589 239.794 955.251 240.425C953.921 241.047 952.383 241.358 950.636 241.358ZM950.636 238.545C951.82 238.545 952.843 238.354 953.704 237.97C954.565 237.587 955.229 237.045 955.698 236.347C956.167 235.648 956.406 234.83 956.414 233.892C956.406 232.903 956.15 232.03 955.647 231.271C955.144 230.513 954.458 229.916 953.589 229.482C952.728 229.047 951.744 228.83 950.636 228.83C949.519 228.83 948.522 229.047 947.644 229.482C946.775 229.916 946.089 230.513 945.586 231.271C945.092 232.03 944.849 232.903 944.857 233.892C944.849 234.83 945.075 235.648 945.535 236.347C946.004 237.045 946.673 237.587 947.542 237.97C948.411 238.354 949.442 238.545 950.636 238.545ZM950.636 226.119C951.573 226.119 952.404 225.932 953.129 225.557C953.862 225.182 954.437 224.658 954.854 223.984C955.272 223.311 955.485 222.523 955.494 221.619C955.485 220.733 955.276 219.962 954.867 219.305C954.458 218.641 953.891 218.129 953.167 217.771C952.442 217.405 951.599 217.222 950.636 217.222C949.656 217.222 948.799 217.405 948.066 217.771C947.333 218.129 946.766 218.641 946.366 219.305C945.965 219.962 945.769 220.733 945.778 221.619C945.769 222.523 945.969 223.311 946.379 223.984C946.796 224.658 947.371 225.182 948.104 225.557C948.837 225.932 949.681 226.119 950.636 226.119ZM985.961 223H982.791C982.603 222.088 982.275 221.287 981.806 220.597C981.346 219.906 980.784 219.327 980.119 218.858C979.463 218.381 978.734 218.023 977.933 217.784C977.132 217.545 976.297 217.426 975.427 217.426C973.842 217.426 972.406 217.827 971.119 218.628C969.841 219.429 968.822 220.609 968.064 222.169C967.314 223.729 966.939 225.642 966.939 227.909C966.939 230.176 967.314 232.089 968.064 233.649C968.822 235.209 969.841 236.389 971.119 237.19C972.406 237.991 973.842 238.392 975.427 238.392C976.297 238.392 977.132 238.273 977.933 238.034C978.734 237.795 979.463 237.442 980.119 236.973C980.784 236.496 981.346 235.912 981.806 235.222C982.275 234.523 982.603 233.722 982.791 232.818H985.961C985.723 234.156 985.288 235.354 984.657 236.411C984.027 237.467 983.243 238.366 982.305 239.108C981.368 239.841 980.315 240.399 979.147 240.783C977.988 241.166 976.748 241.358 975.427 241.358C973.194 241.358 971.208 240.812 969.47 239.722C967.731 238.631 966.363 237.08 965.366 235.068C964.369 233.057 963.87 230.67 963.87 227.909C963.87 225.148 964.369 222.761 965.366 220.75C966.363 218.739 967.731 217.188 969.47 216.097C971.208 215.006 973.194 214.46 975.427 214.46C976.748 214.46 977.988 214.652 979.147 215.036C980.315 215.419 981.368 215.982 982.305 216.723C983.243 217.456 984.027 218.351 984.657 219.408C985.288 220.456 985.723 221.653 985.961 223Z" fill="black"/>
<rect x="1000" width="250" height="250" fill="#E58F65"/>
<path d="M1095.53 241L1099.82 214.818H1102.38L1098.09 241H1095.53ZM1083.61 233.739L1084.02 231.182H1103.56L1103.15 233.739H1083.61ZM1086.32 241L1090.62 214.818H1093.18L1088.88 241H1086.32ZM1085.15 224.636L1085.56 222.08H1105.09L1104.68 224.636H1085.15ZM1108.88 241V214.818H1124.68V217.631H1112.05V226.477H1123.86V229.29H1112.05V238.188H1124.89V241H1108.88ZM1138.12 241.358C1136.62 241.358 1135.27 241.06 1134.07 240.463C1132.86 239.866 1131.9 239.048 1131.18 238.009C1130.45 236.969 1130.06 235.784 1129.99 234.455H1133.06C1133.18 235.639 1133.71 236.619 1134.67 237.395C1135.63 238.162 1136.78 238.545 1138.12 238.545C1139.19 238.545 1140.15 238.294 1140.98 237.791C1141.83 237.288 1142.49 236.598 1142.96 235.72C1143.45 234.834 1143.69 233.832 1143.69 232.716C1143.69 231.574 1143.44 230.555 1142.94 229.661C1142.44 228.757 1141.76 228.045 1140.89 227.526C1140.02 227.006 1139.03 226.741 1137.91 226.733C1137.11 226.724 1136.29 226.848 1135.45 227.104C1134.6 227.351 1133.91 227.67 1133.36 228.062L1130.4 227.705L1131.98 214.818H1145.58V217.631H1134.64L1133.72 225.352H1133.87C1134.41 224.926 1135.08 224.572 1135.89 224.291C1136.7 224.01 1137.55 223.869 1138.43 223.869C1140.03 223.869 1141.46 224.253 1142.71 225.02C1143.97 225.778 1144.96 226.818 1145.67 228.139C1146.4 229.46 1146.76 230.969 1146.76 232.665C1146.76 234.335 1146.39 235.827 1145.64 237.139C1144.89 238.443 1143.87 239.474 1142.57 240.233C1141.26 240.983 1139.78 241.358 1138.12 241.358ZM1160.23 241.358C1158.47 241.358 1156.92 241.047 1155.57 240.425C1154.23 239.794 1153.19 238.929 1152.44 237.83C1151.69 236.722 1151.32 235.46 1151.33 234.045C1151.32 232.937 1151.54 231.915 1151.98 230.977C1152.42 230.031 1153.03 229.243 1153.8 228.612C1154.57 227.973 1155.44 227.568 1156.39 227.398V227.244C1155.14 226.92 1154.14 226.217 1153.4 225.135C1152.66 224.044 1152.29 222.804 1152.3 221.415C1152.29 220.085 1152.63 218.896 1153.31 217.848C1153.99 216.8 1154.93 215.973 1156.12 215.368C1157.32 214.763 1158.69 214.46 1160.23 214.46C1161.74 214.46 1163.1 214.763 1164.29 215.368C1165.48 215.973 1166.42 216.8 1167.1 217.848C1167.79 218.896 1168.14 220.085 1168.15 221.415C1168.14 222.804 1167.76 224.044 1167.01 225.135C1166.27 226.217 1165.29 226.92 1164.06 227.244V227.398C1165.01 227.568 1165.86 227.973 1166.62 228.612C1167.38 229.243 1167.98 230.031 1168.43 230.977C1168.88 231.915 1169.11 232.937 1169.12 234.045C1169.11 235.46 1168.73 236.722 1167.97 237.83C1167.22 238.929 1166.18 239.794 1164.84 240.425C1163.51 241.047 1161.97 241.358 1160.23 241.358ZM1160.23 238.545C1161.41 238.545 1162.43 238.354 1163.29 237.97C1164.15 237.587 1164.82 237.045 1165.29 236.347C1165.76 235.648 1166 234.83 1166 233.892C1166 232.903 1165.74 232.03 1165.24 231.271C1164.73 230.513 1164.05 229.916 1163.18 229.482C1162.32 229.047 1161.33 228.83 1160.23 228.83C1159.11 228.83 1158.11 229.047 1157.23 229.482C1156.36 229.916 1155.68 230.513 1155.18 231.271C1154.68 232.03 1154.44 232.903 1154.45 233.892C1154.44 234.83 1154.66 235.648 1155.12 236.347C1155.59 237.045 1156.26 237.587 1157.13 237.97C1158 238.354 1159.03 238.545 1160.23 238.545ZM1160.23 226.119C1161.16 226.119 1161.99 225.932 1162.72 225.557C1163.45 225.182 1164.03 224.658 1164.44 223.984C1164.86 223.311 1165.07 222.523 1165.08 221.619C1165.07 220.733 1164.87 219.962 1164.46 219.305C1164.05 218.641 1163.48 218.129 1162.76 217.771C1162.03 217.405 1161.19 217.222 1160.23 217.222C1159.25 217.222 1158.39 217.405 1157.66 217.771C1156.92 218.129 1156.36 218.641 1155.96 219.305C1155.56 219.962 1155.36 220.733 1155.37 221.619C1155.36 222.523 1155.56 223.311 1155.97 223.984C1156.39 224.658 1156.96 225.182 1157.69 225.557C1158.43 225.932 1159.27 226.119 1160.23 226.119ZM1174.48 241V214.818H1190.18V217.631H1177.65V226.477H1189.01V229.29H1177.65V241H1174.48ZM1203.84 241.358C1202.77 241.341 1201.7 241.136 1200.62 240.744C1199.55 240.352 1198.57 239.692 1197.68 238.763C1196.8 237.825 1196.08 236.56 1195.55 234.966C1195.01 233.364 1194.74 231.352 1194.74 228.932C1194.74 226.614 1194.96 224.56 1195.39 222.77C1195.83 220.972 1196.46 219.459 1197.29 218.232C1198.11 216.996 1199.11 216.058 1200.28 215.419C1201.45 214.78 1202.78 214.46 1204.25 214.46C1205.72 214.46 1207.02 214.754 1208.17 215.342C1209.32 215.922 1210.25 216.732 1210.98 217.771C1211.7 218.811 1212.17 220.009 1212.38 221.364H1209.27C1208.98 220.187 1208.41 219.212 1207.58 218.436C1206.74 217.661 1205.63 217.273 1204.25 217.273C1202.23 217.273 1200.63 218.155 1199.46 219.919C1198.3 221.683 1197.72 224.159 1197.71 227.347H1197.91C1198.39 226.622 1198.96 226.004 1199.61 225.493C1200.28 224.973 1201.01 224.572 1201.81 224.291C1202.61 224.01 1203.46 223.869 1204.36 223.869C1205.86 223.869 1207.23 224.244 1208.47 224.994C1209.72 225.736 1210.71 226.763 1211.46 228.075C1212.21 229.379 1212.59 230.875 1212.59 232.562C1212.59 234.182 1212.23 235.665 1211.5 237.011C1210.78 238.349 1209.76 239.415 1208.45 240.207C1207.14 240.991 1205.61 241.375 1203.84 241.358ZM1203.84 238.545C1204.92 238.545 1205.88 238.277 1206.73 237.74C1207.59 237.203 1208.27 236.483 1208.77 235.58C1209.27 234.676 1209.52 233.67 1209.52 232.562C1209.52 231.48 1209.28 230.496 1208.79 229.609C1208.31 228.714 1207.65 228.003 1206.81 227.474C1205.98 226.946 1205.02 226.682 1203.95 226.682C1203.14 226.682 1202.38 226.844 1201.68 227.168C1200.99 227.483 1200.37 227.918 1199.84 228.472C1199.32 229.026 1198.91 229.661 1198.62 230.376C1198.32 231.084 1198.17 231.83 1198.17 232.614C1198.17 233.653 1198.41 234.625 1198.9 235.528C1199.39 236.432 1200.06 237.161 1200.92 237.714C1201.78 238.268 1202.75 238.545 1203.84 238.545ZM1225.8 241.358C1224.3 241.358 1222.95 241.06 1221.75 240.463C1220.54 239.866 1219.58 239.048 1218.86 238.009C1218.13 236.969 1217.74 235.784 1217.67 234.455H1220.74C1220.86 235.639 1221.39 236.619 1222.35 237.395C1223.31 238.162 1224.46 238.545 1225.8 238.545C1226.87 238.545 1227.83 238.294 1228.66 237.791C1229.51 237.288 1230.17 236.598 1230.64 235.72C1231.13 234.834 1231.37 233.832 1231.37 232.716C1231.37 231.574 1231.12 230.555 1230.62 229.661C1230.12 228.757 1229.44 228.045 1228.57 227.526C1227.7 227.006 1226.71 226.741 1225.59 226.733C1224.79 226.724 1223.97 226.848 1223.13 227.104C1222.28 227.351 1221.59 227.67 1221.04 228.062L1218.08 227.705L1219.66 214.818H1233.26V217.631H1222.32L1221.4 225.352H1221.55C1222.09 224.926 1222.76 224.572 1223.57 224.291C1224.38 224.01 1225.23 223.869 1226.11 223.869C1227.71 223.869 1229.13 224.253 1230.39 225.02C1231.65 225.778 1232.64 226.818 1233.35 228.139C1234.08 229.46 1234.44 230.969 1234.44 232.665C1234.44 234.335 1234.07 235.827 1233.32 237.139C1232.57 238.443 1231.55 239.474 1230.25 240.233C1228.94 240.983 1227.46 241.358 1225.8 241.358Z" fill="black"/>
<rect x="1250" width="250" height="250" fill="black"/>
<path d="M1344.53 241L1348.82 214.818H1351.38L1347.09 241H1344.53ZM1332.61 233.739L1333.02 231.182H1352.56L1352.15 233.739H1332.61ZM1335.32 241L1339.62 214.818H1342.18L1337.88 241H1335.32ZM1334.15 224.636L1334.56 222.08H1354.09L1353.68 224.636H1334.15ZM1365.96 241.358C1364.03 241.358 1362.39 240.834 1361.04 239.786C1359.68 238.729 1358.65 237.199 1357.93 235.196C1357.22 233.185 1356.86 230.756 1356.86 227.909C1356.86 225.08 1357.22 222.663 1357.93 220.661C1358.66 218.649 1359.7 217.115 1361.05 216.058C1362.42 214.993 1364.05 214.46 1365.96 214.46C1367.87 214.46 1369.5 214.993 1370.86 216.058C1372.22 217.115 1373.26 218.649 1373.98 220.661C1374.7 222.663 1375.06 225.08 1375.06 227.909C1375.06 230.756 1374.71 233.185 1373.99 235.196C1373.27 237.199 1372.24 238.729 1370.88 239.786C1369.53 240.834 1367.89 241.358 1365.96 241.358ZM1365.96 238.545C1367.87 238.545 1369.35 237.625 1370.41 235.784C1371.47 233.943 1372 231.318 1372 227.909C1372 225.642 1371.75 223.712 1371.27 222.118C1370.79 220.524 1370.1 219.31 1369.2 218.474C1368.3 217.639 1367.22 217.222 1365.96 217.222C1364.07 217.222 1362.59 218.155 1361.52 220.021C1360.46 221.879 1359.93 224.509 1359.93 227.909C1359.93 230.176 1360.17 232.102 1360.64 233.688C1361.12 235.273 1361.81 236.479 1362.7 237.305C1363.6 238.132 1364.69 238.545 1365.96 238.545ZM1388.46 241.358C1386.53 241.358 1384.89 240.834 1383.54 239.786C1382.18 238.729 1381.15 237.199 1380.43 235.196C1379.72 233.185 1379.36 230.756 1379.36 227.909C1379.36 225.08 1379.72 222.663 1380.43 220.661C1381.16 218.649 1382.2 217.115 1383.55 216.058C1384.92 214.993 1386.55 214.46 1388.46 214.46C1390.37 214.46 1392 214.993 1393.36 216.058C1394.72 217.115 1395.76 218.649 1396.48 220.661C1397.2 222.663 1397.56 225.08 1397.56 227.909C1397.56 230.756 1397.21 233.185 1396.49 235.196C1395.77 237.199 1394.74 238.729 1393.38 239.786C1392.03 240.834 1390.39 241.358 1388.46 241.358ZM1388.46 238.545C1390.37 238.545 1391.85 237.625 1392.91 235.784C1393.97 233.943 1394.5 231.318 1394.5 227.909C1394.5 225.642 1394.25 223.712 1393.77 222.118C1393.29 220.524 1392.6 219.31 1391.7 218.474C1390.8 217.639 1389.72 217.222 1388.46 217.222C1386.57 217.222 1385.09 218.155 1384.02 220.021C1382.96 221.879 1382.43 224.509 1382.43 227.909C1382.43 230.176 1382.67 232.102 1383.14 233.688C1383.62 235.273 1384.31 236.479 1385.2 237.305C1386.1 238.132 1387.19 238.545 1388.46 238.545ZM1410.96 241.358C1409.03 241.358 1407.39 240.834 1406.04 239.786C1404.68 238.729 1403.65 237.199 1402.93 235.196C1402.22 233.185 1401.86 230.756 1401.86 227.909C1401.86 225.08 1402.22 222.663 1402.93 220.661C1403.66 218.649 1404.7 217.115 1406.05 216.058C1407.42 214.993 1409.05 214.46 1410.96 214.46C1412.87 214.46 1414.5 214.993 1415.86 216.058C1417.22 217.115 1418.26 218.649 1418.98 220.661C1419.7 222.663 1420.06 225.08 1420.06 227.909C1420.06 230.756 1419.71 233.185 1418.99 235.196C1418.27 237.199 1417.24 238.729 1415.88 239.786C1414.53 240.834 1412.89 241.358 1410.96 241.358ZM1410.96 238.545C1412.87 238.545 1414.35 237.625 1415.41 235.784C1416.47 233.943 1417 231.318 1417 227.909C1417 225.642 1416.75 223.712 1416.27 222.118C1415.79 220.524 1415.1 219.31 1414.2 218.474C1413.3 217.639 1412.22 217.222 1410.96 217.222C1409.07 217.222 1407.59 218.155 1406.52 220.021C1405.46 221.879 1404.93 224.509 1404.93 227.909C1404.93 230.176 1405.17 232.102 1405.64 233.688C1406.12 235.273 1406.81 236.479 1407.7 237.305C1408.6 238.132 1409.69 238.545 1410.96 238.545ZM1433.46 241.358C1431.53 241.358 1429.89 240.834 1428.54 239.786C1427.18 238.729 1426.15 237.199 1425.43 235.196C1424.72 233.185 1424.36 230.756 1424.36 227.909C1424.36 225.08 1424.72 222.663 1425.43 220.661C1426.16 218.649 1427.2 217.115 1428.55 216.058C1429.92 214.993 1431.55 214.46 1433.46 214.46C1435.37 214.46 1437 214.993 1438.36 216.058C1439.72 217.115 1440.76 218.649 1441.48 220.661C1442.2 222.663 1442.56 225.08 1442.56 227.909C1442.56 230.756 1442.21 233.185 1441.49 235.196C1440.77 237.199 1439.74 238.729 1438.38 239.786C1437.03 240.834 1435.39 241.358 1433.46 241.358ZM1433.46 238.545C1435.37 238.545 1436.85 237.625 1437.91 235.784C1438.97 233.943 1439.5 231.318 1439.5 227.909C1439.5 225.642 1439.25 223.712 1438.77 222.118C1438.29 220.524 1437.6 219.31 1436.7 218.474C1435.8 217.639 1434.72 217.222 1433.46 217.222C1431.57 217.222 1430.09 218.155 1429.02 220.021C1427.96 221.879 1427.43 224.509 1427.43 227.909C1427.43 230.176 1427.67 232.102 1428.14 233.688C1428.62 235.273 1429.31 236.479 1430.2 237.305C1431.1 238.132 1432.19 238.545 1433.46 238.545ZM1455.96 241.358C1454.03 241.358 1452.39 240.834 1451.04 239.786C1449.68 238.729 1448.65 237.199 1447.93 235.196C1447.22 233.185 1446.86 230.756 1446.86 227.909C1446.86 225.08 1447.22 222.663 1447.93 220.661C1448.66 218.649 1449.7 217.115 1451.05 216.058C1452.42 214.993 1454.05 214.46 1455.96 214.46C1457.87 214.46 1459.5 214.993 1460.86 216.058C1462.22 217.115 1463.26 218.649 1463.98 220.661C1464.7 222.663 1465.06 225.08 1465.06 227.909C1465.06 230.756 1464.71 233.185 1463.99 235.196C1463.27 237.199 1462.24 238.729 1460.88 239.786C1459.53 240.834 1457.89 241.358 1455.96 241.358ZM1455.96 238.545C1457.87 238.545 1459.35 237.625 1460.41 235.784C1461.47 233.943 1462 231.318 1462 227.909C1462 225.642 1461.75 223.712 1461.27 222.118C1460.79 220.524 1460.1 219.31 1459.2 218.474C1458.3 217.639 1457.22 217.222 1455.96 217.222C1454.07 217.222 1452.59 218.155 1451.52 220.021C1450.46 221.879 1449.93 224.509 1449.93 227.909C1449.93 230.176 1450.17 232.102 1450.64 233.688C1451.12 235.273 1451.81 236.479 1452.7 237.305C1453.6 238.132 1454.69 238.545 1455.96 238.545ZM1478.46 241.358C1476.53 241.358 1474.89 240.834 1473.54 239.786C1472.18 238.729 1471.15 237.199 1470.43 235.196C1469.72 233.185 1469.36 230.756 1469.36 227.909C1469.36 225.08 1469.72 222.663 1470.43 220.661C1471.16 218.649 1472.2 217.115 1473.55 216.058C1474.92 214.993 1476.55 214.46 1478.46 214.46C1480.37 214.46 1482 214.993 1483.36 216.058C1484.72 217.115 1485.76 218.649 1486.48 220.661C1487.2 222.663 1487.56 225.08 1487.56 227.909C1487.56 230.756 1487.21 233.185 1486.49 235.196C1485.77 237.199 1484.74 238.729 1483.38 239.786C1482.03 240.834 1480.39 241.358 1478.46 241.358ZM1478.46 238.545C1480.37 238.545 1481.85 237.625 1482.91 235.784C1483.97 233.943 1484.5 231.318 1484.5 227.909C1484.5 225.642 1484.25 223.712 1483.77 222.118C1483.29 220.524 1482.6 219.31 1481.7 218.474C1480.8 217.639 1479.72 217.222 1478.46 217.222C1476.57 217.222 1475.09 218.155 1474.02 220.021C1472.96 221.879 1472.43 224.509 1472.43 227.909C1472.43 230.176 1472.67 232.102 1473.14 233.688C1473.62 235.273 1474.31 236.479 1475.2 237.305C1476.1 238.132 1477.19 238.545 1478.46 238.545Z" fill="white"/>
</svg>
