<svg width="353" height="56" viewBox="0 0 353 56" fill="none" xmlns="http://www.w3.org/2000/svg">
<path d="M36.8555 22.957C35.6602 23.4961 34.4297 23.9414 33.1641 24.293C31.9219 24.6211 30.668 24.9375 29.4023 25.2422C29.3555 25.2422 29.2266 25.2656 29.0156 25.3125C28.8281 25.3594 28.6289 25.418 28.418 25.4883C28.207 25.5352 28.0078 25.582 27.8203 25.6289C27.6562 25.6523 27.5742 25.6641 27.5742 25.6641C27.293 25.5703 27.0117 25.5703 26.7305 25.6641C26.4727 25.7344 26.2031 25.8281 25.9219 25.9453C25.6641 26.0625 25.3828 26.1562 25.0781 26.2266C24.7734 26.2734 24.4336 26.2148 24.0586 26.0508C23.9883 26.0273 23.8594 26.0508 23.6719 26.1211C23.4844 26.168 23.2969 26.2383 23.1094 26.332C22.9219 26.4258 22.7578 26.543 22.6172 26.6836C22.4766 26.8008 22.3945 26.9062 22.3711 27L22.582 27.2109C22.6055 27.2812 22.5703 27.4219 22.4766 27.6328C22.3828 27.8203 22.2773 28.0312 22.1602 28.2656C22.043 28.4766 21.9141 28.6758 21.7734 28.8633C21.6562 29.0508 21.5625 29.168 21.4922 29.2148C21.5156 29.4258 21.457 29.6836 21.3164 29.9883C21.1992 30.2695 21.0586 30.5742 20.8945 30.9023C20.7539 31.2305 20.6133 31.5703 20.4727 31.9219C20.3555 32.2734 20.2969 32.6016 20.2969 32.9062C20.2969 33 20.3086 33.0938 20.332 33.1875C20.3555 33.2812 20.3555 33.3633 20.332 33.4336L20.2969 33.5039C20.0625 33.6914 19.8867 33.9375 19.7695 34.2422C19.6758 34.5234 19.5938 34.8281 19.5234 35.1562C19.4766 35.4609 19.4062 35.7656 19.3125 36.0703C19.2422 36.375 19.1133 36.6445 18.9258 36.8789V36.9141L18.8906 36.9492C18.5859 37.0898 18.3281 37.1133 18.1172 37.0195C17.9297 36.9258 17.7539 36.7852 17.5898 36.5977C17.4492 36.4102 17.3086 36.1992 17.168 35.9648C17.0508 35.707 16.9102 35.4844 16.7461 35.2969C16.6523 34.9922 16.6172 34.7344 16.6406 34.5234C16.6641 34.2891 16.7695 34.0547 16.957 33.8203L17.0273 33.7852C16.8867 33.5977 16.8398 33.4336 16.8867 33.293C16.957 33.1289 17.0273 32.9766 17.0977 32.8359C17.1914 32.6953 17.25 32.5547 17.2734 32.4141C17.3203 32.25 17.25 32.0625 17.0625 31.8516L17.1328 31.7812C17.4375 31.4766 17.6016 31.1367 17.625 30.7617C17.6484 30.3633 17.625 29.9648 17.5547 29.5664C17.5078 29.168 17.4727 28.7695 17.4492 28.3711C17.4492 27.9727 17.5664 27.6094 17.8008 27.2812L17.8359 27.2461C17.8594 27.1055 17.7656 26.918 17.5547 26.6836C17.3438 26.4492 17.1797 26.2734 17.0625 26.1562C16.9219 26.5078 16.7344 26.6953 16.5 26.7188C16.2891 26.7188 16.043 26.6836 15.7617 26.6133C15.5039 26.543 15.2461 26.4844 14.9883 26.4375C14.7305 26.3906 14.4961 26.4727 14.2852 26.6836L14.1094 26.8242L14.0391 26.6836C13.9453 26.4727 13.8164 26.3672 13.6523 26.3672C13.5117 26.3438 13.3477 26.3438 13.1602 26.3672C12.8789 26.3906 12.6094 26.4141 12.3516 26.4375C12.1172 26.4375 11.8711 26.4375 11.6133 26.4375C11.4727 26.3203 11.3086 26.2734 11.1211 26.2969C10.957 26.3203 10.7812 26.3438 10.5938 26.3672C10.4297 26.3906 10.2539 26.4023 10.0664 26.4023C9.90234 26.3789 9.73828 26.2734 9.57422 26.0859C9.41016 26.1562 9.15234 26.4375 8.80078 26.9297C8.44922 27.3984 8.07422 27.9258 7.67578 28.5117C7.30078 29.0977 6.9375 29.6719 6.58594 30.2344C6.25781 30.7734 6.03516 31.1484 5.91797 31.3594C5.82422 31.5 5.70703 31.6758 5.56641 31.8867C5.44922 32.0977 5.32031 32.3203 5.17969 32.5547C5.03906 32.7656 4.91016 32.9766 4.79297 33.1875C4.67578 33.375 4.58203 33.5391 4.51172 33.6797L4.54688 33.7852C4.54688 34.0195 4.51172 34.207 4.44141 34.3477C4.37109 34.4648 4.27734 34.5703 4.16016 34.6641C4.06641 34.7344 3.97266 34.8047 3.87891 34.875C3.78516 34.9219 3.70312 34.9805 3.63281 35.0508C3.44531 35.0508 3.30469 35.0977 3.21094 35.1914C3.11719 35.2852 3.03516 35.3906 2.96484 35.5078C2.89453 35.625 2.8125 35.7305 2.71875 35.8242C2.60156 35.918 2.42578 35.9648 2.19141 35.9648C2.09766 36.082 2.03906 36.1641 2.01562 36.2109C1.99219 36.2578 1.95703 36.3516 1.91016 36.4922C1.86328 36.6562 1.82812 36.7734 1.80469 36.8438C1.75781 36.9141 1.72266 36.9609 1.69922 36.9844C1.65234 37.0312 1.60547 37.0664 1.55859 37.0898C1.51172 37.1367 1.46484 37.1953 1.41797 37.2656C1.27734 37.2891 1.17188 37.2656 1.10156 37.1953C1.03125 37.125 0.960938 37.0312 0.890625 36.9141C0.820312 36.8203 0.761719 36.7148 0.714844 36.5977C0.644531 36.5039 0.5625 36.4336 0.46875 36.3867L0.503906 36.2812C0.972656 34.8984 1.53516 33.5859 2.19141 32.3438C2.84766 31.0781 3.55078 29.8242 4.30078 28.582C4.34766 28.4883 4.38281 28.3945 4.40625 28.3008C4.42969 28.207 4.46484 28.1133 4.51172 28.0195C4.62891 27.7148 4.74609 27.4219 4.86328 27.1406C5.00391 26.8594 5.16797 26.5898 5.35547 26.332C5.51953 26.0742 5.66016 25.8281 5.77734 25.5938C5.91797 25.3594 6.04688 25.1133 6.16406 24.8555L6.09375 24.7852C5.34375 24.1758 4.6875 23.5547 4.125 22.9219C3.58594 22.2656 3.07031 21.5273 2.57812 20.707C2.46094 20.4961 2.34375 20.2852 2.22656 20.0742C2.10938 19.8398 1.99219 19.6289 1.875 19.4414L1.83984 19.4062C1.83984 18.9375 1.875 18.4688 1.94531 18C2.01562 17.5312 2.22656 17.1211 2.57812 16.7695L2.61328 16.7344V16.6992C2.73047 16.4648 2.85938 16.2891 3 16.1719C3.14062 16.0547 3.28125 15.9609 3.42188 15.8906C3.58594 15.8203 3.75 15.7617 3.91406 15.7148C4.07812 15.6445 4.24219 15.5391 4.40625 15.3984V15.3633C4.94531 15.1289 5.47266 14.9297 5.98828 14.7656C6.50391 14.6016 7.05469 14.6719 7.64062 14.9766L7.71094 14.9414C7.92188 14.8242 8.17969 14.7656 8.48438 14.7656C8.78906 14.7422 9.05859 14.7305 9.29297 14.7305C9.43359 14.8008 9.57422 14.8945 9.71484 15.0117C9.87891 15.1055 10.0312 15.1992 10.1719 15.293C10.3359 15.3867 10.5 15.457 10.6641 15.5039C10.8281 15.5508 10.9805 15.5391 11.1211 15.4688H11.1562V15.4336C11.3906 15.1992 11.5781 14.8711 11.7188 14.4492C11.8594 14.0039 12 13.5352 12.1406 13.043C12.3047 12.5508 12.4805 12.0703 12.668 11.6016C12.8555 11.1094 13.1133 10.6875 13.4414 10.3359C13.4414 10.2656 13.4883 10.1133 13.582 9.87891C13.6758 9.62109 13.7695 9.33984 13.8633 9.03516C13.9805 8.70703 14.0625 8.39062 14.1094 8.08594C14.1797 7.75781 14.1797 7.48828 14.1094 7.27734L14.4258 7.3125C14.5195 7.21875 14.5781 7.13672 14.6016 7.06641L14.5664 6.96094C14.4727 6.86719 14.4375 6.75 14.4609 6.60938C14.4844 6.46875 14.5195 6.33984 14.5664 6.22266H14.5312L14.4961 6.08203C14.5664 6.05859 14.6953 6.01172 14.8828 5.94141C15.0938 5.87109 15.3047 5.78906 15.5156 5.69531C15.7266 5.60156 15.9141 5.51953 16.0781 5.44922C16.2656 5.37891 16.3711 5.34375 16.3945 5.34375C16.7227 5.53125 16.8984 5.74219 16.9219 5.97656C16.9688 6.21094 16.957 6.49219 16.8867 6.82031C16.8633 6.98438 16.8516 7.125 16.8516 7.24219C16.875 7.33594 16.8867 7.45312 16.8867 7.59375C16.8867 7.82812 16.8281 8.12109 16.7109 8.47266C16.5938 8.80078 16.4531 9.15234 16.2891 9.52734C16.1484 9.90234 15.9844 10.2539 15.7969 10.582C15.6094 10.9102 15.4453 11.1797 15.3047 11.3906V11.6016C15.3047 12.0938 15.2344 12.6094 15.0938 13.1484C14.9531 13.6641 14.7773 14.1797 14.5664 14.6953C14.3555 15.2109 14.1211 15.7148 13.8633 16.207C13.6289 16.6992 13.3945 17.168 13.1602 17.6133C12.9961 17.8945 12.8203 18.2227 12.6328 18.5977C12.4453 18.9492 12.2578 19.3125 12.0703 19.6875C11.9062 20.0625 11.7539 20.4492 11.6133 20.8477C11.4961 21.2227 11.4141 21.5625 11.3672 21.8672V21.9023L10.4883 23.5547C10.582 23.6719 10.7227 23.7773 10.9102 23.8711C11.1211 23.9414 11.332 24.0117 11.543 24.082C11.7773 24.1523 12 24.2109 12.2109 24.2578C12.4453 24.2812 12.6445 24.293 12.8086 24.293C13.0664 24.293 13.2773 24.3164 13.4414 24.3633C13.6289 24.3867 13.8164 24.5039 14.0039 24.7148L14.0742 24.7852H14.1445C14.332 24.7383 14.4961 24.7148 14.6367 24.7148C14.7773 24.7148 14.9414 24.7148 15.1289 24.7148C15.3164 24.7617 15.4922 24.7734 15.6562 24.75C15.8438 24.7266 16.0312 24.7031 16.2188 24.6797L16.1836 24.9258C16.3008 25.043 16.3945 25.125 16.4648 25.1719C16.582 24.9844 16.7227 24.7969 16.8867 24.6094C16.9805 24.75 17.0625 24.8555 17.1328 24.9258C17.2031 24.8789 17.2852 24.7852 17.3789 24.6445C17.4961 24.5039 17.5781 24.4336 17.625 24.4336L17.6602 24.3984L17.6953 24.4336C18.1172 24.5742 18.5039 24.6211 18.8555 24.5742C19.207 24.5273 19.5938 24.5039 20.0156 24.5039C20.0859 24.3398 20.1797 24.2109 20.2969 24.1172C20.4375 24.0234 20.5547 23.9297 20.6484 23.8359C20.7656 23.7188 20.8359 23.6016 20.8594 23.4844C20.8828 23.3672 20.8242 23.2031 20.6836 22.9922L20.6484 22.9219C20.6484 22.9219 20.6836 22.8516 20.7539 22.7109C20.8477 22.5703 20.9414 22.418 21.0352 22.2539C21.1289 22.0664 21.2109 21.9023 21.2812 21.7617C21.375 21.6211 21.4336 21.5273 21.457 21.4805C21.9258 20.707 22.3359 19.9219 22.6875 19.125C23.0391 18.3047 23.2148 17.4375 23.2148 16.5234V16.2773C23.2617 16.2539 23.3086 16.2422 23.3555 16.2422C23.707 16.1016 23.8945 15.9141 23.918 15.6797C23.9414 15.4219 23.9297 15.1523 23.8828 14.8711C23.8359 14.5898 23.8359 14.3086 23.8828 14.0273C23.9531 13.7461 24.1992 13.5 24.6211 13.2891L24.6914 13.2539L24.7266 13.1836C24.8672 12.832 24.9844 12.4805 25.0781 12.1289C25.1953 11.7539 25.3242 11.3906 25.4648 11.0391C25.9102 9.98438 26.2383 8.84766 26.4492 7.62891C26.4961 7.34766 26.6016 7.10156 26.7656 6.89062C26.9531 6.65625 27.1406 6.43359 27.3281 6.22266C27.5156 5.98828 27.6797 5.75391 27.8203 5.51953C27.9844 5.26172 28.0664 4.98047 28.0664 4.67578C28.0664 4.48828 28.043 4.35938 27.9961 4.28906V4.18359L28.0664 4.14844C28.5352 3.91406 28.8984 3.62109 29.1562 3.26953C29.4141 2.91797 29.543 2.47266 29.543 1.93359C29.543 1.86328 29.5312 1.73438 29.5078 1.54688C29.5078 1.35937 29.4844 1.24219 29.4375 1.19531C29.6484 1.05469 29.8711 0.867187 30.1055 0.632812L30.1758 0.667969C30.6211 0.996094 30.8906 1.33594 30.9844 1.6875C31.1016 2.01563 31.125 2.35547 31.0547 2.70703C31.0078 3.05859 30.9258 3.42188 30.8086 3.79688C30.6914 4.17187 30.6328 4.55859 30.6328 4.95703L30.5977 4.99219C30.2461 5.60156 29.9648 6.29297 29.7539 7.06641C29.543 7.83984 29.4375 8.58984 29.4375 9.31641C29.1797 9.31641 29.0156 9.375 28.9453 9.49219C28.8984 9.60938 28.8516 9.76172 28.8047 9.94922C28.7812 10.1133 28.7344 10.2891 28.6641 10.4766C28.6172 10.6641 28.4766 10.8281 28.2422 10.9688L28.3125 11.0742C28.3125 11.1211 28.3125 11.1562 28.3125 11.1797C28.3359 11.2031 28.3477 11.2383 28.3477 11.2852C28.3477 11.4258 28.3125 11.5547 28.2422 11.6719C28.1719 11.7656 28.1016 11.8711 28.0312 11.9883C27.9609 12.082 27.9141 12.1875 27.8906 12.3047C27.8906 12.4219 27.9492 12.5508 28.0664 12.6914C28.1602 12.832 28.2188 12.9141 28.2422 12.9375H27.8555C27.4805 13.6641 27.1406 14.4023 26.8359 15.1523C26.5312 15.9023 26.25 16.6641 25.9922 17.4375C25.7812 18.0938 25.5586 18.7383 25.3242 19.3711C25.0898 20.0039 24.8086 20.625 24.4805 21.2344V21.3398C24.6914 21.7383 24.7031 22.0547 24.5156 22.2891C24.3516 22.5234 24.1641 22.7344 23.9531 22.9219C23.7656 23.0859 23.6367 23.25 23.5664 23.4141C23.4961 23.5781 23.6602 23.7891 24.0586 24.0469C24.3633 23.7422 24.6445 23.6367 24.9023 23.7305C25.1602 23.8242 25.4766 23.918 25.8516 24.0117C25.9219 23.9414 25.9805 23.8828 26.0273 23.8359C26.0977 23.7656 26.2031 23.7539 26.3438 23.8008C26.3672 23.8242 26.3906 23.8477 26.4141 23.8711C26.4375 23.8711 26.4609 23.8828 26.4844 23.9062C26.625 23.6953 26.7539 23.5781 26.8711 23.5547C26.9883 23.5312 27.1055 23.543 27.2227 23.5898C27.3398 23.6367 27.457 23.6836 27.5742 23.7305C27.6914 23.7773 27.8086 23.7656 27.9258 23.6953C27.9961 23.6484 28.043 23.5781 28.0664 23.4844C28.0898 23.3672 28.125 23.2617 28.1719 23.168C28.5234 23.5195 28.8164 23.6953 29.0508 23.6953C29.3086 23.6719 29.543 23.6016 29.7539 23.4844C29.9883 23.3438 30.2109 23.2148 30.4219 23.0977C30.6562 22.9805 30.9258 22.9922 31.2305 23.1328C31.4883 23.1328 31.7461 23.1094 32.0039 23.0625C32.2852 22.9922 32.5547 22.9336 32.8125 22.8867C33.4922 22.7695 34.1602 22.6758 34.8164 22.6055C35.4727 22.5352 36.1406 22.5586 36.8203 22.6758L36.8555 22.957ZM9.82031 16.207C9.60938 16.207 9.41016 16.2188 9.22266 16.2422C9.05859 16.2656 8.90625 16.3477 8.76562 16.4883C8.74219 16.4648 8.71875 16.4531 8.69531 16.4531C7.78125 16.1953 6.90234 16.2422 6.05859 16.5938C5.21484 16.9453 4.48828 17.4492 3.87891 18.1055L3.80859 18.3867C3.78516 18.457 3.77344 18.5391 3.77344 18.6328C3.77344 18.7031 3.77344 18.7617 3.77344 18.8086C3.77344 19.2539 3.87891 19.6641 4.08984 20.0391C4.23047 20.3203 4.39453 20.5547 4.58203 20.7422C4.79297 20.9297 5.01562 21.1055 5.25 21.2695C5.50781 21.4336 5.75391 21.5977 5.98828 21.7617C6.24609 21.9258 6.48047 22.125 6.69141 22.3594C7.16016 22.3594 7.47656 22.2422 7.64062 22.0078C7.82812 21.75 7.95703 21.457 8.02734 21.1289C8.12109 20.7773 8.21484 20.4258 8.30859 20.0742C8.40234 19.7227 8.60156 19.4414 8.90625 19.2305C8.92969 19.2305 8.94141 19.2305 8.94141 19.2305C8.94141 19.207 8.95312 19.1953 8.97656 19.1953C8.88281 18.9609 8.88281 18.7266 8.97656 18.4922C9.09375 18.2578 9.22266 18.0234 9.36328 17.7891C9.52734 17.5547 9.65625 17.3086 9.75 17.0508C9.86719 16.793 9.89062 16.5117 9.82031 16.207ZM54.75 24.9609C54.8438 25.3125 54.8086 25.6172 54.6445 25.875C54.4805 26.1094 54.2578 26.3203 53.9766 26.5078C53.7188 26.6953 53.4258 26.8711 53.0977 27.0352C52.793 27.1758 52.5352 27.3398 52.3242 27.5273C51.2695 27.7617 50.3086 27.9375 49.4414 28.0547C48.5977 28.1484 47.6602 28.2773 46.6289 28.4414C46.3242 28.4883 46.0312 28.4883 45.75 28.4414C45.4922 28.3711 45.2227 28.3477 44.9414 28.3711C44.7773 28.3711 44.625 28.3711 44.4844 28.3711C44.3438 28.3477 44.2031 28.3477 44.0625 28.3711C43.5234 28.418 43.1719 28.6055 43.0078 28.9336C42.8438 29.2383 42.7031 29.6016 42.5859 30.0234C42.4922 30.4219 42.3633 30.8086 42.1992 31.1836C42.0586 31.5352 41.7422 31.7812 41.25 31.9219C41.2031 32.0391 41.2148 32.1445 41.2852 32.2383C41.3789 32.332 41.4492 32.4141 41.4961 32.4844C41.0977 32.6016 40.8281 32.8125 40.6875 33.1172C40.5703 33.4219 40.4648 33.7266 40.3711 34.0312C40.2773 34.3359 40.1367 34.5938 39.9492 34.8047C39.7852 35.0156 39.457 35.0859 38.9648 35.0156C38.2383 35.7891 37.3828 36.4102 36.3984 36.8789C35.4141 37.3711 34.3945 37.6875 33.3398 37.8281C33.1523 37.7344 32.9648 37.6172 32.7773 37.4766C32.6133 37.3359 32.4375 37.207 32.25 37.0898C32.0859 36.9727 31.8984 36.8789 31.6875 36.8086C31.5 36.7617 31.2773 36.7617 31.0195 36.8086C30.9961 36.3164 30.9023 35.8594 30.7383 35.4375C30.5508 35.0156 30.3164 34.6172 30.0352 34.2422C29.9883 33.8203 30.0469 33.4336 30.2109 33.082C30.3516 32.707 30.5039 32.3438 30.668 31.9922C30.832 31.6406 30.9727 31.2891 31.0898 30.9375C31.1836 30.5625 31.1602 30.1406 31.0195 29.6719C31.2539 29.5312 31.4062 29.3672 31.4766 29.1797C31.5703 28.9922 31.6289 28.8047 31.6523 28.6172C31.6992 28.4062 31.7578 28.2188 31.8281 28.0547C31.8984 27.8672 32.0625 27.7148 32.3203 27.5977C32.1328 27.0352 32.1562 26.625 32.3906 26.3672C32.6484 26.0859 32.9531 25.8398 33.3047 25.6289C33.6562 25.418 33.9844 25.1836 34.2891 24.9258C34.5938 24.668 34.7109 24.2812 34.6406 23.7656C34.7812 23.625 34.9453 23.5078 35.1328 23.4141C35.3203 23.3203 35.4961 23.2383 35.6602 23.168C35.8477 23.0742 36.0234 22.9805 36.1875 22.8867C36.3516 22.793 36.5039 22.6641 36.6445 22.5C36.4805 22.3828 36.3984 22.2656 36.3984 22.1484C36.4219 22.0312 36.457 21.9141 36.5039 21.7969C36.5508 21.6562 36.5977 21.5156 36.6445 21.375C36.7148 21.2344 36.7148 21.0938 36.6445 20.9531C37.2773 21.0469 37.8281 20.9648 38.2969 20.707C38.7891 20.4258 39.2461 20.1445 39.668 19.8633C40.1133 19.582 40.5586 19.3828 41.0039 19.2656C41.4492 19.1484 41.9648 19.2891 42.5508 19.6875C42.5977 19.8516 42.668 20.0977 42.7617 20.4258C42.8789 20.7305 42.9844 21.0469 43.0781 21.375C43.1953 21.7031 43.3008 22.0195 43.3945 22.3242C43.4883 22.6289 43.5469 22.8516 43.5703 22.9922C43.5703 23.1094 43.5703 23.2969 43.5703 23.5547C43.5703 23.8125 43.5703 24.0938 43.5703 24.3984C43.5703 24.6797 43.5703 24.9492 43.5703 25.207C43.5703 25.4648 43.5703 25.6641 43.5703 25.8047C44.25 26.2031 44.9297 26.4492 45.6094 26.543C46.2891 26.6133 46.9688 26.4492 47.6484 26.0508C47.9062 26.2852 48.1523 26.3555 48.3867 26.2617C48.6211 26.1445 48.8438 26.0156 49.0547 25.875C49.2891 25.7344 49.5234 25.6641 49.7578 25.6641C49.9922 25.6406 50.2266 25.8281 50.4609 26.2266C50.7891 25.9219 51.1289 25.7344 51.4805 25.6641C51.832 25.5703 52.1953 25.5234 52.5703 25.5234C52.9453 25.5 53.3086 25.4648 53.6602 25.418C54.0352 25.3711 54.3984 25.2188 54.75 24.9609ZM41.25 25.5586C41.25 25.207 41.3086 24.832 41.4258 24.4336C41.543 24.0352 41.6367 23.6484 41.707 23.2734C41.7773 22.875 41.7656 22.5 41.6719 22.1484C41.6016 21.7969 41.3789 21.4805 41.0039 21.1992C40.7461 21.3398 40.5352 21.5391 40.3711 21.7969C40.207 22.0312 40.043 22.2773 39.8789 22.5352C39.7148 22.7695 39.5156 22.9688 39.2812 23.1328C39.0703 23.2969 38.7891 23.3438 38.4375 23.2734C38.3203 23.5547 38.3203 23.7891 38.4375 23.9766C38.5547 24.1406 38.6953 24.3047 38.8594 24.4688C39.0234 24.6094 39.1758 24.7617 39.3164 24.9258C39.4805 25.0898 39.5391 25.3008 39.4922 25.5586C39.5859 25.6289 39.7148 25.6992 39.8789 25.7695C40.043 25.8164 40.207 25.8516 40.3711 25.875C40.5586 25.875 40.7344 25.8516 40.8984 25.8047C41.0625 25.7578 41.1797 25.6758 41.25 25.5586ZM41.0039 28.3711C40.5352 28.3711 40.125 28.2656 39.7734 28.0547C39.4453 27.8203 39.1055 27.5625 38.7539 27.2812C38.4258 27 38.0742 26.7422 37.6992 26.5078C37.3477 26.25 36.9141 26.0977 36.3984 26.0508C36.1875 26.332 35.9414 26.6016 35.6602 26.8594C35.3789 27.0938 35.1328 27.3516 34.9219 27.6328C34.7109 27.9141 34.5586 28.2188 34.4648 28.5469C34.3945 28.875 34.4531 29.25 34.6406 29.6719C34.1016 29.9297 33.7383 30.3047 33.5508 30.7969C33.3633 31.2656 33.2344 31.7812 33.1641 32.3438C33.1172 32.9062 33.0703 33.4688 33.0234 34.0312C32.9766 34.5938 32.8242 35.0977 32.5664 35.543L33.3398 35.0156C33.4336 35.0625 33.5039 35.1328 33.5508 35.2266C33.6211 35.3203 33.6328 35.4258 33.5859 35.543C33.7734 35.3555 33.9844 35.2148 34.2188 35.1211C34.4531 35.0039 34.6875 34.9219 34.9219 34.875C35.1797 34.8047 35.4258 34.7461 35.6602 34.6992C35.918 34.6523 36.1641 34.582 36.3984 34.4883C36.9844 34.8164 37.4062 34.8867 37.6641 34.6992C37.9219 34.5117 38.1328 34.2305 38.2969 33.8555C38.4609 33.4805 38.6367 33.0938 38.8242 32.6953C39.0117 32.2734 39.3164 32.0156 39.7383 31.9219L39.4922 31.6758C39.8906 31.1836 40.2422 30.6797 40.5469 30.1641C40.875 29.625 41.0273 29.0273 41.0039 28.3711ZM89.3086 29.8828C89.0977 30.0703 88.8047 30.3164 88.4297 30.6211C88.0781 30.9023 87.8438 31.1602 87.7266 31.3945C87.5859 31.6289 87.4688 31.8398 87.375 32.0273C87.3047 32.2148 87.2109 32.3789 87.0938 32.5195C87 32.6367 86.8594 32.7305 86.6719 32.8008C86.5078 32.8711 86.2734 32.9062 85.9688 32.9062C85.9688 32.9766 85.8398 33.1289 85.582 33.3633C85.3477 33.5742 85.0898 33.8086 84.8086 34.0664C84.5273 34.3008 84.2695 34.5352 84.0352 34.7695C83.8008 34.9805 83.6836 35.1211 83.6836 35.1914L83.3672 35.0156C83.3203 34.9922 83.1797 35.0039 82.9453 35.0508C82.7344 35.0742 82.4766 35.1445 82.1719 35.2617C81.8906 35.3555 81.6094 35.4961 81.3281 35.6836C81.0469 35.8711 80.8242 36.1172 80.6602 36.4219L80.5195 36.3867C80.168 36.293 79.8047 36.2695 79.4297 36.3164C79.0781 36.3867 78.7266 36.4219 78.375 36.4219C77.625 36.4688 77.0742 36.3516 76.7227 36.0703C76.3711 35.8125 75.9961 35.3086 75.5977 34.5586C75.5039 34.3945 75.4219 34.2188 75.3516 34.0312C75.2812 33.8438 75.2227 33.6562 75.1758 33.4688V33.3281C75.5039 33.1406 75.6797 32.8945 75.7031 32.5898C75.7266 32.2617 75.7148 31.9219 75.668 31.5703C75.6211 31.2188 75.5859 30.8789 75.5625 30.5508C75.5625 30.2227 75.6914 29.9531 75.9492 29.7422C75.8086 29.3672 75.8203 29.0156 75.9844 28.6875C76.1719 28.3359 76.3477 28.0078 76.5117 27.7031C76.6758 27.3984 76.7578 27.1055 76.7578 26.8242C76.7578 26.543 76.5 26.25 75.9844 25.9453C75.4453 26.1562 74.9297 26.4258 74.4375 26.7539C73.9688 27.0586 73.4883 27.3867 72.9961 27.7383C72.5273 28.0664 72.0469 28.3945 71.5547 28.7227C71.0859 29.0508 70.582 29.3203 70.043 29.5312C69.5508 30.0703 69.0352 30.5391 68.4961 30.9375C67.957 31.3125 67.4297 31.7109 66.9141 32.1328C66.4219 32.5547 65.9648 33.0352 65.543 33.5742C65.1445 34.0898 64.8398 34.7344 64.6289 35.5078C64.5117 35.3672 64.3945 35.2734 64.2773 35.2266C64.1602 35.1797 64.0078 35.1328 63.8203 35.0859C63.5625 35.0156 63.375 34.9453 63.2578 34.875C63.1406 34.7812 62.9883 34.6523 62.8008 34.4883L62.8359 34.418C63.0469 33.8086 63.293 33.1875 63.5742 32.5547C63.8555 31.9219 63.9961 31.2891 63.9961 30.6562C63.9961 30.4219 63.9727 30.2109 63.9258 30.0234C63.8789 29.8125 63.8555 29.5898 63.8555 29.3555C63.8555 28.9336 63.9258 28.5469 64.0664 28.1953C64.207 27.8438 64.3594 27.5156 64.5234 27.2109C64.7109 26.9062 64.875 26.6133 65.0156 26.332C65.1797 26.0273 65.2617 25.7109 65.2617 25.3828C65.2617 25.125 65.2031 24.8672 65.0859 24.6094C64.9688 24.3516 64.8164 24.1289 64.6289 23.9414C64.2773 23.918 63.9492 23.9648 63.6445 24.082C63.3398 24.1758 63.0352 24.293 62.7305 24.4336C62.4258 24.5742 62.1094 24.7031 61.7812 24.8203C61.4531 24.9141 61.1016 24.9492 60.7266 24.9258C60.2344 25.418 59.7305 25.9102 59.2148 26.4023C58.6992 26.8711 58.1836 27.3398 57.668 27.8086C56.5898 28.7695 55.5352 29.7656 54.5039 30.7969C53.4961 31.8281 52.6875 33 52.0781 34.3125C51.9609 34.5703 51.8555 34.8398 51.7617 35.1211C51.6914 35.3789 51.5977 35.6367 51.4805 35.8945C51.4805 35.9414 51.457 35.9883 51.4102 36.0352H51.2344C50.9766 36.0352 50.8008 36.1055 50.707 36.2461C50.6367 36.3867 50.5781 36.5391 50.5312 36.7031C50.5078 36.8906 50.4727 37.0664 50.4258 37.2305C50.3789 37.3945 50.2734 37.5 50.1094 37.5469C49.9219 37.5938 49.7461 37.5586 49.582 37.4414C49.3945 37.3242 49.2422 37.207 49.125 37.0898L49.0898 37.0547C48.8555 36.6797 48.7266 36.293 48.7031 35.8945C48.6797 35.4961 48.7266 35.1094 48.8438 34.7344C48.9375 34.3359 49.0898 33.9492 49.3008 33.5742C49.4883 33.1992 49.6758 32.8477 49.8633 32.5195C50.1445 32.0273 50.4023 31.5234 50.6367 31.0078C50.8945 30.4688 51.0234 29.9062 51.0234 29.3203C51.0234 29.0625 50.9883 28.8398 50.918 28.6523C50.8711 28.4414 50.8242 28.2305 50.7773 28.0195L51.5508 27.4922C51.4336 27.3281 51.3633 27.1875 51.3398 27.0703C51.3398 26.9297 51.3398 26.8008 51.3398 26.6836C51.3633 26.5664 51.375 26.4609 51.375 26.3672C51.3984 26.25 51.3867 26.1328 51.3398 26.0156V25.9102L51.6211 25.5938C51.5742 24.8203 51.5508 24.0938 51.5508 23.4141C51.5508 22.7344 51.4102 22.0195 51.1289 21.2695C51.457 20.9648 51.7734 20.8945 52.0781 21.0586C52.3828 21.1992 52.6875 21.3633 52.9922 21.5508V21.5859L53.0273 21.6211C53.2148 21.9023 53.3789 22.2422 53.5195 22.6406C53.6602 23.0391 53.7656 23.4609 53.8359 23.9062C53.9297 24.3281 54 24.75 54.0469 25.1719C54.0938 25.5938 54.1172 25.9688 54.1172 26.2969C54.1172 26.3906 54.1055 26.4844 54.082 26.5781C54.082 26.6484 54.082 26.7305 54.082 26.8242L53.8711 27.0352C53.9883 27.1523 54.1172 27.2695 54.2578 27.3867C54.3984 27.5039 54.5508 27.5508 54.7148 27.5273C54.8555 27.1055 55.0781 26.8359 55.3828 26.7188C55.6875 26.5781 55.9922 26.4727 56.2969 26.4023C56.625 26.332 56.9062 26.2383 57.1406 26.1211C57.3984 25.9805 57.5273 25.6992 57.5273 25.2773C57.5273 25.1836 57.5156 25.1133 57.4922 25.0664L57.5625 24.9961C58.2188 24.3398 58.8867 23.7539 59.5664 23.2383C60.2695 22.6992 60.9961 22.3008 61.7461 22.043C62.5195 21.7852 63.3164 21.6797 64.1367 21.7266C64.9805 21.7734 65.8828 22.0312 66.8438 22.5L66.9141 22.5352L67.3008 23.9766L67.0547 24.2227C67.2891 24.5508 67.3711 24.9375 67.3008 25.3828C67.2539 25.8047 67.1602 26.2266 67.0195 26.6484C66.8789 27.0703 66.75 27.4688 66.6328 27.8438C66.5156 28.1953 66.5273 28.4531 66.668 28.6172C66.7852 28.7812 66.9961 28.8516 67.3008 28.8281C67.6289 28.8047 67.8867 28.7812 68.0742 28.7578C68.2617 28.5 68.5195 28.2773 68.8477 28.0898C69.1992 27.9023 69.5391 27.7266 69.8672 27.5625C70.2188 27.3984 70.5234 27.2344 70.7812 27.0703C71.0391 26.8828 71.1797 26.6836 71.2031 26.4727C71.5781 26.543 71.8828 26.5312 72.1172 26.4375C72.3516 26.3203 72.5391 26.1562 72.6797 25.9453C72.8203 25.7344 72.9492 25.5117 73.0664 25.2773C73.1836 25.0195 73.3125 24.7852 73.4531 24.5742C73.6172 24.3398 73.8164 24.1641 74.0508 24.0469C74.2852 23.9297 74.6016 23.8945 75 23.9414C75.5391 23.4023 76.1719 23.0156 76.8984 22.7812C77.6484 22.5234 78.3984 22.3828 79.1484 22.3594C79.6875 22.3359 80.0625 22.5 80.2734 22.8516C80.4844 23.1797 80.5898 23.5781 80.5898 24.0469C80.5898 24.6562 80.4492 25.2422 80.168 25.8047C79.8867 26.3672 79.5703 26.9414 79.2188 27.5273C78.8672 28.1133 78.5508 28.7227 78.2695 29.3555C77.9883 29.9883 77.8477 30.6914 77.8477 31.4648C77.8477 31.5352 77.8477 31.6641 77.8477 31.8516C77.8477 32.0156 77.8594 32.1914 77.8828 32.3789C77.9062 32.543 77.9297 32.707 77.9531 32.8711C78 33.0117 78.0586 33.1055 78.1289 33.1523C78.2227 33.1992 78.3047 33.2344 78.375 33.2578L78.1992 33.3984C78.7383 33.4688 79.2188 33.5742 79.6406 33.7148C80.0625 33.832 80.5195 33.7852 81.0117 33.5742C81.1523 33.5273 81.293 33.4922 81.4336 33.4688C81.5977 33.4453 81.75 33.4102 81.8906 33.3633C82.1016 33.3398 82.2305 33.2578 82.2773 33.1172C82.3242 32.9531 82.4062 32.8008 82.5234 32.6602C82.6641 32.4961 82.875 32.3555 83.1562 32.2383C83.4609 32.0977 83.9531 32.0273 84.6328 32.0273V31.4648C85.1016 31.3242 85.5 31.1484 85.8281 30.9375C86.1562 30.7031 86.4727 30.4922 86.7773 30.3047C87.1055 30.1172 87.457 29.9766 87.832 29.8828C88.2305 29.7891 88.7227 29.7891 89.3086 29.8828ZM113.566 25.2422C113.355 25.4531 113.191 25.6172 113.074 25.7344C112.98 25.8516 112.887 25.9688 112.793 26.0859C112.723 26.1797 112.629 26.2852 112.512 26.4023C112.418 26.5195 112.266 26.6953 112.055 26.9297C111.867 27.1172 111.691 27.3164 111.527 27.5273C111.363 27.7383 111.176 27.9258 110.965 28.0898C110.684 28.0195 110.461 28.0547 110.297 28.1953C110.156 28.3359 110.016 28.5 109.875 28.6875C109.758 28.8516 109.641 29.0156 109.523 29.1797C109.43 29.3203 109.301 29.3789 109.137 29.3555C108.574 29.6602 108.012 29.9297 107.449 30.1641C106.887 30.375 106.348 30.6914 105.832 31.1133L105.551 30.832L101.895 32.5898C101.777 32.6367 101.66 32.707 101.543 32.8008C101.426 32.8945 101.309 32.9766 101.191 33.0469C100.676 33.3281 100.137 33.5859 99.5742 33.8203C99.0352 34.0312 98.4961 34.2305 97.957 34.418L97.5 34.5586C97.6875 35.0273 97.6875 35.3555 97.5 35.543C97.3125 35.7305 97.043 35.8711 96.6914 35.9648C96.3398 36.0352 95.9531 36.082 95.5312 36.1055C95.1094 36.1289 94.7812 36.2109 94.5469 36.3516C94.2656 36.3047 93.9727 36.2812 93.668 36.2812C93.3867 36.3047 93.0938 36.3398 92.7891 36.3867C92.4609 36.4336 92.1562 36.457 91.875 36.457C91.5938 36.457 91.2891 36.4219 90.9609 36.3516H90.8906C90.4922 36.5391 90.1406 36.5742 89.8359 36.457C89.5547 36.3633 89.2969 36.1992 89.0625 35.9648C88.8281 35.707 88.6055 35.4141 88.3945 35.0859C88.207 34.7344 88.0078 34.418 87.7969 34.1367C87.6562 33.9492 87.4805 33.6797 87.2695 33.3281C87.0586 32.9766 86.8828 32.6016 86.7422 32.2031C86.5781 31.8047 86.4844 31.4062 86.4609 31.0078C86.4141 30.5859 86.4961 30.2227 86.707 29.918C86.918 29.6133 87.0938 29.2852 87.2344 28.9336C87.3516 28.582 87.4102 28.1719 87.4102 27.7031C87.4102 27.5391 87.4102 27.3867 87.4102 27.2461C87.3867 27.1055 87.375 26.9531 87.375 26.7891C87.4922 26.7891 87.6211 26.8008 87.7617 26.8242C87.9023 26.8242 88.0312 26.8242 88.1484 26.8242C88.2891 26.8008 88.3945 26.7539 88.4648 26.6836C88.5586 26.5898 88.6055 26.4375 88.6055 26.2266C88.6055 26.1094 88.5586 26.0156 88.4648 25.9453C88.3945 25.875 88.3477 25.8047 88.3242 25.7344C88.4648 25.5234 88.5938 25.3594 88.7109 25.2422C88.8516 25.1016 88.9688 24.9727 89.0625 24.8555C89.1562 24.7148 89.2266 24.5625 89.2734 24.3984C89.3203 24.2109 89.3086 23.9648 89.2383 23.6602C89.5195 23.168 89.8477 22.7344 90.2227 22.3594C90.6211 21.9609 91.0312 21.5977 91.4531 21.2695C91.875 20.918 92.3086 20.5781 92.7539 20.25C93.1992 19.9219 93.6211 19.5703 94.0195 19.1953C94.4648 19.3828 94.8164 19.3828 95.0742 19.1953C95.3555 19.0078 95.6016 18.8086 95.8125 18.5977C96.0234 18.3633 96.2344 18.1758 96.4453 18.0352C96.6562 17.8945 96.9375 17.9531 97.2891 18.2109L97.3594 18.2812C97.9922 17.6484 98.625 17.3672 99.2578 17.4375C99.9141 17.5078 100.465 17.7188 100.91 18.0703C101.379 18.4219 101.684 18.832 101.824 19.3008C101.965 19.7461 101.836 20.0508 101.438 20.2148C101.695 20.4727 101.824 20.7773 101.824 21.1289C101.824 21.4805 101.73 21.7852 101.543 22.043C101.332 22.3242 101.145 22.6172 100.98 22.9219C100.84 23.2031 100.688 23.5078 100.523 23.8359C100.289 24.375 100.031 24.8906 99.75 25.3828C99.4688 25.8516 99.0703 26.25 98.5547 26.5781C98.1328 26.4609 97.8398 26.5078 97.6758 26.7188C97.5352 26.9297 97.4297 27.1641 97.3594 27.4219C97.2891 27.6562 97.207 27.8438 97.1133 27.9844C97.0195 28.125 96.8203 28.0781 96.5156 27.8438L96.4453 27.7734L96.375 27.8438C96.1875 28.0312 96.0352 28.2422 95.918 28.4766C95.8242 28.7109 95.6836 28.8867 95.4961 29.0039C95.2852 28.9336 95.0625 28.875 94.8281 28.8281C94.5938 28.7812 94.3711 28.7344 94.1602 28.6875C94.1602 29.1797 94.0664 29.5664 93.8789 29.8477C93.6914 30.1289 93.4453 30.3633 93.1406 30.5508C92.8594 30.7148 92.5312 30.8555 92.1562 30.9727C91.7812 31.0664 91.4062 31.1953 91.0312 31.3594C90.6797 31.5 90.3398 31.6875 90.0117 31.9219C89.707 32.1328 89.4609 32.4375 89.2734 32.8359C89.5078 33.0938 89.8008 33.2461 90.1523 33.293C90.5039 33.3164 90.8672 33.3164 91.2422 33.293C91.6172 33.2461 91.9805 33.2227 92.332 33.2227C92.707 33.2227 93.0352 33.3164 93.3164 33.5039L93.3516 33.5391L93.3867 33.5039C93.9492 33.4336 94.4883 33.3047 95.0039 33.1172C95.543 32.9062 96.0586 32.6953 96.5508 32.4844C97.0664 32.25 97.582 32.0391 98.0977 31.8516C98.6367 31.6406 99.1875 31.4883 99.75 31.3945C99.8672 31.582 100.02 31.6875 100.207 31.7109C100.418 31.7344 100.617 31.7227 100.805 31.6758L100.84 31.6055C100.887 31.4414 100.934 31.3008 100.98 31.1836C101.027 31.043 101.098 30.8906 101.191 30.7266C101.355 30.4688 101.555 30.2695 101.789 30.1289C102.023 29.9883 102.27 29.8828 102.527 29.8125C102.809 29.7422 103.102 29.6953 103.406 29.6719C103.711 29.6484 104.016 29.6133 104.32 29.5664H104.391L104.426 29.4609C104.52 29.1797 104.637 28.9922 104.777 28.8984C104.941 28.7812 105.105 28.6992 105.27 28.6523C105.457 28.6055 105.645 28.5703 105.832 28.5469C106.043 28.5234 106.242 28.4531 106.43 28.3359C106.852 28.4766 107.203 28.4297 107.484 28.1953C107.766 27.9609 108.035 27.7148 108.293 27.457L108.574 27.8086L108.68 27.668C109.031 27.3398 109.289 27.0938 109.453 26.9297C109.641 26.7656 109.816 26.625 109.98 26.5078C110.145 26.3672 110.332 26.2383 110.543 26.1211C110.777 25.9805 111.094 25.7812 111.492 25.5234C111.82 25.3125 112.137 25.1016 112.441 24.8906C112.77 24.6797 113.086 24.4453 113.391 24.1875C113.508 24.2344 113.566 24.3281 113.566 24.4688C113.566 24.5859 113.566 24.7031 113.566 24.8203C113.543 24.8672 113.52 24.9375 113.496 25.0312C113.496 25.125 113.52 25.1953 113.566 25.2422ZM99.0117 20.8477C98.9883 20.8242 98.9648 20.8125 98.9414 20.8125C98.9414 20.8125 98.9297 20.8008 98.9062 20.7773C98.4141 20.5195 98.0039 20.4023 97.6758 20.4258C97.3477 20.4258 97.043 20.5195 96.7617 20.707C96.5039 20.8711 96.2578 21.0938 96.0234 21.375C95.8125 21.6328 95.5781 21.8789 95.3203 22.1133C95.0859 22.3242 94.8047 22.4883 94.4766 22.6055C94.1484 22.7227 93.75 22.7109 93.2812 22.5703C93.2109 22.9453 93.1406 23.3203 93.0703 23.6953C93.0234 24.0469 92.9883 24.4102 92.9648 24.7852C92.5664 24.9258 92.25 25.125 92.0156 25.3828C91.8047 25.6406 91.6172 25.9219 91.4531 26.2266C91.3125 26.5312 91.1719 26.8594 91.0312 27.2109C90.9141 27.5391 90.75 27.8555 90.5391 28.1602L90.6797 28.3359C90.7734 28.2891 90.8789 28.3242 90.9961 28.4414C91.1133 28.5586 91.1953 28.6406 91.2422 28.6875C91.5 28.3125 91.8398 27.9961 92.2617 27.7383C92.707 27.4805 93.1523 27.2461 93.5977 27.0352C94.0664 26.8008 94.5117 26.5547 94.9336 26.2969C95.3555 26.0391 95.6719 25.6992 95.8828 25.2773C96.6328 25.0664 97.1953 24.6445 97.5703 24.0117C97.9453 23.3789 98.2617 22.7227 98.5195 22.043C98.5664 21.9023 98.6484 21.7031 98.7656 21.4453C98.9062 21.1641 98.9883 20.9648 99.0117 20.8477ZM147.703 29.8828C147.492 30.0703 147.199 30.3164 146.824 30.6211C146.473 30.9023 146.238 31.1602 146.121 31.3945C145.98 31.6289 145.863 31.8398 145.77 32.0273C145.699 32.2148 145.605 32.3789 145.488 32.5195C145.395 32.6367 145.254 32.7305 145.066 32.8008C144.902 32.8711 144.668 32.9062 144.363 32.9062C144.363 32.9766 144.234 33.1289 143.977 33.3633C143.742 33.5742 143.484 33.8086 143.203 34.0664C142.922 34.3008 142.664 34.5352 142.43 34.7695C142.195 34.9805 142.078 35.1211 142.078 35.1914L141.762 35.0156C141.715 34.9922 141.574 35.0039 141.34 35.0508C141.129 35.0742 140.871 35.1445 140.566 35.2617C140.285 35.3555 140.004 35.4961 139.723 35.6836C139.441 35.8711 139.219 36.1172 139.055 36.4219L138.914 36.3867C138.562 36.293 138.199 36.2695 137.824 36.3164C137.473 36.3867 137.121 36.4219 136.77 36.4219C136.02 36.4688 135.469 36.3516 135.117 36.0703C134.766 35.8125 134.391 35.3086 133.992 34.5586C133.898 34.3945 133.816 34.2188 133.746 34.0312C133.676 33.8438 133.617 33.6562 133.57 33.4688V33.3281C133.898 33.1406 134.074 32.8945 134.098 32.5898C134.121 32.2617 134.109 31.9219 134.062 31.5703C134.016 31.2188 133.98 30.8789 133.957 30.5508C133.957 30.2227 134.086 29.9531 134.344 29.7422C134.203 29.3672 134.215 29.0156 134.379 28.6875C134.566 28.3359 134.742 28.0078 134.906 27.7031C135.07 27.3984 135.152 27.1055 135.152 26.8242C135.152 26.543 134.895 26.25 134.379 25.9453C133.84 26.1562 133.324 26.4258 132.832 26.7539C132.363 27.0586 131.883 27.3867 131.391 27.7383C130.922 28.0664 130.441 28.3945 129.949 28.7227C129.48 29.0508 128.977 29.3203 128.438 29.5312C127.945 30.0703 127.43 30.5391 126.891 30.9375C126.352 31.3125 125.824 31.7109 125.309 32.1328C124.816 32.5547 124.359 33.0352 123.938 33.5742C123.539 34.0898 123.234 34.7344 123.023 35.5078C122.906 35.3672 122.789 35.2734 122.672 35.2266C122.555 35.1797 122.402 35.1328 122.215 35.0859C121.957 35.0156 121.77 34.9453 121.652 34.875C121.535 34.7812 121.383 34.6523 121.195 34.4883L121.23 34.418C121.441 33.8086 121.688 33.1875 121.969 32.5547C122.25 31.9219 122.391 31.2891 122.391 30.6562C122.391 30.4219 122.367 30.2109 122.32 30.0234C122.273 29.8125 122.25 29.5898 122.25 29.3555C122.25 28.9336 122.32 28.5469 122.461 28.1953C122.602 27.8438 122.754 27.5156 122.918 27.2109C123.105 26.9062 123.27 26.6133 123.41 26.332C123.574 26.0273 123.656 25.7109 123.656 25.3828C123.656 25.125 123.598 24.8672 123.48 24.6094C123.363 24.3516 123.211 24.1289 123.023 23.9414C122.672 23.918 122.344 23.9648 122.039 24.082C121.734 24.1758 121.43 24.293 121.125 24.4336C120.82 24.5742 120.504 24.7031 120.176 24.8203C119.848 24.9141 119.496 24.9492 119.121 24.9258C118.629 25.418 118.125 25.9102 117.609 26.4023C117.094 26.8711 116.578 27.3398 116.062 27.8086C114.984 28.7695 113.93 29.7656 112.898 30.7969C111.891 31.8281 111.082 33 110.473 34.3125C110.355 34.5703 110.25 34.8398 110.156 35.1211C110.086 35.3789 109.992 35.6367 109.875 35.8945C109.875 35.9414 109.852 35.9883 109.805 36.0352H109.629C109.371 36.0352 109.195 36.1055 109.102 36.2461C109.031 36.3867 108.973 36.5391 108.926 36.7031C108.902 36.8906 108.867 37.0664 108.82 37.2305C108.773 37.3945 108.668 37.5 108.504 37.5469C108.316 37.5938 108.141 37.5586 107.977 37.4414C107.789 37.3242 107.637 37.207 107.52 37.0898L107.484 37.0547C107.25 36.6797 107.121 36.293 107.098 35.8945C107.074 35.4961 107.121 35.1094 107.238 34.7344C107.332 34.3359 107.484 33.9492 107.695 33.5742C107.883 33.1992 108.07 32.8477 108.258 32.5195C108.539 32.0273 108.797 31.5234 109.031 31.0078C109.289 30.4688 109.418 29.9062 109.418 29.3203C109.418 29.0625 109.383 28.8398 109.312 28.6523C109.266 28.4414 109.219 28.2305 109.172 28.0195L109.945 27.4922C109.828 27.3281 109.758 27.1875 109.734 27.0703C109.734 26.9297 109.734 26.8008 109.734 26.6836C109.758 26.5664 109.77 26.4609 109.77 26.3672C109.793 26.25 109.781 26.1328 109.734 26.0156V25.9102L110.016 25.5938C109.969 24.8203 109.945 24.0938 109.945 23.4141C109.945 22.7344 109.805 22.0195 109.523 21.2695C109.852 20.9648 110.168 20.8945 110.473 21.0586C110.777 21.1992 111.082 21.3633 111.387 21.5508V21.5859L111.422 21.6211C111.609 21.9023 111.773 22.2422 111.914 22.6406C112.055 23.0391 112.16 23.4609 112.23 23.9062C112.324 24.3281 112.395 24.75 112.441 25.1719C112.488 25.5938 112.512 25.9688 112.512 26.2969C112.512 26.3906 112.5 26.4844 112.477 26.5781C112.477 26.6484 112.477 26.7305 112.477 26.8242L112.266 27.0352C112.383 27.1523 112.512 27.2695 112.652 27.3867C112.793 27.5039 112.945 27.5508 113.109 27.5273C113.25 27.1055 113.473 26.8359 113.777 26.7188C114.082 26.5781 114.387 26.4727 114.691 26.4023C115.02 26.332 115.301 26.2383 115.535 26.1211C115.793 25.9805 115.922 25.6992 115.922 25.2773C115.922 25.1836 115.91 25.1133 115.887 25.0664L115.957 24.9961C116.613 24.3398 117.281 23.7539 117.961 23.2383C118.664 22.6992 119.391 22.3008 120.141 22.043C120.914 21.7852 121.711 21.6797 122.531 21.7266C123.375 21.7734 124.277 22.0312 125.238 22.5L125.309 22.5352L125.695 23.9766L125.449 24.2227C125.684 24.5508 125.766 24.9375 125.695 25.3828C125.648 25.8047 125.555 26.2266 125.414 26.6484C125.273 27.0703 125.145 27.4688 125.027 27.8438C124.91 28.1953 124.922 28.4531 125.062 28.6172C125.18 28.7812 125.391 28.8516 125.695 28.8281C126.023 28.8047 126.281 28.7812 126.469 28.7578C126.656 28.5 126.914 28.2773 127.242 28.0898C127.594 27.9023 127.934 27.7266 128.262 27.5625C128.613 27.3984 128.918 27.2344 129.176 27.0703C129.434 26.8828 129.574 26.6836 129.598 26.4727C129.973 26.543 130.277 26.5312 130.512 26.4375C130.746 26.3203 130.934 26.1562 131.074 25.9453C131.215 25.7344 131.344 25.5117 131.461 25.2773C131.578 25.0195 131.707 24.7852 131.848 24.5742C132.012 24.3398 132.211 24.1641 132.445 24.0469C132.68 23.9297 132.996 23.8945 133.395 23.9414C133.934 23.4023 134.566 23.0156 135.293 22.7812C136.043 22.5234 136.793 22.3828 137.543 22.3594C138.082 22.3359 138.457 22.5 138.668 22.8516C138.879 23.1797 138.984 23.5781 138.984 24.0469C138.984 24.6562 138.844 25.2422 138.562 25.8047C138.281 26.3672 137.965 26.9414 137.613 27.5273C137.262 28.1133 136.945 28.7227 136.664 29.3555C136.383 29.9883 136.242 30.6914 136.242 31.4648C136.242 31.5352 136.242 31.6641 136.242 31.8516C136.242 32.0156 136.254 32.1914 136.277 32.3789C136.301 32.543 136.324 32.707 136.348 32.8711C136.395 33.0117 136.453 33.1055 136.523 33.1523C136.617 33.1992 136.699 33.2344 136.77 33.2578L136.594 33.3984C137.133 33.4688 137.613 33.5742 138.035 33.7148C138.457 33.832 138.914 33.7852 139.406 33.5742C139.547 33.5273 139.688 33.4922 139.828 33.4688C139.992 33.4453 140.145 33.4102 140.285 33.3633C140.496 33.3398 140.625 33.2578 140.672 33.1172C140.719 32.9531 140.801 32.8008 140.918 32.6602C141.059 32.4961 141.27 32.3555 141.551 32.2383C141.855 32.0977 142.348 32.0273 143.027 32.0273V31.4648C143.496 31.3242 143.895 31.1484 144.223 30.9375C144.551 30.7031 144.867 30.4922 145.172 30.3047C145.5 30.1172 145.852 29.9766 146.227 29.8828C146.625 29.7891 147.117 29.7891 147.703 29.8828ZM170.309 32.3086C169.98 32.8711 169.723 33.3281 169.535 33.6797C169.371 34.0078 169.195 34.2891 169.008 34.5234C168.844 34.7344 168.645 34.9336 168.41 35.1211C168.199 35.2852 167.895 35.4961 167.496 35.7539C167.238 35.9883 166.98 36.1875 166.723 36.3516C166.512 36.5156 166.301 36.6562 166.09 36.7734C165.902 36.8906 165.75 36.9492 165.633 36.9492C165.586 36.9492 165.539 36.9375 165.492 36.9141C165.445 36.9141 165.398 36.9141 165.352 36.9141C165.211 36.9141 165.07 36.9141 164.93 36.9141C164.812 36.9375 164.707 36.8555 164.613 36.668C164.543 36.7383 164.484 36.8203 164.438 36.9141C164.391 37.0078 164.344 37.0898 164.297 37.1602C164.25 37.2539 164.18 37.3242 164.086 37.3711C164.016 37.418 163.91 37.418 163.77 37.3711L163.594 37.1602L163.066 37.6172C162.41 37.2891 161.777 37.0078 161.168 36.7734C160.582 36.5625 160.055 36.3047 159.586 36C159.117 35.6953 158.719 35.3086 158.391 34.8398C158.062 34.3477 157.828 33.6797 157.688 32.8359C157.57 32.6953 157.441 32.5781 157.301 32.4844C157.16 32.3672 156.996 32.332 156.809 32.3789C156.574 32.7773 156.293 33.1172 155.965 33.3984C155.637 33.6797 155.309 33.9844 154.98 34.3125C154.863 34.4297 154.77 34.5586 154.699 34.6992C154.629 34.8398 154.535 34.9688 154.418 35.0859C154.23 35.2969 154.008 35.4492 153.75 35.543C153.492 35.6133 153.234 35.6836 152.977 35.7539C152.719 35.8242 152.473 35.9414 152.238 36.1055C152.027 36.2695 151.875 36.5508 151.781 36.9492C151.5 36.7852 151.219 36.7383 150.938 36.8086C150.727 36.8555 150.504 36.9023 150.27 36.9492C150.035 37.0195 149.801 37.0547 149.566 37.0547C149.355 37.0781 149.145 37.0547 148.934 36.9844C148.723 36.9141 148.535 36.7617 148.371 36.5273C148.043 36.668 147.738 36.6562 147.457 36.4922C147.176 36.3516 146.906 36.1523 146.648 35.8945C146.414 35.6133 146.18 35.3203 145.945 35.0156C145.711 34.7109 145.488 34.4883 145.277 34.3477C145.137 33.9727 145.148 33.6562 145.312 33.3984C145.453 33.1172 145.617 32.8594 145.805 32.625C145.969 32.3672 146.086 32.1211 146.156 31.8867C146.227 31.6289 146.121 31.3242 145.84 30.9727C146.074 30.6211 146.285 30.2578 146.473 29.8828C146.66 29.4844 146.848 29.0977 147.035 28.7227C147.246 28.3242 147.457 27.9492 147.668 27.5977C147.902 27.2227 148.184 26.9062 148.512 26.6484C148.371 26.4844 148.301 26.332 148.301 26.1914C148.301 26.0273 148.336 25.875 148.406 25.7344C148.477 25.5703 148.559 25.418 148.652 25.2773C148.746 25.1133 148.816 24.9609 148.863 24.8203L149.883 24.3281L149.637 23.4844C149.895 23.5312 150.082 23.5195 150.199 23.4492C150.34 23.3789 150.434 23.2734 150.48 23.1328C150.551 22.9922 150.598 22.8398 150.621 22.6758C150.668 22.4883 150.727 22.3242 150.797 22.1836C150.914 21.9727 151.09 21.8203 151.324 21.7266C151.816 21.3516 152.297 20.9531 152.766 20.5312C153.258 20.1094 153.738 19.6992 154.207 19.3008C154.699 18.9023 155.203 18.5273 155.719 18.1758C156.234 17.8008 156.797 17.4844 157.406 17.2266C157.828 17.2969 158.156 17.4258 158.391 17.6133C158.648 17.8008 158.836 18.0234 158.953 18.2812C159.094 18.5391 159.199 18.832 159.27 19.1602C159.34 19.4648 159.41 19.7695 159.48 20.0742C159.598 20.4727 159.738 20.8125 159.902 21.0938C160.066 21.375 160.348 21.6094 160.746 21.7969C160.418 22.3594 160.289 22.9219 160.359 23.4844C160.43 24.0234 160.5 24.5977 160.57 25.207C160.641 25.7695 160.629 26.3203 160.535 26.8594C160.465 27.3984 160.125 27.8789 159.516 28.3008C159.469 28.4648 159.457 28.6406 159.48 28.8281C159.504 29.0156 159.516 29.2031 159.516 29.3906C159.516 29.5781 159.48 29.7539 159.41 29.918C159.34 30.082 159.211 30.2109 159.023 30.3047C159.234 30.5625 159.34 30.8203 159.34 31.0781C159.363 31.3359 159.375 31.582 159.375 31.8164C159.398 32.0508 159.457 32.2617 159.551 32.4492C159.668 32.6367 159.926 32.7773 160.324 32.8711C160.395 33.1758 160.453 33.4102 160.5 33.5742C160.57 33.7148 160.641 33.832 160.711 33.9258C160.805 34.0195 160.922 34.1133 161.062 34.207C161.203 34.2773 161.391 34.3945 161.625 34.5586C161.812 34.6055 162.023 34.6055 162.258 34.5586C162.492 34.5117 162.68 34.582 162.82 34.7695C162.938 34.6523 163.078 34.5938 163.242 34.5938C163.406 34.5703 163.559 34.5703 163.699 34.5938L164.156 35.3672C164.414 35.1797 164.707 35.0156 165.035 34.875C165.363 34.7344 165.68 34.6172 165.984 34.5234C166.336 34.4297 166.688 34.3477 167.039 34.2773L170.309 32.3086ZM156.809 20.2852C156.598 20.4727 156.34 20.6602 156.035 20.8477C155.73 21.0352 155.426 21.2344 155.121 21.4453C154.84 21.6562 154.594 21.8906 154.383 22.1484C154.172 22.3828 154.043 22.6641 153.996 22.9922C153.457 23.0859 153.082 23.3086 152.871 23.6602C152.66 24.0117 152.484 24.3984 152.344 24.8203C152.203 25.2422 152.051 25.6641 151.887 26.0859C151.723 26.4844 151.43 26.8008 151.008 27.0352C150.867 27.1289 150.738 27.1758 150.621 27.1758C150.645 27.1758 150.574 27.2227 150.41 27.3164C150.152 27.5039 149.93 27.7383 149.742 28.0195C149.555 28.3008 149.391 28.6055 149.25 28.9336C149.133 29.2617 149.016 29.6016 148.898 29.9531C148.805 30.2812 148.711 30.5859 148.617 30.8672C148.289 30.9141 148.043 30.9844 147.879 31.0781C147.715 31.1719 147.609 31.2773 147.562 31.3945C147.539 31.4883 147.551 31.6055 147.598 31.7461C147.645 31.8867 147.715 32.0391 147.809 32.2031C147.902 32.3438 147.996 32.5078 148.09 32.6953C148.207 32.8828 148.301 33.0703 148.371 33.2578C148.441 33.4453 148.477 33.6328 148.477 33.8203C148.5 34.0078 148.453 34.1836 148.336 34.3477C148.664 34.6055 148.98 34.6641 149.285 34.5234C149.59 34.3594 149.871 34.1836 150.129 33.9961C150.223 33.9258 150.316 33.8555 150.41 33.7852C150.527 33.6914 150.645 33.6211 150.762 33.5742C151.301 33.6914 151.793 33.6562 152.238 33.4688C152.684 33.2812 153.094 33.0234 153.469 32.6953C153.844 32.3672 154.207 32.0156 154.559 31.6406C154.91 31.2656 155.262 30.9375 155.613 30.6562L155.332 30.375C155.754 30.2578 156.047 30.1055 156.211 29.918C156.398 29.707 156.516 29.4727 156.562 29.2148C156.609 28.957 156.609 28.6875 156.562 28.4062C156.516 28.1016 156.48 27.7852 156.457 27.457C156.434 27.2695 156.422 27.0938 156.422 26.9297C156.445 26.7422 156.492 26.5547 156.562 26.3672C156.375 25.8281 156.34 25.3125 156.457 24.8203C156.598 24.3281 156.773 23.8594 156.984 23.4141C157.219 22.9453 157.441 22.4766 157.652 22.0078C157.863 21.5391 157.969 21.0469 157.969 20.5312L156.809 20.2852ZM196.395 28.3359C195.879 29.5078 195.41 30.4219 194.988 31.0781C194.566 31.7109 194.098 32.2383 193.582 32.6602C193.09 33.082 192.516 33.4805 191.859 33.8555C191.203 34.207 190.395 34.7109 189.434 35.3672C189.035 35.3906 188.602 35.4844 188.133 35.6484C187.664 35.7891 187.266 35.9883 186.938 36.2461C186.234 36.1758 185.59 36.0234 185.004 35.7891C184.418 35.5547 183.867 35.1797 183.352 34.6641C183.234 34.5469 183.129 34.418 183.035 34.2773C182.941 34.1367 182.836 34.0078 182.719 33.8906C182.461 33.5859 182.297 33.3164 182.227 33.082C182.156 32.8477 182.098 32.543 182.051 32.168C181.957 31.6289 181.816 31.2422 181.629 31.0078C181.441 30.7734 181.078 30.8906 180.539 31.3594L180.223 31.0781L180.152 31.1484C179.941 31.3125 179.766 31.4531 179.625 31.5703C179.508 31.6875 179.379 31.8164 179.238 31.957C179.121 32.0742 179.004 32.2031 178.887 32.3438C178.77 32.4844 178.629 32.6602 178.465 32.8711C178.184 33.2227 177.867 33.5859 177.516 33.9609C177.188 34.3359 176.801 34.5938 176.355 34.7344C176.285 34.8047 176.227 34.875 176.18 34.9453C176.133 34.9922 176.051 35.0273 175.934 35.0508C175.793 35.0977 175.629 35.0859 175.441 35.0156C175.254 34.9453 175.102 34.8516 174.984 34.7344C174.727 34.7344 174.492 34.8047 174.281 34.9453C174.094 35.0625 173.906 35.2266 173.719 35.4375C173.555 35.625 173.391 35.8242 173.227 36.0352C173.086 36.2461 172.922 36.4219 172.734 36.5625C172.359 36.4219 172.008 36.3984 171.68 36.4922C171.375 36.5859 171.07 36.668 170.766 36.7383C170.461 36.832 170.156 36.8672 169.852 36.8438C169.547 36.8438 169.242 36.668 168.938 36.3164C168.797 35.6133 168.68 34.9688 168.586 34.3828C168.492 33.8906 168.41 33.4219 168.34 32.9766C168.27 32.5312 168.234 32.2617 168.234 32.168C168.352 32.0508 168.41 31.8984 168.41 31.7109C168.387 31.5 168.352 31.3242 168.305 31.1836C168.258 31.1602 168.234 31.1367 168.234 31.1133C168.234 31.0898 168.211 31.0664 168.164 31.043C168.281 30.9492 168.375 30.832 168.445 30.6914C168.492 30.5508 168.574 30.4336 168.691 30.3398C168.621 30.1523 168.539 29.9414 168.445 29.707C168.352 29.4727 168.305 29.2383 168.305 29.0039C168.375 28.8164 168.445 28.7109 168.516 28.6875C168.562 28.6641 168.691 28.6289 168.902 28.582C168.879 28.4648 168.855 28.3594 168.832 28.2656C168.785 28.1484 168.773 28.0312 168.797 27.9141C168.797 27.6797 168.855 27.4805 168.973 27.3164C169.066 27.1289 169.172 26.9531 169.289 26.7891C169.406 26.6016 169.512 26.4023 169.605 26.1914C169.699 25.9805 169.746 25.7344 169.746 25.4531V25.2773C170.098 25.2773 170.332 25.1836 170.449 24.9961C170.566 24.7852 170.637 24.5508 170.66 24.293C170.684 24.0352 170.695 23.7773 170.695 23.5195C170.695 23.2617 170.766 23.0742 170.906 22.957C171 22.8633 171.082 22.8281 171.152 22.8516C171.246 22.8516 171.352 22.8516 171.469 22.8516C171.609 22.6875 171.703 22.5703 171.75 22.5C171.797 22.4062 171.785 22.2422 171.715 22.0078C171.879 22.0078 172.008 21.9727 172.102 21.9023C172.195 21.832 172.266 21.7383 172.312 21.6211C172.383 21.5039 172.441 21.3867 172.488 21.2695C172.559 21.1523 172.641 21.0469 172.734 20.9531C172.734 20.3672 172.887 19.957 173.191 19.7227C173.496 19.4883 173.836 19.3008 174.211 19.1602C174.609 18.9961 174.996 18.8086 175.371 18.5977C175.77 18.3867 176.062 18.0117 176.25 17.4727C176.555 17.6602 176.812 17.6836 177.023 17.543C177.234 17.3789 177.434 17.2148 177.621 17.0508C177.809 16.8633 178.02 16.7461 178.254 16.6992C178.488 16.6289 178.781 16.7812 179.133 17.1562C179.273 16.7109 179.555 16.4766 179.977 16.4531C180.422 16.4297 180.82 16.5234 181.172 16.7344V16.7695H181.207C181.582 16.8398 181.863 17.0273 182.051 17.332C182.238 17.6133 182.391 17.9414 182.508 18.3164C182.648 18.668 182.789 19.0195 182.93 19.3711C183.094 19.7227 183.316 20.0039 183.598 20.2148C183.738 19.6055 183.867 18.9844 183.984 18.3516C184.125 17.7188 184.348 17.1211 184.652 16.5586C184.863 16.8164 185.086 16.8633 185.32 16.6992L185.285 16.6289C185.285 16.2539 185.355 15.9141 185.496 15.6094C185.66 15.3047 185.812 15.0117 185.953 14.7305C186.117 14.4258 186.211 14.1211 186.234 13.8164C186.281 13.4883 186.176 13.125 185.918 12.7266C186.316 12.6094 186.598 12.3867 186.762 12.0586C186.949 11.7305 187.09 11.3789 187.184 11.0039C187.301 10.6055 187.418 10.207 187.535 9.80859C187.676 9.41016 187.887 9.07031 188.168 8.78906C188.168 8.71875 188.156 8.64844 188.133 8.57812C188.133 8.50781 188.133 8.4375 188.133 8.36719C188.156 8.17969 188.227 8.01562 188.344 7.875C188.461 7.73438 188.59 7.59375 188.73 7.45312C188.871 7.3125 188.988 7.16016 189.082 6.99609C189.199 6.80859 189.246 6.58594 189.223 6.32812C189.457 6.02344 189.668 5.625 189.855 5.13281C190.043 4.61719 190.242 4.13672 190.453 3.69141C190.664 3.24609 190.91 2.91797 191.191 2.70703C191.473 2.47266 191.836 2.48437 192.281 2.74219C192.375 3.02344 192.41 3.28125 192.387 3.51562C192.363 3.72656 192.234 3.94922 192 4.18359C192.141 4.32422 192.246 4.44141 192.316 4.53516C192.246 5.26172 192.105 5.98828 191.895 6.71484C191.707 7.41797 191.52 8.10938 191.332 8.78906C191.379 8.83594 191.426 8.88281 191.473 8.92969C191.52 8.97656 191.566 9.02344 191.613 9.07031C191.215 9.63281 190.887 10.1953 190.629 10.7578C190.395 11.3203 190.184 11.9297 189.996 12.5859C189.926 12.8438 189.855 13.1133 189.785 13.3945C189.738 13.6758 189.668 13.9336 189.574 14.168C189.457 14.4023 189.316 14.6602 189.152 14.9414C188.988 15.1992 188.848 15.457 188.73 15.7148C188.473 16.2539 188.238 16.8047 188.027 17.3672C187.84 17.9062 187.652 18.457 187.465 19.0195C187.23 19.6992 186.984 20.3672 186.727 21.0234C186.492 21.6797 186.199 22.3242 185.848 22.957V23.5195C185.824 23.7773 185.742 23.9648 185.602 24.082C185.461 24.1758 185.297 24.2695 185.109 24.3633C184.945 24.4336 184.781 24.5508 184.617 24.7148C184.453 24.8555 184.336 25.1016 184.266 25.4531V25.4883L184.301 25.5234C184.535 26.0391 184.582 26.5195 184.441 26.9648C184.324 27.3867 184.184 27.8086 184.02 28.2305C183.855 28.6289 183.738 29.0273 183.668 29.4258C183.621 29.8242 183.785 30.2344 184.16 30.6562C184.137 31.125 184.23 31.5 184.441 31.7812C184.652 32.0391 184.898 32.2617 185.18 32.4492C185.461 32.6367 185.742 32.8125 186.023 32.9766C186.328 33.1172 186.551 33.3047 186.691 33.5391C186.926 33.3047 187.172 33.1289 187.43 33.0117C187.711 32.8711 187.98 32.7656 188.238 32.6953C188.52 32.625 188.789 32.5664 189.047 32.5195C189.328 32.4492 189.598 32.3672 189.855 32.2734C190.465 32.1094 190.887 31.9102 191.121 31.6758C191.355 31.4414 191.473 31.2891 191.473 31.2188C191.496 30.8906 191.613 30.6797 191.824 30.5859C192.059 30.4922 192.316 30.4336 192.598 30.4102C192.902 30.3633 193.195 30.3047 193.477 30.2344C193.781 30.1641 194.004 29.9883 194.145 29.707C194.402 29.7305 194.625 29.6484 194.812 29.4609C195.023 29.25 195.211 29.0391 195.375 28.8281C195.539 28.6172 195.703 28.4414 195.867 28.3008C196.031 28.1602 196.207 28.1719 196.395 28.3359ZM181.945 22.9219C181.57 22.6406 181.312 22.3242 181.172 21.9727C181.055 21.5977 180.949 21.2227 180.855 20.8477C180.785 20.4727 180.68 20.1211 180.539 19.793C180.422 19.4414 180.176 19.1484 179.801 18.9141L179.73 18.8789C179.707 18.8789 179.578 18.9023 179.344 18.9492C179.109 18.9961 178.969 19.0312 178.922 19.0547C179.109 19.2188 179.227 19.3594 179.273 19.4766C179.32 19.5938 179.32 19.7109 179.273 19.8281C179.25 19.9453 179.191 20.0742 179.098 20.2148C179.027 20.332 178.969 20.4844 178.922 20.6719C178.875 20.7188 178.781 20.707 178.641 20.6367C178.5 20.543 178.395 20.4727 178.324 20.4258C177.996 20.918 177.527 21.2461 176.918 21.4102C176.332 21.5508 175.77 21.6914 175.23 21.832C175.277 21.9492 175.324 22.0547 175.371 22.1484C175.418 22.2422 175.465 22.3477 175.512 22.4648C174.809 22.9336 174.293 23.5078 173.965 24.1875C173.66 24.8438 173.379 25.5352 173.121 26.2617C172.887 26.9648 172.594 27.6562 172.242 28.3359C171.914 28.9922 171.398 29.5547 170.695 30.0234C170.812 30.2109 170.895 30.3984 170.941 30.5859C170.988 30.7734 171.141 30.9141 171.398 31.0078C171.469 31.2656 171.492 31.5352 171.469 31.8164C171.469 32.0742 171.445 32.332 171.398 32.5898C171.352 32.8477 171.316 33.1172 171.293 33.3984C171.293 33.6562 171.328 33.9258 171.398 34.207L171.469 34.2773C172.195 34.5352 172.758 34.5586 173.156 34.3477C173.578 34.1367 173.941 33.8672 174.246 33.5391C174.574 33.2109 174.926 32.9062 175.301 32.625C175.676 32.3438 176.203 32.2734 176.883 32.4141L177.023 32.2031C176.977 32.0859 176.941 31.9805 176.918 31.8867C176.895 31.793 176.883 31.6875 176.883 31.5703C176.906 31.3125 176.977 31.1133 177.094 30.9727C177.211 30.8086 177.363 30.6328 177.551 30.4453C177.715 30.2578 177.867 30.0586 178.008 29.8477C178.172 29.6367 178.324 29.4141 178.465 29.1797C178.605 28.9688 178.77 28.793 178.957 28.6523C179.145 28.4883 179.391 28.4648 179.695 28.582L180.363 26.0508C180.387 25.9336 180.492 25.8281 180.68 25.7344C180.891 25.6406 181.066 25.5352 181.207 25.418C181.371 25.3008 181.465 25.1484 181.488 24.9609C181.535 24.7734 181.406 24.5273 181.102 24.2227C181.148 24.1289 181.184 24.0117 181.207 23.8711C181.23 23.7305 181.266 23.6016 181.312 23.4844C181.359 23.3672 181.418 23.2734 181.488 23.2031C181.559 23.1328 181.676 23.1211 181.84 23.168L181.945 22.9219ZM219.562 25.2422C219.352 25.4531 219.188 25.6172 219.07 25.7344C218.977 25.8516 218.883 25.9688 218.789 26.0859C218.719 26.1797 218.625 26.2852 218.508 26.4023C218.414 26.5195 218.262 26.6953 218.051 26.9297C217.863 27.1172 217.688 27.3164 217.523 27.5273C217.359 27.7383 217.172 27.9258 216.961 28.0898C216.68 28.0195 216.457 28.0547 216.293 28.1953C216.152 28.3359 216.012 28.5 215.871 28.6875C215.754 28.8516 215.637 29.0156 215.52 29.1797C215.426 29.3203 215.297 29.3789 215.133 29.3555C214.57 29.6602 214.008 29.9297 213.445 30.1641C212.883 30.375 212.344 30.6914 211.828 31.1133L211.547 30.832L207.891 32.5898C207.773 32.6367 207.656 32.707 207.539 32.8008C207.422 32.8945 207.305 32.9766 207.188 33.0469C206.672 33.3281 206.133 33.5859 205.57 33.8203C205.031 34.0312 204.492 34.2305 203.953 34.418L203.496 34.5586C203.684 35.0273 203.684 35.3555 203.496 35.543C203.309 35.7305 203.039 35.8711 202.688 35.9648C202.336 36.0352 201.949 36.082 201.527 36.1055C201.105 36.1289 200.777 36.2109 200.543 36.3516C200.262 36.3047 199.969 36.2812 199.664 36.2812C199.383 36.3047 199.09 36.3398 198.785 36.3867C198.457 36.4336 198.152 36.457 197.871 36.457C197.59 36.457 197.285 36.4219 196.957 36.3516H196.887C196.488 36.5391 196.137 36.5742 195.832 36.457C195.551 36.3633 195.293 36.1992 195.059 35.9648C194.824 35.707 194.602 35.4141 194.391 35.0859C194.203 34.7344 194.004 34.418 193.793 34.1367C193.652 33.9492 193.477 33.6797 193.266 33.3281C193.055 32.9766 192.879 32.6016 192.738 32.2031C192.574 31.8047 192.48 31.4062 192.457 31.0078C192.41 30.5859 192.492 30.2227 192.703 29.918C192.914 29.6133 193.09 29.2852 193.23 28.9336C193.348 28.582 193.406 28.1719 193.406 27.7031C193.406 27.5391 193.406 27.3867 193.406 27.2461C193.383 27.1055 193.371 26.9531 193.371 26.7891C193.488 26.7891 193.617 26.8008 193.758 26.8242C193.898 26.8242 194.027 26.8242 194.145 26.8242C194.285 26.8008 194.391 26.7539 194.461 26.6836C194.555 26.5898 194.602 26.4375 194.602 26.2266C194.602 26.1094 194.555 26.0156 194.461 25.9453C194.391 25.875 194.344 25.8047 194.32 25.7344C194.461 25.5234 194.59 25.3594 194.707 25.2422C194.848 25.1016 194.965 24.9727 195.059 24.8555C195.152 24.7148 195.223 24.5625 195.27 24.3984C195.316 24.2109 195.305 23.9648 195.234 23.6602C195.516 23.168 195.844 22.7344 196.219 22.3594C196.617 21.9609 197.027 21.5977 197.449 21.2695C197.871 20.918 198.305 20.5781 198.75 20.25C199.195 19.9219 199.617 19.5703 200.016 19.1953C200.461 19.3828 200.812 19.3828 201.07 19.1953C201.352 19.0078 201.598 18.8086 201.809 18.5977C202.02 18.3633 202.23 18.1758 202.441 18.0352C202.652 17.8945 202.934 17.9531 203.285 18.2109L203.355 18.2812C203.988 17.6484 204.621 17.3672 205.254 17.4375C205.91 17.5078 206.461 17.7188 206.906 18.0703C207.375 18.4219 207.68 18.832 207.82 19.3008C207.961 19.7461 207.832 20.0508 207.434 20.2148C207.691 20.4727 207.82 20.7773 207.82 21.1289C207.82 21.4805 207.727 21.7852 207.539 22.043C207.328 22.3242 207.141 22.6172 206.977 22.9219C206.836 23.2031 206.684 23.5078 206.52 23.8359C206.285 24.375 206.027 24.8906 205.746 25.3828C205.465 25.8516 205.066 26.25 204.551 26.5781C204.129 26.4609 203.836 26.5078 203.672 26.7188C203.531 26.9297 203.426 27.1641 203.355 27.4219C203.285 27.6562 203.203 27.8438 203.109 27.9844C203.016 28.125 202.816 28.0781 202.512 27.8438L202.441 27.7734L202.371 27.8438C202.184 28.0312 202.031 28.2422 201.914 28.4766C201.82 28.7109 201.68 28.8867 201.492 29.0039C201.281 28.9336 201.059 28.875 200.824 28.8281C200.59 28.7812 200.367 28.7344 200.156 28.6875C200.156 29.1797 200.062 29.5664 199.875 29.8477C199.688 30.1289 199.441 30.3633 199.137 30.5508C198.855 30.7148 198.527 30.8555 198.152 30.9727C197.777 31.0664 197.402 31.1953 197.027 31.3594C196.676 31.5 196.336 31.6875 196.008 31.9219C195.703 32.1328 195.457 32.4375 195.27 32.8359C195.504 33.0938 195.797 33.2461 196.148 33.293C196.5 33.3164 196.863 33.3164 197.238 33.293C197.613 33.2461 197.977 33.2227 198.328 33.2227C198.703 33.2227 199.031 33.3164 199.312 33.5039L199.348 33.5391L199.383 33.5039C199.945 33.4336 200.484 33.3047 201 33.1172C201.539 32.9062 202.055 32.6953 202.547 32.4844C203.062 32.25 203.578 32.0391 204.094 31.8516C204.633 31.6406 205.184 31.4883 205.746 31.3945C205.863 31.582 206.016 31.6875 206.203 31.7109C206.414 31.7344 206.613 31.7227 206.801 31.6758L206.836 31.6055C206.883 31.4414 206.93 31.3008 206.977 31.1836C207.023 31.043 207.094 30.8906 207.188 30.7266C207.352 30.4688 207.551 30.2695 207.785 30.1289C208.02 29.9883 208.266 29.8828 208.523 29.8125C208.805 29.7422 209.098 29.6953 209.402 29.6719C209.707 29.6484 210.012 29.6133 210.316 29.5664H210.387L210.422 29.4609C210.516 29.1797 210.633 28.9922 210.773 28.8984C210.938 28.7812 211.102 28.6992 211.266 28.6523C211.453 28.6055 211.641 28.5703 211.828 28.5469C212.039 28.5234 212.238 28.4531 212.426 28.3359C212.848 28.4766 213.199 28.4297 213.48 28.1953C213.762 27.9609 214.031 27.7148 214.289 27.457L214.57 27.8086L214.676 27.668C215.027 27.3398 215.285 27.0938 215.449 26.9297C215.637 26.7656 215.812 26.625 215.977 26.5078C216.141 26.3672 216.328 26.2383 216.539 26.1211C216.773 25.9805 217.09 25.7812 217.488 25.5234C217.816 25.3125 218.133 25.1016 218.438 24.8906C218.766 24.6797 219.082 24.4453 219.387 24.1875C219.504 24.2344 219.562 24.3281 219.562 24.4688C219.562 24.5859 219.562 24.7031 219.562 24.8203C219.539 24.8672 219.516 24.9375 219.492 25.0312C219.492 25.125 219.516 25.1953 219.562 25.2422ZM205.008 20.8477C204.984 20.8242 204.961 20.8125 204.938 20.8125C204.938 20.8125 204.926 20.8008 204.902 20.7773C204.41 20.5195 204 20.4023 203.672 20.4258C203.344 20.4258 203.039 20.5195 202.758 20.707C202.5 20.8711 202.254 21.0938 202.02 21.375C201.809 21.6328 201.574 21.8789 201.316 22.1133C201.082 22.3242 200.801 22.4883 200.473 22.6055C200.145 22.7227 199.746 22.7109 199.277 22.5703C199.207 22.9453 199.137 23.3203 199.066 23.6953C199.02 24.0469 198.984 24.4102 198.961 24.7852C198.562 24.9258 198.246 25.125 198.012 25.3828C197.801 25.6406 197.613 25.9219 197.449 26.2266C197.309 26.5312 197.168 26.8594 197.027 27.2109C196.91 27.5391 196.746 27.8555 196.535 28.1602L196.676 28.3359C196.77 28.2891 196.875 28.3242 196.992 28.4414C197.109 28.5586 197.191 28.6406 197.238 28.6875C197.496 28.3125 197.836 27.9961 198.258 27.7383C198.703 27.4805 199.148 27.2461 199.594 27.0352C200.062 26.8008 200.508 26.5547 200.93 26.2969C201.352 26.0391 201.668 25.6992 201.879 25.2773C202.629 25.0664 203.191 24.6445 203.566 24.0117C203.941 23.3789 204.258 22.7227 204.516 22.043C204.562 21.9023 204.645 21.7031 204.762 21.4453C204.902 21.1641 204.984 20.9648 205.008 20.8477ZM262.805 26.9648C262.758 27.5977 262.629 28.0781 262.418 28.4062C262.23 28.7109 262.02 28.9922 261.785 29.25C261.574 29.5078 261.352 29.8008 261.117 30.1289C260.906 30.457 260.742 30.9492 260.625 31.6055C259.852 31.9102 259.289 32.2734 258.938 32.6953C258.586 33.0938 258.281 33.4688 258.023 33.8203C257.789 34.1719 257.496 34.4414 257.145 34.6289C256.816 34.8164 256.266 34.8516 255.492 34.7344C255.375 34.5938 255.246 34.4648 255.105 34.3477C254.988 34.2305 254.848 34.1133 254.684 33.9961C254.496 34.4883 254.25 34.8164 253.945 34.9805C253.664 35.1445 253.348 35.2617 252.996 35.332C252.645 35.3789 252.281 35.4492 251.906 35.543C251.531 35.6367 251.168 35.8711 250.816 36.2461C249.926 36.1289 249.211 35.9297 248.672 35.6484C248.156 35.3672 247.746 35.0625 247.441 34.7344C247.137 34.3828 246.891 34.0195 246.703 33.6445C246.539 33.2461 246.363 32.8711 246.176 32.5195C245.988 32.168 245.754 31.8516 245.473 31.5703C245.215 31.2656 244.828 31.0312 244.312 30.8672C244.078 30.7969 243.879 30.7852 243.715 30.832C243.574 30.8789 243.445 30.9609 243.328 31.0781C243.211 31.1953 243.094 31.3359 242.977 31.5C242.883 31.6406 242.766 31.7695 242.625 31.8867L242.238 31.5C242.027 32.0625 241.711 32.5078 241.289 32.8359C240.891 33.1406 240.422 33.375 239.883 33.5391C239.367 33.6797 238.816 33.7734 238.23 33.8203C237.668 33.8438 237.129 33.8555 236.613 33.8555C236.355 34.418 236.039 34.8398 235.664 35.1211C235.289 35.4023 234.867 35.6133 234.398 35.7539C233.953 35.8945 233.484 36 232.992 36.0703C232.5 36.1406 231.996 36.2461 231.48 36.3867C231.27 36.3398 231.035 36.3516 230.777 36.4219C230.543 36.4922 230.297 36.5625 230.039 36.6328C229.805 36.7266 229.559 36.7969 229.301 36.8438C229.066 36.8906 228.867 36.8672 228.703 36.7734C228.492 36.6562 228.387 36.5156 228.387 36.3516C228.387 36.1875 228.328 36.0352 228.211 35.8945H228.141C227.648 35.8477 227.25 35.6953 226.945 35.4375C226.641 35.1562 226.383 34.8281 226.172 34.4531C225.938 34.0781 225.738 33.6797 225.574 33.2578C225.41 32.8359 225.246 32.4492 225.082 32.0977C225.082 31.582 225.059 31.0195 225.012 30.4102C224.941 29.7773 224.93 29.1562 224.977 28.5469C225.023 27.9141 225.152 27.3281 225.363 26.7891C225.574 26.25 225.926 25.8164 226.418 25.4883L226.523 25.418L226.137 25.1016C226.441 24.8438 226.629 24.5977 226.699 24.3633C226.746 24.1055 226.758 23.8008 226.734 23.4492C226.898 23.1914 227.086 22.9688 227.297 22.7812C227.484 22.5703 227.684 22.3711 227.895 22.1836C228.48 21.5742 229.008 20.9414 229.477 20.2852C229.945 19.6289 230.18 18.8555 230.18 17.9648C230.18 17.8477 230.168 17.7422 230.145 17.6484C230.145 17.5547 230.145 17.4492 230.145 17.332C230.473 17.2383 230.777 17.0859 231.059 16.875C231.363 16.6406 231.656 16.418 231.938 16.207C232.219 15.9727 232.512 15.7852 232.816 15.6445C233.121 15.5039 233.438 15.4688 233.766 15.5391C233.719 15.3984 233.672 15.2695 233.625 15.1523C233.578 15.0352 233.555 14.9062 233.555 14.7656C233.555 14.3672 233.695 14.0156 233.977 13.7109C234.281 13.4062 234.551 13.1367 234.785 12.9023C234.973 12.7148 235.184 12.4922 235.418 12.2344C235.652 11.9531 235.828 11.7539 235.945 11.6367L235.734 11.4258C236.086 11.4023 236.344 11.2969 236.508 11.1094C236.672 10.8984 236.824 10.6875 236.965 10.4766C237.129 10.2656 237.305 10.0781 237.492 9.91406C237.68 9.72656 237.961 9.63281 238.336 9.63281H238.441C238.629 9.25781 238.91 8.92969 239.285 8.64844C239.66 8.34375 240.047 8.05078 240.445 7.76953C240.867 7.48828 241.277 7.19531 241.676 6.89062C242.074 6.58594 242.379 6.21094 242.59 5.76562C242.941 5.64844 243.246 5.49609 243.504 5.30859C243.762 5.09766 244.008 4.91016 244.242 4.74609C244.5 4.55859 244.77 4.39453 245.051 4.25391C245.355 4.11328 245.719 4.03125 246.141 4.00781C246.258 3.89062 246.41 3.73828 246.598 3.55078C246.785 3.36328 246.938 3.26953 247.055 3.26953C247.172 3.26953 247.242 3.31641 247.266 3.41016C247.312 3.48047 247.359 3.55078 247.406 3.62109C247.547 3.50391 247.734 3.46875 247.969 3.51562C248.227 3.53906 248.484 3.60937 248.742 3.72656C249 3.84375 249.246 3.97266 249.48 4.11328C249.715 4.25391 249.902 4.35938 250.043 4.42969C250.629 5.88281 250.699 7.37109 250.254 8.89453C250.137 8.89453 250.008 8.90625 249.867 8.92969C249.727 8.92969 249.586 8.92969 249.445 8.92969C249.445 8.83594 249.504 8.73047 249.621 8.61328C249.738 8.49609 249.82 8.41406 249.867 8.36719C249.586 8.22656 249.375 8.03906 249.234 7.80469C249.094 7.54688 248.965 7.30078 248.848 7.06641C248.73 6.80859 248.578 6.58594 248.391 6.39844C248.227 6.1875 247.957 6.05859 247.582 6.01172C247.066 5.94141 246.586 6.03516 246.141 6.29297C245.695 6.52734 245.285 6.79688 244.91 7.10156C244.535 7.38281 244.184 7.65234 243.855 7.91016C243.527 8.14453 243.211 8.23828 242.906 8.19141C242.766 8.47266 242.602 8.70703 242.414 8.89453C242.25 9.08203 242.086 9.26953 241.922 9.45703C241.781 9.64453 241.664 9.85547 241.57 10.0898C241.5 10.3242 241.512 10.6289 241.605 11.0039C240.762 11.8008 239.895 12.5742 239.004 13.3242C238.137 14.0508 237.328 14.8711 236.578 15.7852L236.191 15.3984C236.191 15.5625 236.133 15.7148 236.016 15.8555C235.922 15.9727 235.828 16.1016 235.734 16.2422C235.641 16.3828 235.559 16.5469 235.488 16.7344C235.441 16.8984 235.453 17.0859 235.523 17.2969C235.336 17.4141 235.172 17.5547 235.031 17.7188C234.914 17.8594 234.797 18.0234 234.68 18.2109C234.539 18.4219 234.387 18.6211 234.223 18.8086C234.082 18.9727 233.895 19.1367 233.66 19.3008L233.625 19.3359C233.648 19.5703 233.66 19.793 233.66 20.0039C233.66 20.2148 233.66 20.4492 233.66 20.707C233.402 21.1055 233.086 21.4805 232.711 21.832C232.336 22.1836 231.973 22.5469 231.621 22.9219C231.27 23.2734 230.953 23.6602 230.672 24.082C230.414 24.5039 230.262 24.9727 230.215 25.4883C229.816 25.6289 229.535 25.8633 229.371 26.1914C229.207 26.5195 229.078 26.8594 228.984 27.2109C228.891 27.5625 228.809 27.9023 228.738 28.2305C228.668 28.5586 228.527 28.8047 228.316 28.9688L228.633 29.2852C228.023 29.6367 227.578 30.0703 227.297 30.5859C227.016 31.1016 226.969 31.7109 227.156 32.4141L227.191 32.4492V32.4844C227.871 33.0703 228.562 33.3867 229.266 33.4336C229.969 33.4805 230.73 33.4453 231.551 33.3281C231.926 33.2812 232.277 33.2578 232.605 33.2578C232.957 33.2344 233.297 33.2227 233.625 33.2227H233.695C234.023 32.8945 234.375 32.6953 234.75 32.625C235.125 32.5312 235.535 32.4844 235.98 32.4844C236.355 32.4844 236.719 32.4609 237.07 32.4141C237.422 32.3672 237.727 32.1914 237.984 31.8867C238.078 31.793 238.148 31.6992 238.195 31.6055C238.242 31.5117 238.301 31.418 238.371 31.3242C238.418 31.2773 238.465 31.2305 238.512 31.1836C238.559 31.1367 238.605 31.0898 238.652 31.043C239.168 31.1602 239.648 31.1016 240.094 30.8672C240.539 30.6094 240.961 30.3047 241.359 29.9531C241.781 29.6016 242.191 29.25 242.59 28.8984C243.012 28.5234 243.434 28.2656 243.855 28.125C244.395 27.5859 244.746 27 244.91 26.3672C245.098 25.7344 245.215 25.0664 245.262 24.3633C245.285 24.0117 245.309 23.6836 245.332 23.3789C245.379 23.0742 245.438 22.793 245.508 22.5352C245.602 22.2539 245.73 21.9961 245.895 21.7617C246.059 21.5039 246.293 21.2461 246.598 20.9883L246.668 20.918C246.621 20.7305 246.574 20.5664 246.527 20.4258C246.48 20.2852 246.457 20.1094 246.457 19.8984C246.457 19.4531 246.539 19.0312 246.703 18.6328C246.867 18.2344 247.043 17.8359 247.23 17.4375C247.441 17.0156 247.629 16.5703 247.793 16.1016C247.957 15.6328 248.039 15.1055 248.039 14.5195C248.367 13.957 248.73 13.3828 249.129 12.7969C249.527 12.2109 249.961 11.6484 250.43 11.1094C250.898 10.5703 251.402 10.0898 251.941 9.66797C252.48 9.24609 253.066 8.91797 253.699 8.68359C254.004 8.70703 254.309 8.74219 254.613 8.78906C254.941 8.8125 255.246 8.84766 255.527 8.89453C255.387 9.22266 255.316 9.60938 255.316 10.0547C255.316 10.4766 255.293 10.8984 255.246 11.3203C255.223 11.7188 255.129 12.082 254.965 12.4102C254.801 12.7383 254.496 12.9727 254.051 13.1133C254.098 13.1836 254.121 13.3242 254.121 13.5352C254.145 13.7227 254.156 13.8633 254.156 13.957C254.156 14.6602 254.004 15.3281 253.699 15.9609C253.395 16.5938 253.043 17.2266 252.645 17.8594C252.27 18.4688 251.895 19.0898 251.52 19.7227C251.168 20.3555 250.922 21 250.781 21.6562C250.711 21.9609 250.547 22.2422 250.289 22.5C250.055 22.7578 249.809 23.0156 249.551 23.2734C249.316 23.5312 249.117 23.8125 248.953 24.1172C248.812 24.3984 248.801 24.7148 248.918 25.0664C248.73 25.3711 248.508 25.6289 248.25 25.8398C248.016 26.0273 247.805 26.2266 247.617 26.4375C247.43 26.625 247.301 26.8594 247.23 27.1406C247.16 27.4219 247.207 27.7852 247.371 28.2305H247.406V28.2656C247.664 28.6641 247.863 29.0742 248.004 29.4961C248.145 29.918 248.297 30.3281 248.461 30.7266C248.648 31.125 248.883 31.4883 249.164 31.8164C249.469 32.1445 249.891 32.3906 250.43 32.5547C250.477 32.2969 250.582 32.168 250.746 32.168C250.91 32.1445 251.086 32.1328 251.273 32.1328C251.391 32.25 251.508 32.3672 251.625 32.4844C251.742 32.5781 251.859 32.6836 251.977 32.8008C253.008 32.8008 253.828 32.7656 254.438 32.6953C255.047 32.625 255.562 32.4961 255.984 32.3086C256.43 32.1211 256.863 31.8516 257.285 31.5C257.707 31.125 258.258 30.6445 258.938 30.0586C259.57 29.5195 260.203 28.9922 260.836 28.4766C261.469 27.9375 262.125 27.4336 262.805 26.9648ZM251.133 16.9453C251.016 16.6875 250.816 16.5586 250.535 16.5586C250.254 16.5586 249.996 16.5703 249.762 16.5938C249.949 16.7812 250.113 16.9922 250.254 17.2266C250.418 17.4609 250.57 17.6836 250.711 17.8945C250.828 17.7773 250.945 17.6367 251.062 17.4727C251.203 17.3086 251.227 17.1328 251.133 16.9453ZM285.938 27.3867C285.891 27.9727 285.727 28.5 285.445 28.9688C285.188 29.4375 284.859 29.8594 284.461 30.2344C284.062 30.6094 283.629 30.9492 283.16 31.2539C282.691 31.5586 282.234 31.8398 281.789 32.0977C281.578 32.0039 281.367 32.0156 281.156 32.1328C280.969 32.25 280.77 32.3789 280.559 32.5195C280.348 32.6367 280.125 32.7305 279.891 32.8008C279.68 32.8477 279.457 32.7656 279.223 32.5547C279.035 32.9531 278.801 33.1523 278.52 33.1523C278.262 33.1289 277.98 33.0938 277.676 33.0469C277.395 32.9766 277.125 32.9648 276.867 33.0117C276.609 33.0352 276.41 33.293 276.27 33.7852L276.023 33.5039C275.602 33.7617 275.191 34.1016 274.793 34.5234C274.395 34.9219 273.973 35.3086 273.527 35.6836C273.105 36.0586 272.648 36.3633 272.156 36.5977C271.688 36.832 271.184 36.8906 270.645 36.7734C270.504 37.0547 270.305 37.1953 270.047 37.1953C269.812 37.1953 269.566 37.1133 269.309 36.9492C269.051 36.7852 268.805 36.5977 268.57 36.3867C268.336 36.1758 268.16 36 268.043 35.8594C267.926 36.0469 267.797 36.1289 267.656 36.1055C267.539 36.082 267.41 36.0234 267.27 35.9297C267.129 35.8125 266.988 35.6953 266.848 35.5781C266.707 35.4609 266.555 35.4141 266.391 35.4375C266.062 34.4531 265.629 33.6328 265.09 32.9766C264.574 32.2969 263.988 31.6055 263.332 30.9023C263.262 31.1602 263.156 31.3945 263.016 31.6055C262.898 31.8164 262.77 32.0273 262.629 32.2383C262.512 32.4258 262.395 32.625 262.277 32.8359C262.184 33.0469 262.125 33.293 262.102 33.5742L261.891 33.8555C262.148 34.2305 262.23 34.5469 262.137 34.8047C262.066 35.0391 261.926 35.2617 261.715 35.4727C261.504 35.6836 261.305 35.9062 261.117 36.1406C260.93 36.3984 260.859 36.7148 260.906 37.0898C260.742 37.2305 260.625 37.418 260.555 37.6523C260.484 37.9102 260.414 38.1797 260.344 38.4609C260.297 38.7422 260.238 39.0234 260.168 39.3047C260.121 39.5859 260.027 39.832 259.887 40.043C259.957 40.3242 259.922 40.5352 259.781 40.6758C259.664 40.8398 259.523 40.9922 259.359 41.1328C259.172 41.2969 258.996 41.4727 258.832 41.6602C258.668 41.8711 258.609 42.1406 258.656 42.4688C258.68 42.7031 258.703 42.8086 258.727 42.7852C258.727 42.7852 258.727 42.9023 258.727 43.1367C258.727 43.4648 258.645 43.7812 258.48 44.0859C258.293 44.4141 258.012 44.6016 257.637 44.6484C257.871 45.2344 257.965 45.6797 257.918 45.9844C257.871 46.3125 257.754 46.5703 257.566 46.7578C257.355 46.9688 257.109 47.1328 256.828 47.25C256.547 47.3906 256.289 47.5547 256.055 47.7422C255.797 47.9297 255.598 48.1758 255.457 48.4805C255.316 48.8086 255.293 49.2422 255.387 49.7812C255.48 50.3906 255.398 50.8594 255.141 51.1875C254.883 51.5156 254.602 51.8203 254.297 52.1016C253.992 52.4062 253.746 52.7344 253.559 53.0859C253.348 53.4375 253.359 53.9414 253.594 54.5977C253.523 54.8789 253.43 55.043 253.312 55.0898C253.172 55.1367 253.031 55.125 252.891 55.0547C252.75 55.0078 252.598 54.9375 252.434 54.8438C252.27 54.75 252.117 54.7031 251.977 54.7031C251.977 54.5156 251.93 54.3398 251.836 54.1758C251.742 54.0117 251.648 53.8477 251.555 53.6836C251.461 53.5195 251.414 53.3555 251.414 53.1914C251.391 53.0273 251.461 52.8398 251.625 52.6289C251.414 52.418 251.309 52.1719 251.309 51.8906C251.285 51.6094 251.32 51.3047 251.414 50.9766C251.484 50.6719 251.578 50.3672 251.695 50.0625C251.789 49.7578 251.848 49.4766 251.871 49.2188C252.105 48.9375 252.281 48.6328 252.398 48.3047C252.492 48 252.574 47.6719 252.645 47.3203C252.691 46.9922 252.762 46.6641 252.855 46.3359C252.926 46.0078 253.066 45.7031 253.277 45.4219C253.113 44.9062 253.102 44.4609 253.242 44.0859C253.383 43.7344 253.57 43.4062 253.805 43.1016C254.016 42.7969 254.227 42.4688 254.438 42.1172C254.625 41.7891 254.684 41.3789 254.613 40.8867C255.082 39.7852 255.645 38.707 256.301 37.6523C256.957 36.6211 257.496 35.5195 257.918 34.3477C258.457 33.8086 258.891 33.1875 259.219 32.4844C259.547 31.7812 259.734 31.0547 259.781 30.3047C260.086 30.0938 260.297 29.8477 260.414 29.5664C260.555 29.2617 260.684 28.9688 260.801 28.6875C260.941 28.4062 261.105 28.1367 261.293 27.8789C261.48 27.6211 261.773 27.4102 262.172 27.2461C262.078 26.918 262.043 26.6602 262.066 26.4727C262.09 26.2617 262.172 25.9922 262.312 25.6641C262.523 25.5938 262.641 25.4883 262.664 25.3477C262.711 25.1836 262.723 25.0195 262.699 24.8555C262.676 24.668 262.664 24.4805 262.664 24.293C262.664 24.1055 262.734 23.9414 262.875 23.8008C262.969 23.707 263.016 23.6602 263.016 23.6602C263.039 23.6367 263.051 23.625 263.051 23.625C263.051 23.625 263.062 23.625 263.086 23.625C263.109 23.6016 263.156 23.543 263.227 23.4492C263.367 23.2617 263.496 23.0508 263.613 22.8164C263.73 22.5586 263.859 22.3242 264 22.1133C264.141 21.9023 264.305 21.7383 264.492 21.6211C264.703 21.4805 264.973 21.4453 265.301 21.5156C265.441 21.6328 265.559 21.7852 265.652 21.9727C265.746 22.1602 265.828 22.3477 265.898 22.5352C265.992 22.7227 266.098 22.875 266.215 22.9922C266.332 23.1094 266.496 23.1445 266.707 23.0977C266.801 23.0977 266.906 23.0625 267.023 22.9922C267.328 22.7812 267.621 22.5586 267.902 22.3242C268.207 22.0898 268.5 21.8438 268.781 21.5859C268.969 21.7969 269.133 21.8906 269.273 21.8672C269.438 21.8203 269.59 21.7383 269.73 21.6211C269.895 21.4805 270.059 21.3398 270.223 21.1992C270.41 21.0586 270.621 20.9766 270.855 20.9531C271.863 20.8594 272.73 20.9414 273.457 21.1992C274.207 21.457 274.922 21.9727 275.602 22.7461C275.719 22.8867 275.848 23.0508 275.988 23.2383C276.152 23.4023 276.281 23.5781 276.375 23.7656C276.562 24.1172 276.668 24.5625 276.691 25.1016C276.738 25.6406 276.738 26.2148 276.691 26.8242C276.668 27.4102 276.633 27.9961 276.586 28.582C276.539 29.1445 276.516 29.6367 276.516 30.0586L277.746 31.043C279.27 30.7852 280.723 30.375 282.105 29.8125C283.488 29.25 284.766 28.4414 285.938 27.3867ZM274.652 29.6719C274.371 29.2734 274.242 28.8867 274.266 28.5117C274.312 28.1367 274.383 27.7617 274.477 27.3867C274.594 27.0117 274.688 26.6484 274.758 26.2969C274.828 25.9219 274.77 25.5469 274.582 25.1719C274.418 24.8438 274.254 24.5391 274.09 24.2578C273.926 23.9766 273.75 23.6953 273.562 23.4141C272.953 23.0391 272.391 22.9102 271.875 23.0273C271.359 23.1211 270.844 23.3086 270.328 23.5898C269.836 23.8711 269.332 24.1641 268.816 24.4688C268.301 24.75 267.738 24.8789 267.129 24.8555C266.941 25.1133 266.742 25.3359 266.531 25.5234C266.32 25.6875 266.098 25.8398 265.863 25.9805C265.652 26.1211 265.418 26.2617 265.16 26.4023C264.926 26.5195 264.691 26.6719 264.457 26.8594C264.27 27.5156 264.316 28.0312 264.598 28.4062C264.879 28.7578 265.254 29.0742 265.723 29.3555C266.191 29.6133 266.672 29.8828 267.164 30.1641C267.656 30.4453 268.008 30.8438 268.219 31.3594C268.664 31.125 269.086 31.0664 269.484 31.1836C269.883 31.2773 270.27 31.3945 270.645 31.5352C271.043 31.6523 271.418 31.7109 271.77 31.7109C272.145 31.7109 272.508 31.5 272.859 31.0781C273.094 31.2656 273.305 31.3242 273.492 31.2539C273.68 31.1602 273.832 31.0312 273.949 30.8672C274.09 30.6797 274.207 30.4688 274.301 30.2344C274.418 30 274.535 29.8125 274.652 29.6719ZM272.578 33.7148C272.461 33.7148 272.32 33.7266 272.156 33.75C272.016 33.75 271.91 33.668 271.84 33.5039L271.629 33.7852C271.418 33.8555 271.219 33.8555 271.031 33.7852C270.844 33.6914 270.645 33.6211 270.434 33.5742C270.199 33.6914 269.941 33.7383 269.66 33.7148C269.402 33.668 269.133 33.5859 268.852 33.4688C268.594 33.3516 268.336 33.2227 268.078 33.082C267.82 32.9414 267.586 32.8242 267.375 32.7305C267.422 33.1289 267.527 33.3984 267.691 33.5391C267.879 33.6562 268.09 33.75 268.324 33.8203C268.559 33.8906 268.793 33.9727 269.027 34.0664C269.262 34.1602 269.449 34.3711 269.59 34.6992C270.176 34.8398 270.715 34.8516 271.207 34.7344C271.723 34.5938 272.18 34.2539 272.578 33.7148ZM310.125 27.3867C310.078 27.9727 309.914 28.5 309.633 28.9688C309.375 29.4375 309.047 29.8594 308.648 30.2344C308.25 30.6094 307.816 30.9492 307.348 31.2539C306.879 31.5586 306.422 31.8398 305.977 32.0977C305.766 32.0039 305.555 32.0156 305.344 32.1328C305.156 32.25 304.957 32.3789 304.746 32.5195C304.535 32.6367 304.312 32.7305 304.078 32.8008C303.867 32.8477 303.645 32.7656 303.41 32.5547C303.223 32.9531 302.988 33.1523 302.707 33.1523C302.449 33.1289 302.168 33.0938 301.863 33.0469C301.582 32.9766 301.312 32.9648 301.055 33.0117C300.797 33.0352 300.598 33.293 300.457 33.7852L300.211 33.5039C299.789 33.7617 299.379 34.1016 298.98 34.5234C298.582 34.9219 298.16 35.3086 297.715 35.6836C297.293 36.0586 296.836 36.3633 296.344 36.5977C295.875 36.832 295.371 36.8906 294.832 36.7734C294.691 37.0547 294.492 37.1953 294.234 37.1953C294 37.1953 293.754 37.1133 293.496 36.9492C293.238 36.7852 292.992 36.5977 292.758 36.3867C292.523 36.1758 292.348 36 292.23 35.8594C292.113 36.0469 291.984 36.1289 291.844 36.1055C291.727 36.082 291.598 36.0234 291.457 35.9297C291.316 35.8125 291.176 35.6953 291.035 35.5781C290.895 35.4609 290.742 35.4141 290.578 35.4375C290.25 34.4531 289.816 33.6328 289.277 32.9766C288.762 32.2969 288.176 31.6055 287.52 30.9023C287.449 31.1602 287.344 31.3945 287.203 31.6055C287.086 31.8164 286.957 32.0273 286.816 32.2383C286.699 32.4258 286.582 32.625 286.465 32.8359C286.371 33.0469 286.312 33.293 286.289 33.5742L286.078 33.8555C286.336 34.2305 286.418 34.5469 286.324 34.8047C286.254 35.0391 286.113 35.2617 285.902 35.4727C285.691 35.6836 285.492 35.9062 285.305 36.1406C285.117 36.3984 285.047 36.7148 285.094 37.0898C284.93 37.2305 284.812 37.418 284.742 37.6523C284.672 37.9102 284.602 38.1797 284.531 38.4609C284.484 38.7422 284.426 39.0234 284.355 39.3047C284.309 39.5859 284.215 39.832 284.074 40.043C284.145 40.3242 284.109 40.5352 283.969 40.6758C283.852 40.8398 283.711 40.9922 283.547 41.1328C283.359 41.2969 283.184 41.4727 283.02 41.6602C282.855 41.8711 282.797 42.1406 282.844 42.4688C282.867 42.7031 282.891 42.8086 282.914 42.7852C282.914 42.7852 282.914 42.9023 282.914 43.1367C282.914 43.4648 282.832 43.7812 282.668 44.0859C282.48 44.4141 282.199 44.6016 281.824 44.6484C282.059 45.2344 282.152 45.6797 282.105 45.9844C282.059 46.3125 281.941 46.5703 281.754 46.7578C281.543 46.9688 281.297 47.1328 281.016 47.25C280.734 47.3906 280.477 47.5547 280.242 47.7422C279.984 47.9297 279.785 48.1758 279.645 48.4805C279.504 48.8086 279.48 49.2422 279.574 49.7812C279.668 50.3906 279.586 50.8594 279.328 51.1875C279.07 51.5156 278.789 51.8203 278.484 52.1016C278.18 52.4062 277.934 52.7344 277.746 53.0859C277.535 53.4375 277.547 53.9414 277.781 54.5977C277.711 54.8789 277.617 55.043 277.5 55.0898C277.359 55.1367 277.219 55.125 277.078 55.0547C276.938 55.0078 276.785 54.9375 276.621 54.8438C276.457 54.75 276.305 54.7031 276.164 54.7031C276.164 54.5156 276.117 54.3398 276.023 54.1758C275.93 54.0117 275.836 53.8477 275.742 53.6836C275.648 53.5195 275.602 53.3555 275.602 53.1914C275.578 53.0273 275.648 52.8398 275.812 52.6289C275.602 52.418 275.496 52.1719 275.496 51.8906C275.473 51.6094 275.508 51.3047 275.602 50.9766C275.672 50.6719 275.766 50.3672 275.883 50.0625C275.977 49.7578 276.035 49.4766 276.059 49.2188C276.293 48.9375 276.469 48.6328 276.586 48.3047C276.68 48 276.762 47.6719 276.832 47.3203C276.879 46.9922 276.949 46.6641 277.043 46.3359C277.113 46.0078 277.254 45.7031 277.465 45.4219C277.301 44.9062 277.289 44.4609 277.43 44.0859C277.57 43.7344 277.758 43.4062 277.992 43.1016C278.203 42.7969 278.414 42.4688 278.625 42.1172C278.812 41.7891 278.871 41.3789 278.801 40.8867C279.27 39.7852 279.832 38.707 280.488 37.6523C281.145 36.6211 281.684 35.5195 282.105 34.3477C282.645 33.8086 283.078 33.1875 283.406 32.4844C283.734 31.7812 283.922 31.0547 283.969 30.3047C284.273 30.0938 284.484 29.8477 284.602 29.5664C284.742 29.2617 284.871 28.9688 284.988 28.6875C285.129 28.4062 285.293 28.1367 285.48 27.8789C285.668 27.6211 285.961 27.4102 286.359 27.2461C286.266 26.918 286.23 26.6602 286.254 26.4727C286.277 26.2617 286.359 25.9922 286.5 25.6641C286.711 25.5938 286.828 25.4883 286.852 25.3477C286.898 25.1836 286.91 25.0195 286.887 24.8555C286.863 24.668 286.852 24.4805 286.852 24.293C286.852 24.1055 286.922 23.9414 287.062 23.8008C287.156 23.707 287.203 23.6602 287.203 23.6602C287.227 23.6367 287.238 23.625 287.238 23.625C287.238 23.625 287.25 23.625 287.273 23.625C287.297 23.6016 287.344 23.543 287.414 23.4492C287.555 23.2617 287.684 23.0508 287.801 22.8164C287.918 22.5586 288.047 22.3242 288.188 22.1133C288.328 21.9023 288.492 21.7383 288.68 21.6211C288.891 21.4805 289.16 21.4453 289.488 21.5156C289.629 21.6328 289.746 21.7852 289.84 21.9727C289.934 22.1602 290.016 22.3477 290.086 22.5352C290.18 22.7227 290.285 22.875 290.402 22.9922C290.52 23.1094 290.684 23.1445 290.895 23.0977C290.988 23.0977 291.094 23.0625 291.211 22.9922C291.516 22.7812 291.809 22.5586 292.09 22.3242C292.395 22.0898 292.688 21.8438 292.969 21.5859C293.156 21.7969 293.32 21.8906 293.461 21.8672C293.625 21.8203 293.777 21.7383 293.918 21.6211C294.082 21.4805 294.246 21.3398 294.41 21.1992C294.598 21.0586 294.809 20.9766 295.043 20.9531C296.051 20.8594 296.918 20.9414 297.645 21.1992C298.395 21.457 299.109 21.9727 299.789 22.7461C299.906 22.8867 300.035 23.0508 300.176 23.2383C300.34 23.4023 300.469 23.5781 300.562 23.7656C300.75 24.1172 300.855 24.5625 300.879 25.1016C300.926 25.6406 300.926 26.2148 300.879 26.8242C300.855 27.4102 300.82 27.9961 300.773 28.582C300.727 29.1445 300.703 29.6367 300.703 30.0586L301.934 31.043C303.457 30.7852 304.91 30.375 306.293 29.8125C307.676 29.25 308.953 28.4414 310.125 27.3867ZM298.84 29.6719C298.559 29.2734 298.43 28.8867 298.453 28.5117C298.5 28.1367 298.57 27.7617 298.664 27.3867C298.781 27.0117 298.875 26.6484 298.945 26.2969C299.016 25.9219 298.957 25.5469 298.77 25.1719C298.605 24.8438 298.441 24.5391 298.277 24.2578C298.113 23.9766 297.938 23.6953 297.75 23.4141C297.141 23.0391 296.578 22.9102 296.062 23.0273C295.547 23.1211 295.031 23.3086 294.516 23.5898C294.023 23.8711 293.52 24.1641 293.004 24.4688C292.488 24.75 291.926 24.8789 291.316 24.8555C291.129 25.1133 290.93 25.3359 290.719 25.5234C290.508 25.6875 290.285 25.8398 290.051 25.9805C289.84 26.1211 289.605 26.2617 289.348 26.4023C289.113 26.5195 288.879 26.6719 288.645 26.8594C288.457 27.5156 288.504 28.0312 288.785 28.4062C289.066 28.7578 289.441 29.0742 289.91 29.3555C290.379 29.6133 290.859 29.8828 291.352 30.1641C291.844 30.4453 292.195 30.8438 292.406 31.3594C292.852 31.125 293.273 31.0664 293.672 31.1836C294.07 31.2773 294.457 31.3945 294.832 31.5352C295.23 31.6523 295.605 31.7109 295.957 31.7109C296.332 31.7109 296.695 31.5 297.047 31.0781C297.281 31.2656 297.492 31.3242 297.68 31.2539C297.867 31.1602 298.02 31.0312 298.137 30.8672C298.277 30.6797 298.395 30.4688 298.488 30.2344C298.605 30 298.723 29.8125 298.84 29.6719ZM296.766 33.7148C296.648 33.7148 296.508 33.7266 296.344 33.75C296.203 33.75 296.098 33.668 296.027 33.5039L295.816 33.7852C295.605 33.8555 295.406 33.8555 295.219 33.7852C295.031 33.6914 294.832 33.6211 294.621 33.5742C294.387 33.6914 294.129 33.7383 293.848 33.7148C293.59 33.668 293.32 33.5859 293.039 33.4688C292.781 33.3516 292.523 33.2227 292.266 33.082C292.008 32.9414 291.773 32.8242 291.562 32.7305C291.609 33.1289 291.715 33.3984 291.879 33.5391C292.066 33.6562 292.277 33.75 292.512 33.8203C292.746 33.8906 292.98 33.9727 293.215 34.0664C293.449 34.1602 293.637 34.3711 293.777 34.6992C294.363 34.8398 294.902 34.8516 295.395 34.7344C295.91 34.5938 296.367 34.2539 296.766 33.7148ZM331.078 24.4688C331.102 24.8203 331.031 25.1602 330.867 25.4883C330.727 25.8164 330.598 26.1094 330.48 26.3672L329.355 27.5625L328.688 29.5664C328.43 29.7539 328.148 29.9414 327.844 30.1289C327.562 30.293 327.305 30.4688 327.07 30.6562C326.812 30.8672 326.578 31.1016 326.367 31.3594C326.18 31.6172 325.969 31.8398 325.734 32.0273C325.5 32.2148 325.219 32.3789 324.891 32.5195C324.586 32.6367 324.305 32.7773 324.047 32.9414C323.578 33.2227 323.133 33.5156 322.711 33.8203C322.312 34.125 321.891 34.418 321.445 34.6992C321.328 34.7461 321.234 34.8047 321.164 34.875C321.117 34.9219 321.035 34.9688 320.918 35.0156C320.848 35.0625 320.543 35.1562 320.004 35.2969C319.465 35.4375 318.867 35.6016 318.211 35.7891C317.578 35.9531 316.98 36.1055 316.418 36.2461C315.855 36.3867 315.539 36.457 315.469 36.457C315.047 36.5039 314.613 36.5273 314.168 36.5273C313.723 36.5273 313.277 36.5391 312.832 36.5625L312.305 36.8789C312.047 36.6914 311.766 36.5156 311.461 36.3516C311.156 36.1875 310.898 36.0117 310.688 35.8242C310.453 35.6133 310.219 35.3789 309.984 35.1211C309.75 34.8398 309.539 34.582 309.352 34.3477C309.234 34.0195 309.117 33.7031 309 33.3984C308.883 33.0703 308.789 32.7539 308.719 32.4492L308.543 31.1133C308.496 30.668 308.449 30.2344 308.402 29.8125C308.379 29.3906 308.344 28.957 308.297 28.5117C308.695 27.4102 309.047 26.3086 309.352 25.207C309.68 24.082 310.078 22.9805 310.547 21.9023C310.664 21.6445 310.77 21.3867 310.863 21.1289C310.98 20.8477 311.098 20.5781 311.215 20.3203C311.355 20.0391 311.508 19.7812 311.672 19.5469C311.836 19.2891 311.977 19.0312 312.094 18.7734C312.211 18.4922 312.305 18.2109 312.375 17.9297C312.445 17.625 312.539 17.3438 312.656 17.0859C312.727 16.9453 312.844 16.7461 313.008 16.4883C313.172 16.207 313.348 15.9258 313.535 15.6445C313.723 15.3398 313.898 15.0469 314.062 14.7656C314.25 14.4844 314.402 14.2617 314.52 14.0977C314.707 13.8633 314.895 13.6406 315.082 13.4297C315.27 13.2188 315.422 12.9844 315.539 12.7266C315.773 12.3281 315.996 11.8242 316.207 11.2148C316.418 10.6055 316.652 10.0664 316.91 9.59766C317.191 9.08203 317.52 8.60156 317.895 8.15625C318.293 7.6875 318.656 7.20703 318.984 6.71484C319.336 6.22266 319.676 5.68359 320.004 5.09766L321.551 3.97266L322.254 4.67578L323.941 4.39453L324.996 5.97656C324.949 6.32812 324.891 6.72656 324.82 7.17188C324.773 7.61719 324.727 8.07422 324.68 8.54297C324.656 8.98828 324.633 9.43359 324.609 9.87891C324.609 10.3008 324.633 10.6758 324.68 11.0039C324.562 11.4258 324.387 11.8711 324.152 12.3398C323.941 12.7852 323.695 13.1719 323.414 13.5L323.273 15.3984L321.867 16.6641L321.691 18.457L320.496 19.8633C320.426 20.1914 320.355 20.5312 320.285 20.8828C320.215 21.2109 320.121 21.5273 320.004 21.832C319.887 22.1133 319.746 22.4062 319.582 22.7109C319.418 22.9922 319.254 23.2852 319.09 23.5898C318.621 23.9883 318.141 24.4336 317.648 24.9258C317.156 25.418 316.711 25.9102 316.312 26.4023C316.102 26.6602 315.902 26.9414 315.715 27.2461C315.551 27.5273 315.375 27.7969 315.188 28.0547C314.578 28.8281 313.922 29.5547 313.219 30.2344C312.516 30.9141 311.824 31.6172 311.145 32.3438L311.918 33.7148C312.41 33.8789 312.914 34.0312 313.43 34.1719C313.945 34.3125 314.461 34.4414 314.977 34.5586C315.211 34.5117 315.48 34.4648 315.785 34.418C316.09 34.3477 316.406 34.2773 316.734 34.207C317.062 34.1133 317.379 34.0195 317.684 33.9258C318.012 33.832 318.281 33.7383 318.492 33.6445C318.961 33.457 319.5 33.1875 320.109 32.8359C320.719 32.4609 321.234 32.1328 321.656 31.8516C322.406 31.3828 323.168 30.9023 323.941 30.4102C324.715 29.918 325.453 29.4023 326.156 28.8633C326.625 28.5117 327.117 28.0664 327.633 27.5273C328.148 26.9883 328.629 26.4844 329.074 26.0156C329.543 25.5234 329.953 25.125 330.305 24.8203C330.68 24.5156 330.938 24.3984 331.078 24.4688ZM321.516 7.83984C321.023 8.66016 320.496 9.45703 319.934 10.2305C319.395 10.9805 318.891 11.7656 318.422 12.5859C318.258 12.8672 318.117 13.1602 318 13.4648C317.883 13.7461 317.73 14.0273 317.543 14.3086C317.379 14.5664 317.203 14.8242 317.016 15.082C316.828 15.3398 316.664 15.6211 316.523 15.9258C316.242 16.4648 315.984 17.0391 315.75 17.6484C315.539 18.2344 315.305 18.8086 315.047 19.3711C314.766 19.9336 314.438 20.4609 314.062 20.9531C313.688 21.4453 313.348 21.9727 313.043 22.5352L312.48 23.6602C312.434 23.7773 312.387 23.8711 312.34 23.9414C312.293 23.9883 312.246 24.0703 312.199 24.1875C312.105 24.4453 312.059 24.7266 312.059 25.0312C312.059 25.3359 312.023 25.6172 311.953 25.875C311.883 26.1562 311.777 26.4258 311.637 26.6836C311.496 26.9414 311.367 27.1992 311.25 27.457C311.133 27.7148 311.039 27.9844 310.969 28.2656C310.898 28.5234 310.816 28.7812 310.723 29.0391C310.91 28.8516 311.109 28.6875 311.32 28.5469C311.555 28.3828 311.777 28.207 311.988 28.0195C312.199 27.8086 312.398 27.5859 312.586 27.3516C312.773 27.1172 312.984 26.9062 313.219 26.7188C313.43 26.5312 313.652 26.3672 313.887 26.2266C314.145 26.0625 314.391 25.8984 314.625 25.7344C315 25.2188 315.328 24.6914 315.609 24.1523C315.75 23.8945 315.867 23.6016 315.961 23.2734C316.078 22.9453 316.219 22.6523 316.383 22.3945C316.523 22.1367 316.699 21.8906 316.91 21.6562C317.145 21.4219 317.344 21.1758 317.508 20.918C317.695 20.6602 317.848 20.3906 317.965 20.1094C318.105 19.8281 318.258 19.5586 318.422 19.3008C318.75 18.7852 319.113 18.293 319.512 17.8242L319.688 15.6094L320.953 14.1328L321.129 12.7969L322.008 11.5664L322.113 9.59766L321.516 7.83984ZM352.84 25.2422C352.629 25.4531 352.465 25.6172 352.348 25.7344C352.254 25.8516 352.16 25.9688 352.066 26.0859C351.996 26.1797 351.902 26.2852 351.785 26.4023C351.691 26.5195 351.539 26.6953 351.328 26.9297C351.141 27.1172 350.965 27.3164 350.801 27.5273C350.637 27.7383 350.449 27.9258 350.238 28.0898C349.957 28.0195 349.734 28.0547 349.57 28.1953C349.43 28.3359 349.289 28.5 349.148 28.6875C349.031 28.8516 348.914 29.0156 348.797 29.1797C348.703 29.3203 348.574 29.3789 348.41 29.3555C347.848 29.6602 347.285 29.9297 346.723 30.1641C346.16 30.375 345.621 30.6914 345.105 31.1133L344.824 30.832L341.168 32.5898C341.051 32.6367 340.934 32.707 340.816 32.8008C340.699 32.8945 340.582 32.9766 340.465 33.0469C339.949 33.3281 339.41 33.5859 338.848 33.8203C338.309 34.0312 337.77 34.2305 337.23 34.418L336.773 34.5586C336.961 35.0273 336.961 35.3555 336.773 35.543C336.586 35.7305 336.316 35.8711 335.965 35.9648C335.613 36.0352 335.227 36.082 334.805 36.1055C334.383 36.1289 334.055 36.2109 333.82 36.3516C333.539 36.3047 333.246 36.2812 332.941 36.2812C332.66 36.3047 332.367 36.3398 332.062 36.3867C331.734 36.4336 331.43 36.457 331.148 36.457C330.867 36.457 330.562 36.4219 330.234 36.3516H330.164C329.766 36.5391 329.414 36.5742 329.109 36.457C328.828 36.3633 328.57 36.1992 328.336 35.9648C328.102 35.707 327.879 35.4141 327.668 35.0859C327.48 34.7344 327.281 34.418 327.07 34.1367C326.93 33.9492 326.754 33.6797 326.543 33.3281C326.332 32.9766 326.156 32.6016 326.016 32.2031C325.852 31.8047 325.758 31.4062 325.734 31.0078C325.688 30.5859 325.77 30.2227 325.98 29.918C326.191 29.6133 326.367 29.2852 326.508 28.9336C326.625 28.582 326.684 28.1719 326.684 27.7031C326.684 27.5391 326.684 27.3867 326.684 27.2461C326.66 27.1055 326.648 26.9531 326.648 26.7891C326.766 26.7891 326.895 26.8008 327.035 26.8242C327.176 26.8242 327.305 26.8242 327.422 26.8242C327.562 26.8008 327.668 26.7539 327.738 26.6836C327.832 26.5898 327.879 26.4375 327.879 26.2266C327.879 26.1094 327.832 26.0156 327.738 25.9453C327.668 25.875 327.621 25.8047 327.598 25.7344C327.738 25.5234 327.867 25.3594 327.984 25.2422C328.125 25.1016 328.242 24.9727 328.336 24.8555C328.43 24.7148 328.5 24.5625 328.547 24.3984C328.594 24.2109 328.582 23.9648 328.512 23.6602C328.793 23.168 329.121 22.7344 329.496 22.3594C329.895 21.9609 330.305 21.5977 330.727 21.2695C331.148 20.918 331.582 20.5781 332.027 20.25C332.473 19.9219 332.895 19.5703 333.293 19.1953C333.738 19.3828 334.09 19.3828 334.348 19.1953C334.629 19.0078 334.875 18.8086 335.086 18.5977C335.297 18.3633 335.508 18.1758 335.719 18.0352C335.93 17.8945 336.211 17.9531 336.562 18.2109L336.633 18.2812C337.266 17.6484 337.898 17.3672 338.531 17.4375C339.188 17.5078 339.738 17.7188 340.184 18.0703C340.652 18.4219 340.957 18.832 341.098 19.3008C341.238 19.7461 341.109 20.0508 340.711 20.2148C340.969 20.4727 341.098 20.7773 341.098 21.1289C341.098 21.4805 341.004 21.7852 340.816 22.043C340.605 22.3242 340.418 22.6172 340.254 22.9219C340.113 23.2031 339.961 23.5078 339.797 23.8359C339.562 24.375 339.305 24.8906 339.023 25.3828C338.742 25.8516 338.344 26.25 337.828 26.5781C337.406 26.4609 337.113 26.5078 336.949 26.7188C336.809 26.9297 336.703 27.1641 336.633 27.4219C336.562 27.6562 336.48 27.8438 336.387 27.9844C336.293 28.125 336.094 28.0781 335.789 27.8438L335.719 27.7734L335.648 27.8438C335.461 28.0312 335.309 28.2422 335.191 28.4766C335.098 28.7109 334.957 28.8867 334.77 29.0039C334.559 28.9336 334.336 28.875 334.102 28.8281C333.867 28.7812 333.645 28.7344 333.434 28.6875C333.434 29.1797 333.34 29.5664 333.152 29.8477C332.965 30.1289 332.719 30.3633 332.414 30.5508C332.133 30.7148 331.805 30.8555 331.43 30.9727C331.055 31.0664 330.68 31.1953 330.305 31.3594C329.953 31.5 329.613 31.6875 329.285 31.9219C328.98 32.1328 328.734 32.4375 328.547 32.8359C328.781 33.0938 329.074 33.2461 329.426 33.293C329.777 33.3164 330.141 33.3164 330.516 33.293C330.891 33.2461 331.254 33.2227 331.605 33.2227C331.98 33.2227 332.309 33.3164 332.59 33.5039L332.625 33.5391L332.66 33.5039C333.223 33.4336 333.762 33.3047 334.277 33.1172C334.816 32.9062 335.332 32.6953 335.824 32.4844C336.34 32.25 336.855 32.0391 337.371 31.8516C337.91 31.6406 338.461 31.4883 339.023 31.3945C339.141 31.582 339.293 31.6875 339.48 31.7109C339.691 31.7344 339.891 31.7227 340.078 31.6758L340.113 31.6055C340.16 31.4414 340.207 31.3008 340.254 31.1836C340.301 31.043 340.371 30.8906 340.465 30.7266C340.629 30.4688 340.828 30.2695 341.062 30.1289C341.297 29.9883 341.543 29.8828 341.801 29.8125C342.082 29.7422 342.375 29.6953 342.68 29.6719C342.984 29.6484 343.289 29.6133 343.594 29.5664H343.664L343.699 29.4609C343.793 29.1797 343.91 28.9922 344.051 28.8984C344.215 28.7812 344.379 28.6992 344.543 28.6523C344.73 28.6055 344.918 28.5703 345.105 28.5469C345.316 28.5234 345.516 28.4531 345.703 28.3359C346.125 28.4766 346.477 28.4297 346.758 28.1953C347.039 27.9609 347.309 27.7148 347.566 27.457L347.848 27.8086L347.953 27.668C348.305 27.3398 348.562 27.0938 348.727 26.9297C348.914 26.7656 349.09 26.625 349.254 26.5078C349.418 26.3672 349.605 26.2383 349.816 26.1211C350.051 25.9805 350.367 25.7812 350.766 25.5234C351.094 25.3125 351.41 25.1016 351.715 24.8906C352.043 24.6797 352.359 24.4453 352.664 24.1875C352.781 24.2344 352.84 24.3281 352.84 24.4688C352.84 24.5859 352.84 24.7031 352.84 24.8203C352.816 24.8672 352.793 24.9375 352.77 25.0312C352.77 25.125 352.793 25.1953 352.84 25.2422ZM338.285 20.8477C338.262 20.8242 338.238 20.8125 338.215 20.8125C338.215 20.8125 338.203 20.8008 338.18 20.7773C337.688 20.5195 337.277 20.4023 336.949 20.4258C336.621 20.4258 336.316 20.5195 336.035 20.707C335.777 20.8711 335.531 21.0938 335.297 21.375C335.086 21.6328 334.852 21.8789 334.594 22.1133C334.359 22.3242 334.078 22.4883 333.75 22.6055C333.422 22.7227 333.023 22.7109 332.555 22.5703C332.484 22.9453 332.414 23.3203 332.344 23.6953C332.297 24.0469 332.262 24.4102 332.238 24.7852C331.84 24.9258 331.523 25.125 331.289 25.3828C331.078 25.6406 330.891 25.9219 330.727 26.2266C330.586 26.5312 330.445 26.8594 330.305 27.2109C330.188 27.5391 330.023 27.8555 329.812 28.1602L329.953 28.3359C330.047 28.2891 330.152 28.3242 330.27 28.4414C330.387 28.5586 330.469 28.6406 330.516 28.6875C330.773 28.3125 331.113 27.9961 331.535 27.7383C331.98 27.4805 332.426 27.2461 332.871 27.0352C333.34 26.8008 333.785 26.5547 334.207 26.2969C334.629 26.0391 334.945 25.6992 335.156 25.2773C335.906 25.0664 336.469 24.6445 336.844 24.0117C337.219 23.3789 337.535 22.7227 337.793 22.043C337.84 21.9023 337.922 21.7031 338.039 21.4453C338.18 21.1641 338.262 20.9648 338.285 20.8477Z" fill="black"/>
</svg>
