<svg width="750" height="250" viewBox="0 0 750 250" fill="none" xmlns="http://www.w3.org/2000/svg">
<rect width="250" height="250" fill="white"/>
<rect x="250" width="250" height="250" fill="#353A37"/>
<rect x="500" width="250" height="250" fill="#D3D3CF"/>
<path d="M581.528 241L585.824 214.818H588.381L584.085 241H581.528ZM569.614 233.739L570.023 231.182H589.557L589.148 233.739H569.614ZM572.324 241L576.619 214.818H579.176L574.881 241H572.324ZM571.148 224.636L571.557 222.08H591.091L590.682 224.636H571.148ZM602.961 241H594.881V214.818H603.319C605.859 214.818 608.032 215.342 609.839 216.391C611.646 217.43 613.031 218.926 613.994 220.878C614.957 222.821 615.438 225.148 615.438 227.858C615.438 230.585 614.952 232.933 613.981 234.902C613.009 236.862 611.594 238.371 609.737 239.428C607.879 240.476 605.62 241 602.961 241ZM598.052 238.188H602.756C604.921 238.188 606.715 237.77 608.138 236.935C609.562 236.099 610.623 234.911 611.322 233.368C612.021 231.825 612.37 229.989 612.37 227.858C612.37 225.744 612.025 223.925 611.335 222.399C610.644 220.865 609.613 219.689 608.241 218.871C606.869 218.044 605.16 217.631 603.114 217.631H598.052V238.188ZM629.143 241.358C627.455 241.358 625.951 241.068 624.63 240.489C623.317 239.909 622.273 239.104 621.498 238.072C620.731 237.033 620.313 235.827 620.245 234.455H623.467C623.535 235.298 623.825 236.027 624.336 236.641C624.847 237.246 625.516 237.714 626.343 238.047C627.17 238.379 628.086 238.545 629.092 238.545C630.217 238.545 631.214 238.349 632.083 237.957C632.952 237.565 633.634 237.02 634.129 236.321C634.623 235.622 634.87 234.812 634.87 233.892C634.87 232.929 634.631 232.081 634.154 231.348C633.677 230.607 632.978 230.027 632.058 229.609C631.137 229.192 630.012 228.983 628.683 228.983H626.586V226.17H628.683C629.722 226.17 630.634 225.983 631.418 225.608C632.211 225.233 632.829 224.705 633.272 224.023C633.724 223.341 633.95 222.54 633.95 221.619C633.95 220.733 633.754 219.962 633.362 219.305C632.969 218.649 632.415 218.138 631.7 217.771C630.992 217.405 630.157 217.222 629.194 217.222C628.29 217.222 627.438 217.388 626.637 217.72C625.844 218.044 625.197 218.517 624.694 219.139C624.191 219.753 623.918 220.494 623.876 221.364H620.808C620.859 219.991 621.272 218.79 622.048 217.759C622.823 216.719 623.837 215.909 625.09 215.33C626.352 214.75 627.737 214.46 629.245 214.46C630.864 214.46 632.254 214.788 633.413 215.445C634.572 216.092 635.462 216.949 636.085 218.014C636.707 219.08 637.018 220.23 637.018 221.466C637.018 222.94 636.63 224.197 635.854 225.237C635.087 226.277 634.043 226.997 632.722 227.398V227.602C634.376 227.875 635.667 228.578 636.596 229.712C637.525 230.837 637.989 232.23 637.989 233.892C637.989 235.315 637.602 236.594 636.826 237.727C636.059 238.852 635.011 239.739 633.681 240.386C632.352 241.034 630.839 241.358 629.143 241.358ZM651.758 241H643.678V214.818H652.116C654.656 214.818 656.829 215.342 658.636 216.391C660.442 217.43 661.827 218.926 662.79 220.878C663.754 222.821 664.235 225.148 664.235 227.858C664.235 230.585 663.749 232.933 662.778 234.902C661.806 236.862 660.391 238.371 658.533 239.428C656.675 240.476 654.417 241 651.758 241ZM646.849 238.188H651.553C653.718 238.188 655.512 237.77 656.935 236.935C658.359 236.099 659.42 234.911 660.119 233.368C660.817 231.825 661.167 229.989 661.167 227.858C661.167 225.744 660.822 223.925 660.131 222.399C659.441 220.865 658.41 219.689 657.038 218.871C655.665 218.044 653.957 217.631 651.911 217.631H646.849V238.188ZM677.94 241.358C676.252 241.358 674.748 241.068 673.427 240.489C672.114 239.909 671.07 239.104 670.295 238.072C669.528 237.033 669.11 235.827 669.042 234.455H672.263C672.332 235.298 672.621 236.027 673.133 236.641C673.644 237.246 674.313 237.714 675.14 238.047C675.967 238.379 676.883 238.545 677.888 238.545C679.013 238.545 680.011 238.349 680.88 237.957C681.749 237.565 682.431 237.02 682.925 236.321C683.42 235.622 683.667 234.812 683.667 233.892C683.667 232.929 683.428 232.081 682.951 231.348C682.474 230.607 681.775 230.027 680.854 229.609C679.934 229.192 678.809 228.983 677.479 228.983H675.383V226.17H677.479C678.519 226.17 679.431 225.983 680.215 225.608C681.008 225.233 681.626 224.705 682.069 224.023C682.521 223.341 682.746 222.54 682.746 221.619C682.746 220.733 682.55 219.962 682.158 219.305C681.766 218.649 681.212 218.138 680.496 217.771C679.789 217.405 678.954 217.222 677.991 217.222C677.087 217.222 676.235 217.388 675.434 217.72C674.641 218.044 673.994 218.517 673.491 219.139C672.988 219.753 672.715 220.494 672.673 221.364H669.604C669.656 219.991 670.069 218.79 670.844 217.759C671.62 216.719 672.634 215.909 673.887 215.33C675.148 214.75 676.533 214.46 678.042 214.46C679.661 214.46 681.05 214.788 682.21 215.445C683.369 216.092 684.259 216.949 684.881 218.014C685.504 219.08 685.815 220.23 685.815 221.466C685.815 222.94 685.427 224.197 684.651 225.237C683.884 226.277 682.84 226.997 681.519 227.398V227.602C683.173 227.875 684.464 228.578 685.393 229.712C686.322 230.837 686.786 232.23 686.786 233.892C686.786 235.315 686.398 236.594 685.623 237.727C684.856 238.852 683.808 239.739 682.478 240.386C681.148 241.034 679.636 241.358 677.94 241.358ZM713.543 223H710.373C710.185 222.088 709.857 221.287 709.388 220.597C708.928 219.906 708.366 219.327 707.701 218.858C707.045 218.381 706.316 218.023 705.515 217.784C704.714 217.545 703.879 217.426 703.009 217.426C701.424 217.426 699.988 217.827 698.701 218.628C697.423 219.429 696.404 220.609 695.646 222.169C694.896 223.729 694.521 225.642 694.521 227.909C694.521 230.176 694.896 232.089 695.646 233.649C696.404 235.209 697.423 236.389 698.701 237.19C699.988 237.991 701.424 238.392 703.009 238.392C703.879 238.392 704.714 238.273 705.515 238.034C706.316 237.795 707.045 237.442 707.701 236.973C708.366 236.496 708.928 235.912 709.388 235.222C709.857 234.523 710.185 233.722 710.373 232.818H713.543C713.305 234.156 712.87 235.354 712.239 236.411C711.609 237.467 710.825 238.366 709.887 239.108C708.95 239.841 707.897 240.399 706.729 240.783C705.57 241.166 704.33 241.358 703.009 241.358C700.776 241.358 698.79 240.812 697.052 239.722C695.313 238.631 693.945 237.08 692.948 235.068C691.951 233.057 691.452 230.67 691.452 227.909C691.452 225.148 691.951 222.761 692.948 220.75C693.945 218.739 695.313 217.188 697.052 216.097C698.79 215.006 700.776 214.46 703.009 214.46C704.33 214.46 705.57 214.652 706.729 215.036C707.897 215.419 708.95 215.982 709.887 216.723C710.825 217.456 711.609 218.351 712.239 219.408C712.87 220.456 713.305 221.653 713.543 223ZM718.667 241V214.818H734.365V217.631H721.837V226.477H733.189V229.29H721.837V241H718.667Z" fill="black"/>
<path d="M102.528 241L106.824 214.818H109.381L105.085 241H102.528ZM90.6136 233.739L91.0227 231.182H110.557L110.148 233.739H90.6136ZM93.3239 241L97.6193 214.818H100.176L95.8807 241H93.3239ZM92.1477 224.636L92.5568 222.08H112.091L111.682 224.636H92.1477ZM115.881 241V214.818H131.58V217.631H119.052V226.477H130.404V229.29H119.052V241H115.881ZM137.01 241V214.818H152.709V217.631H140.181V226.477H151.533V229.29H140.181V241H137.01ZM158.139 241V214.818H173.838V217.631H161.31V226.477H172.662V229.29H161.31V241H158.139ZM179.268 241V214.818H194.967V217.631H182.439V226.477H193.791V229.29H182.439V241H179.268ZM200.397 241V214.818H216.096V217.631H203.567V226.477H214.92V229.29H203.567V241H200.397ZM221.526 241V214.818H237.225V217.631H224.696V226.477H236.049V229.29H224.696V241H221.526Z" fill="black"/>
<path d="M341.528 241L345.824 214.818H348.381L344.085 241H341.528ZM329.614 233.739L330.023 231.182H349.557L349.148 233.739H329.614ZM332.324 241L336.619 214.818H339.176L334.881 241H332.324ZM331.148 224.636L331.557 222.08H351.091L350.682 224.636H331.148ZM363.268 241.358C361.58 241.358 360.076 241.068 358.755 240.489C357.442 239.909 356.398 239.104 355.623 238.072C354.856 237.033 354.438 235.827 354.37 234.455H357.592C357.66 235.298 357.95 236.027 358.461 236.641C358.972 237.246 359.641 237.714 360.468 238.047C361.295 238.379 362.211 238.545 363.217 238.545C364.342 238.545 365.339 238.349 366.208 237.957C367.077 237.565 367.759 237.02 368.254 236.321C368.748 235.622 368.995 234.812 368.995 233.892C368.995 232.929 368.756 232.081 368.279 231.348C367.802 230.607 367.103 230.027 366.183 229.609C365.262 229.192 364.137 228.983 362.808 228.983H360.711V226.17H362.808C363.847 226.17 364.759 225.983 365.543 225.608C366.336 225.233 366.954 224.705 367.397 224.023C367.849 223.341 368.075 222.54 368.075 221.619C368.075 220.733 367.879 219.962 367.487 219.305C367.094 218.649 366.54 218.138 365.825 217.771C365.117 217.405 364.282 217.222 363.319 217.222C362.415 217.222 361.563 217.388 360.762 217.72C359.969 218.044 359.322 218.517 358.819 219.139C358.316 219.753 358.043 220.494 358.001 221.364H354.933C354.984 219.991 355.397 218.79 356.173 217.759C356.948 216.719 357.962 215.909 359.215 215.33C360.477 214.75 361.862 214.46 363.37 214.46C364.989 214.46 366.379 214.788 367.538 215.445C368.697 216.092 369.587 216.949 370.21 218.014C370.832 219.08 371.143 220.23 371.143 221.466C371.143 222.94 370.755 224.197 369.979 225.237C369.212 226.277 368.168 226.997 366.847 227.398V227.602C368.501 227.875 369.792 228.578 370.721 229.712C371.65 230.837 372.114 232.23 372.114 233.892C372.114 235.315 371.727 236.594 370.951 237.727C370.184 238.852 369.136 239.739 367.806 240.386C366.477 241.034 364.964 241.358 363.268 241.358ZM385.525 241.358C384.025 241.358 382.674 241.06 381.472 240.463C380.271 239.866 379.308 239.048 378.583 238.009C377.859 236.969 377.462 235.784 377.394 234.455H380.462C380.582 235.639 381.119 236.619 382.073 237.395C383.036 238.162 384.187 238.545 385.525 238.545C386.599 238.545 387.553 238.294 388.388 237.791C389.232 237.288 389.893 236.598 390.37 235.72C390.856 234.834 391.099 233.832 391.099 232.716C391.099 231.574 390.847 230.555 390.344 229.661C389.85 228.757 389.168 228.045 388.299 227.526C387.43 227.006 386.437 226.741 385.32 226.733C384.519 226.724 383.697 226.848 382.853 227.104C382.009 227.351 381.315 227.67 380.769 228.062L377.803 227.705L379.388 214.818H392.991V217.631H382.048L381.127 225.352H381.281C381.817 224.926 382.491 224.572 383.3 224.291C384.11 224.01 384.954 223.869 385.832 223.869C387.434 223.869 388.862 224.253 390.114 225.02C391.376 225.778 392.364 226.818 393.08 228.139C393.805 229.46 394.167 230.969 394.167 232.665C394.167 234.335 393.792 235.827 393.042 237.139C392.3 238.443 391.278 239.474 389.974 240.233C388.67 240.983 387.187 241.358 385.525 241.358ZM408.092 241.358C406.404 241.358 404.9 241.068 403.579 240.489C402.267 239.909 401.223 239.104 400.447 238.072C399.68 237.033 399.262 235.827 399.194 234.455H402.416C402.484 235.298 402.774 236.027 403.285 236.641C403.797 237.246 404.466 237.714 405.292 238.047C406.119 238.379 407.035 238.545 408.041 238.545C409.166 238.545 410.163 238.349 411.032 237.957C411.902 237.565 412.583 237.02 413.078 236.321C413.572 235.622 413.819 234.812 413.819 233.892C413.819 232.929 413.581 232.081 413.103 231.348C412.626 230.607 411.927 230.027 411.007 229.609C410.086 229.192 408.961 228.983 407.632 228.983H405.535V226.17H407.632C408.672 226.17 409.583 225.983 410.368 225.608C411.16 225.233 411.778 224.705 412.221 224.023C412.673 223.341 412.899 222.54 412.899 221.619C412.899 220.733 412.703 219.962 412.311 219.305C411.919 218.649 411.365 218.138 410.649 217.771C409.941 217.405 409.106 217.222 408.143 217.222C407.24 217.222 406.387 217.388 405.586 217.72C404.794 218.044 404.146 218.517 403.643 219.139C403.14 219.753 402.868 220.494 402.825 221.364H399.757C399.808 219.991 400.221 218.79 400.997 217.759C401.772 216.719 402.787 215.909 404.039 215.33C405.301 214.75 406.686 214.46 408.194 214.46C409.814 214.46 411.203 214.788 412.362 215.445C413.521 216.092 414.412 216.949 415.034 218.014C415.656 219.08 415.967 220.23 415.967 221.466C415.967 222.94 415.579 224.197 414.804 225.237C414.037 226.277 412.993 226.997 411.672 227.398V227.602C413.325 227.875 414.616 228.578 415.545 229.712C416.474 230.837 416.939 232.23 416.939 233.892C416.939 235.315 416.551 236.594 415.775 237.727C415.008 238.852 413.96 239.739 412.63 240.386C411.301 241.034 409.788 241.358 408.092 241.358ZM423.701 241H420.377L429.991 214.818H433.264L442.877 241H439.554L431.73 218.96H431.525L423.701 241ZM424.929 230.773H438.326V233.585H424.929V230.773ZM455.342 241.358C453.654 241.358 452.15 241.068 450.829 240.489C449.517 239.909 448.473 239.104 447.697 238.072C446.93 237.033 446.512 235.827 446.444 234.455H449.666C449.734 235.298 450.024 236.027 450.535 236.641C451.047 237.246 451.716 237.714 452.542 238.047C453.369 238.379 454.285 238.545 455.291 238.545C456.416 238.545 457.413 238.349 458.282 237.957C459.152 237.565 459.833 237.02 460.328 236.321C460.822 235.622 461.069 234.812 461.069 233.892C461.069 232.929 460.831 232.081 460.353 231.348C459.876 230.607 459.177 230.027 458.257 229.609C457.336 229.192 456.211 228.983 454.882 228.983H452.785V226.17H454.882C455.922 226.17 456.833 225.983 457.618 225.608C458.41 225.233 459.028 224.705 459.471 224.023C459.923 223.341 460.149 222.54 460.149 221.619C460.149 220.733 459.953 219.962 459.561 219.305C459.169 218.649 458.615 218.138 457.899 217.771C457.191 217.405 456.356 217.222 455.393 217.222C454.49 217.222 453.637 217.388 452.836 217.72C452.044 218.044 451.396 218.517 450.893 219.139C450.39 219.753 450.118 220.494 450.075 221.364H447.007C447.058 219.991 447.471 218.79 448.247 217.759C449.022 216.719 450.037 215.909 451.289 215.33C452.551 214.75 453.936 214.46 455.444 214.46C457.064 214.46 458.453 214.788 459.612 215.445C460.771 216.092 461.662 216.949 462.284 218.014C462.906 219.08 463.217 220.23 463.217 221.466C463.217 222.94 462.829 224.197 462.054 225.237C461.287 226.277 460.243 226.997 458.922 227.398V227.602C460.575 227.875 461.866 228.578 462.795 229.712C463.724 230.837 464.189 232.23 464.189 233.892C464.189 235.315 463.801 236.594 463.025 237.727C462.258 238.852 461.21 239.739 459.88 240.386C458.551 241.034 457.038 241.358 455.342 241.358ZM470.235 241L481.946 217.835V217.631H468.446V214.818H485.218V217.784L473.559 241H470.235Z" fill="white"/>
</svg>
