<svg width="250" height="36" viewBox="0 0 250 36" fill="none" xmlns="http://www.w3.org/2000/svg">
<path d="M0.512 3.512C1.016 3.536 1.676 3.56 2.492 3.584C3.308 3.608 4.112 3.62 4.904 3.62C6.032 3.62 7.112 3.608 8.144 3.584C9.176 3.56 9.908 3.548 10.34 3.548C13.244 3.548 15.416 4.208 16.856 5.528C18.296 6.848 19.016 8.552 19.016 10.64C19.016 11.504 18.872 12.416 18.584 13.376C18.296 14.312 17.792 15.188 17.072 16.004C16.376 16.796 15.416 17.444 14.192 17.948C12.968 18.452 11.42 18.704 9.548 18.704H6.092V17.984H9.188C10.892 17.984 12.188 17.66 13.076 17.012C13.988 16.364 14.6 15.512 14.912 14.456C15.248 13.4 15.416 12.26 15.416 11.036C15.416 8.756 14.96 7.052 14.048 5.924C13.16 4.796 11.624 4.232 9.44 4.232C8.336 4.232 7.616 4.436 7.28 4.844C6.944 5.252 6.776 6.08 6.776 7.328V25.184C6.776 26.048 6.86 26.696 7.028 27.128C7.22 27.56 7.58 27.848 8.108 27.992C8.636 28.136 9.404 28.232 10.412 28.28V29C9.788 28.952 8.996 28.928 8.036 28.928C7.076 28.904 6.104 28.892 5.12 28.892C4.184 28.892 3.308 28.904 2.492 28.928C1.676 28.928 1.016 28.952 0.512 29V28.28C1.328 28.232 1.94 28.136 2.348 27.992C2.78 27.848 3.068 27.56 3.212 27.128C3.356 26.696 3.428 26.048 3.428 25.184V7.328C3.428 6.44 3.356 5.792 3.212 5.384C3.068 4.952 2.78 4.664 2.348 4.52C1.94 4.352 1.328 4.256 0.512 4.232V3.512ZM26.5102 0.775999V25.652C26.5102 26.66 26.7142 27.344 27.1222 27.704C27.5542 28.064 28.2622 28.244 29.2462 28.244V29C28.8382 28.976 28.2142 28.952 27.3742 28.928C26.5582 28.88 25.7302 28.856 24.8902 28.856C24.0742 28.856 23.2462 28.88 22.4062 28.928C21.5662 28.952 20.9422 28.976 20.5342 29V28.244C21.5182 28.244 22.2142 28.064 22.6222 27.704C23.0542 27.344 23.2702 26.66 23.2702 25.652V5.096C23.2702 4.016 23.0782 3.224 22.6942 2.72C22.3102 2.192 21.5902 1.928 20.5342 1.928V1.172C21.3022 1.244 22.0462 1.28 22.7662 1.28C23.4622 1.28 24.1222 1.244 24.7462 1.172C25.3942 1.076 25.9822 0.943999 26.5102 0.775999ZM36.199 29.252C35.215 29.252 34.363 29.072 33.643 28.712C32.923 28.328 32.371 27.8 31.987 27.128C31.627 26.456 31.447 25.676 31.447 24.788C31.447 23.732 31.687 22.868 32.167 22.196C32.671 21.524 33.307 20.984 34.075 20.576C34.843 20.168 35.647 19.832 36.487 19.568C37.351 19.28 38.167 19.016 38.935 18.776C39.703 18.512 40.327 18.212 40.807 17.876C41.311 17.54 41.563 17.096 41.563 16.544V14.312C41.563 13.304 41.407 12.536 41.095 12.008C40.807 11.48 40.411 11.132 39.907 10.964C39.403 10.772 38.839 10.676 38.215 10.676C37.615 10.676 36.967 10.76 36.271 10.928C35.599 11.096 35.059 11.444 34.651 11.972C35.107 12.068 35.503 12.308 35.839 12.692C36.175 13.076 36.343 13.568 36.343 14.168C36.343 14.768 36.151 15.248 35.767 15.608C35.383 15.944 34.891 16.112 34.291 16.112C33.595 16.112 33.079 15.896 32.743 15.464C32.431 15.008 32.275 14.504 32.275 13.952C32.275 13.328 32.431 12.824 32.743 12.44C33.055 12.056 33.451 11.696 33.931 11.36C34.483 10.976 35.191 10.652 36.055 10.388C36.943 10.1 37.939 9.956 39.043 9.956C40.027 9.956 40.867 10.076 41.563 10.316C42.259 10.532 42.835 10.856 43.291 11.288C43.915 11.864 44.323 12.572 44.515 13.412C44.707 14.228 44.803 15.212 44.803 16.364V26.372C44.803 26.972 44.887 27.404 45.055 27.668C45.247 27.932 45.535 28.064 45.919 28.064C46.183 28.064 46.435 28.004 46.675 27.884C46.915 27.764 47.203 27.572 47.539 27.308L47.935 27.92C47.431 28.304 46.951 28.628 46.495 28.892C46.039 29.132 45.427 29.252 44.659 29.252C43.963 29.252 43.387 29.132 42.931 28.892C42.475 28.652 42.127 28.304 41.887 27.848C41.671 27.368 41.563 26.768 41.563 26.048C40.915 27.128 40.135 27.932 39.223 28.46C38.335 28.988 37.327 29.252 36.199 29.252ZM37.495 27.812C38.287 27.812 39.019 27.584 39.691 27.128C40.387 26.672 41.011 25.988 41.563 25.076V18.02C41.275 18.428 40.855 18.776 40.303 19.064C39.751 19.328 39.151 19.604 38.503 19.892C37.855 20.156 37.231 20.48 36.631 20.864C36.055 21.224 35.575 21.704 35.191 22.304C34.807 22.904 34.615 23.684 34.615 24.644C34.615 25.604 34.867 26.372 35.371 26.948C35.899 27.524 36.607 27.812 37.495 27.812ZM65.5457 10.46V11.18C65.0897 11.228 64.6697 11.432 64.2857 11.792C63.9017 12.152 63.5417 12.788 63.2057 13.7L57.3017 29.18H56.6897L50.0657 13.232C49.6097 12.296 49.1537 11.732 48.6977 11.54C48.2657 11.324 47.9057 11.216 47.6177 11.216V10.46C48.1457 10.532 48.6977 10.592 49.2737 10.64C49.8497 10.664 50.4737 10.676 51.1457 10.676C51.8897 10.676 52.6697 10.652 53.4857 10.604C54.3257 10.556 55.1057 10.508 55.8257 10.46V11.216C55.2257 11.216 54.6857 11.264 54.2057 11.36C53.7497 11.432 53.4617 11.684 53.3417 12.116C53.2217 12.524 53.3657 13.232 53.7737 14.24L58.2017 25.22L57.9857 25.292L62.0897 14.564C62.4017 13.772 62.5217 13.148 62.4497 12.692C62.4017 12.212 62.1617 11.852 61.7297 11.612C61.2977 11.372 60.6497 11.228 59.7857 11.18V10.46C60.2177 10.484 60.5897 10.508 60.9017 10.532C61.2137 10.532 61.5137 10.544 61.8017 10.568C62.1137 10.568 62.4497 10.568 62.8097 10.568C63.3617 10.568 63.8537 10.556 64.2857 10.532C64.7417 10.508 65.1617 10.484 65.5457 10.46ZM57.3017 29.18L56.0777 32.312C55.8377 32.912 55.5857 33.416 55.3217 33.824C55.0817 34.232 54.8177 34.568 54.5297 34.832C54.1457 35.192 53.6897 35.432 53.1617 35.552C52.6337 35.696 52.1537 35.768 51.7217 35.768C51.2657 35.768 50.8457 35.684 50.4617 35.516C50.1017 35.348 49.8137 35.096 49.5977 34.76C49.3817 34.448 49.2737 34.064 49.2737 33.608C49.2737 33.032 49.4417 32.564 49.7777 32.204C50.1137 31.868 50.5817 31.7 51.1817 31.7C51.6857 31.7 52.1177 31.844 52.4777 32.132C52.8377 32.42 53.0177 32.84 53.0177 33.392C53.0177 33.8 52.9217 34.136 52.7297 34.4C52.5377 34.664 52.3097 34.868 52.0457 35.012C52.0937 35.036 52.1297 35.048 52.1537 35.048C52.2017 35.048 52.2377 35.048 52.2617 35.048C52.9097 35.048 53.4857 34.82 53.9897 34.364C54.4937 33.932 54.9377 33.224 55.3217 32.24L56.6177 28.892L57.3017 29.18ZM75.5923 0.847998C76.2643 0.847998 76.8523 0.943998 77.3563 1.136C77.8843 1.304 78.3403 1.532 78.7243 1.82C79.0843 2.108 79.3603 2.444 79.5523 2.828C79.7443 3.212 79.8403 3.62 79.8403 4.052C79.8403 4.604 79.6603 5.06 79.3003 5.42C78.9403 5.78 78.4843 5.96 77.9323 5.96C77.4043 5.96 76.9363 5.792 76.5283 5.456C76.1443 5.096 75.9523 4.616 75.9523 4.016C75.9523 3.512 76.0843 3.104 76.3483 2.792C76.6363 2.48 77.0083 2.276 77.4643 2.18C77.3923 1.964 77.2003 1.784 76.8883 1.64C76.6003 1.472 76.2043 1.388 75.7003 1.388C75.1483 1.388 74.6683 1.508 74.2603 1.748C73.8763 1.988 73.5763 2.312 73.3603 2.72C73.0723 3.224 72.8923 3.98 72.8203 4.988C72.7483 5.972 72.7123 7.496 72.7123 9.56V10.496H76.5643V11.216H72.7123V25.292C72.7123 26.468 73.0483 27.26 73.7203 27.668C74.4163 28.052 75.3523 28.244 76.5283 28.244V29C75.9763 28.976 75.1963 28.952 74.1883 28.928C73.1803 28.88 72.1123 28.856 70.9843 28.856C70.1683 28.856 69.3523 28.88 68.5363 28.928C67.7443 28.952 67.1443 28.976 66.7363 29V28.244C67.7203 28.244 68.4163 28.064 68.8243 27.704C69.2563 27.344 69.4723 26.66 69.4723 25.652V11.216H66.5923V10.496H69.4723C69.4723 9.08 69.5323 7.892 69.6523 6.932C69.7723 5.972 69.9643 5.156 70.2283 4.484C70.4923 3.788 70.8523 3.176 71.3083 2.648C71.7883 2.096 72.4003 1.664 73.1443 1.352C73.8883 1.016 74.7043 0.847998 75.5923 0.847998ZM83.7654 29.252C82.7814 29.252 81.9294 29.072 81.2094 28.712C80.4894 28.328 79.9374 27.8 79.5534 27.128C79.1934 26.456 79.0134 25.676 79.0134 24.788C79.0134 23.732 79.2534 22.868 79.7334 22.196C80.2374 21.524 80.8734 20.984 81.6414 20.576C82.4094 20.168 83.2134 19.832 84.0534 19.568C84.9174 19.28 85.7334 19.016 86.5014 18.776C87.2694 18.512 87.8934 18.212 88.3734 17.876C88.8774 17.54 89.1294 17.096 89.1294 16.544V14.312C89.1294 13.304 88.9734 12.536 88.6614 12.008C88.3734 11.48 87.9774 11.132 87.4734 10.964C86.9694 10.772 86.4054 10.676 85.7814 10.676C85.1814 10.676 84.5334 10.76 83.8374 10.928C83.1654 11.096 82.6254 11.444 82.2174 11.972C82.6734 12.068 83.0694 12.308 83.4054 12.692C83.7414 13.076 83.9094 13.568 83.9094 14.168C83.9094 14.768 83.7174 15.248 83.3334 15.608C82.9494 15.944 82.4574 16.112 81.8574 16.112C81.1614 16.112 80.6454 15.896 80.3094 15.464C79.9974 15.008 79.8414 14.504 79.8414 13.952C79.8414 13.328 79.9974 12.824 80.3094 12.44C80.6214 12.056 81.0174 11.696 81.4974 11.36C82.0494 10.976 82.7574 10.652 83.6214 10.388C84.5094 10.1 85.5054 9.956 86.6094 9.956C87.5934 9.956 88.4334 10.076 89.1294 10.316C89.8254 10.532 90.4014 10.856 90.8574 11.288C91.4814 11.864 91.8894 12.572 92.0814 13.412C92.2734 14.228 92.3694 15.212 92.3694 16.364V26.372C92.3694 26.972 92.4534 27.404 92.6214 27.668C92.8134 27.932 93.1014 28.064 93.4854 28.064C93.7494 28.064 94.0014 28.004 94.2414 27.884C94.4814 27.764 94.7694 27.572 95.1054 27.308L95.5014 27.92C94.9974 28.304 94.5174 28.628 94.0614 28.892C93.6054 29.132 92.9934 29.252 92.2254 29.252C91.5294 29.252 90.9534 29.132 90.4974 28.892C90.0414 28.652 89.6934 28.304 89.4534 27.848C89.2374 27.368 89.1294 26.768 89.1294 26.048C88.4814 27.128 87.7014 27.932 86.7894 28.46C85.9014 28.988 84.8934 29.252 83.7654 29.252ZM85.0614 27.812C85.8534 27.812 86.5854 27.584 87.2574 27.128C87.9534 26.672 88.5774 25.988 89.1294 25.076V18.02C88.8414 18.428 88.4214 18.776 87.8694 19.064C87.3174 19.328 86.7174 19.604 86.0694 19.892C85.4214 20.156 84.7974 20.48 84.1974 20.864C83.6214 21.224 83.1414 21.704 82.7574 22.304C82.3734 22.904 82.1814 23.684 82.1814 24.644C82.1814 25.604 82.4334 26.372 82.9374 26.948C83.4654 27.524 84.1734 27.812 85.0614 27.812ZM100.687 1.46C101.311 1.46 101.851 1.688 102.307 2.144C102.763 2.6 102.991 3.14 102.991 3.764C102.991 4.388 102.763 4.928 102.307 5.384C101.851 5.84 101.311 6.068 100.687 6.068C100.063 6.068 99.5231 5.84 99.0671 5.384C98.6111 4.928 98.3831 4.388 98.3831 3.764C98.3831 3.14 98.6111 2.6 99.0671 2.144C99.5231 1.688 100.063 1.46 100.687 1.46ZM102.559 10.064V25.652C102.559 26.66 102.763 27.344 103.171 27.704C103.603 28.064 104.311 28.244 105.295 28.244V29C104.887 28.976 104.263 28.952 103.423 28.928C102.607 28.88 101.779 28.856 100.939 28.856C100.123 28.856 99.2951 28.88 98.4551 28.928C97.6151 28.952 96.9911 28.976 96.5831 29V28.244C97.5671 28.244 98.2631 28.064 98.6711 27.704C99.1031 27.344 99.3191 26.66 99.3191 25.652V14.384C99.3191 13.304 99.1271 12.512 98.7431 12.008C98.3591 11.48 97.6391 11.216 96.5831 11.216V10.46C97.3511 10.532 98.0951 10.568 98.8151 10.568C99.5111 10.568 100.171 10.532 100.795 10.46C101.443 10.364 102.031 10.232 102.559 10.064ZM118.326 9.956C118.974 9.956 119.538 10.088 120.018 10.352C120.522 10.616 120.906 10.964 121.17 11.396C121.458 11.804 121.602 12.272 121.602 12.8C121.602 13.4 121.41 13.928 121.026 14.384C120.666 14.84 120.174 15.068 119.55 15.068C119.046 15.068 118.602 14.912 118.218 14.6C117.834 14.264 117.642 13.796 117.642 13.196C117.642 12.74 117.762 12.356 118.002 12.044C118.266 11.708 118.554 11.444 118.866 11.252C118.698 11.012 118.446 10.892 118.11 10.892C117.366 10.892 116.682 11.12 116.058 11.576C115.434 12.008 114.906 12.572 114.474 13.268C114.042 13.964 113.706 14.708 113.466 15.5C113.226 16.268 113.106 16.988 113.106 17.66V25.292C113.106 26.468 113.442 27.26 114.114 27.668C114.81 28.052 115.746 28.244 116.922 28.244V29C116.37 28.976 115.59 28.952 114.582 28.928C113.574 28.88 112.506 28.856 111.378 28.856C110.562 28.856 109.746 28.88 108.93 28.928C108.138 28.952 107.538 28.976 107.13 29V28.244C108.114 28.244 108.81 28.064 109.218 27.704C109.65 27.344 109.866 26.66 109.866 25.652V14.384C109.866 13.304 109.674 12.512 109.29 12.008C108.906 11.48 108.186 11.216 107.13 11.216V10.46C107.898 10.532 108.642 10.568 109.362 10.568C110.058 10.568 110.718 10.532 111.342 10.46C111.99 10.364 112.578 10.232 113.106 10.064V14.564C113.37 13.868 113.742 13.172 114.222 12.476C114.726 11.756 115.326 11.156 116.022 10.676C116.718 10.196 117.486 9.956 118.326 9.956ZM141.649 3.512C145.945 3.512 149.137 4.592 151.225 6.752C153.313 8.888 154.357 11.96 154.357 15.968C154.357 18.584 153.841 20.876 152.809 22.844C151.801 24.788 150.325 26.3 148.381 27.38C146.437 28.46 144.085 29 141.325 29C140.965 29 140.485 28.988 139.885 28.964C139.285 28.94 138.661 28.928 138.013 28.928C137.389 28.904 136.813 28.892 136.285 28.892C135.445 28.892 134.617 28.904 133.801 28.928C132.985 28.928 132.325 28.952 131.821 29V28.28C132.637 28.232 133.249 28.136 133.657 27.992C134.089 27.848 134.377 27.56 134.521 27.128C134.665 26.696 134.737 26.048 134.737 25.184V7.328C134.737 6.44 134.665 5.792 134.521 5.384C134.377 4.952 134.089 4.664 133.657 4.52C133.249 4.352 132.637 4.256 131.821 4.232V3.512C132.325 3.536 132.985 3.572 133.801 3.62C134.617 3.644 135.421 3.644 136.213 3.62C137.053 3.596 138.001 3.572 139.057 3.548C140.113 3.524 140.977 3.512 141.649 3.512ZM140.749 4.16C139.645 4.16 138.925 4.364 138.589 4.772C138.253 5.18 138.085 6.008 138.085 7.256V25.256C138.085 26.504 138.253 27.332 138.589 27.74C138.949 28.148 139.681 28.352 140.785 28.352C143.401 28.352 145.429 27.884 146.869 26.948C148.309 25.988 149.317 24.596 149.893 22.772C150.469 20.948 150.757 18.728 150.757 16.112C150.757 13.424 150.433 11.204 149.785 9.452C149.161 7.676 148.117 6.356 146.653 5.492C145.213 4.604 143.245 4.16 140.749 4.16ZM161.472 1.46C162.096 1.46 162.636 1.688 163.092 2.144C163.548 2.6 163.776 3.14 163.776 3.764C163.776 4.388 163.548 4.928 163.092 5.384C162.636 5.84 162.096 6.068 161.472 6.068C160.848 6.068 160.308 5.84 159.852 5.384C159.396 4.928 159.168 4.388 159.168 3.764C159.168 3.14 159.396 2.6 159.852 2.144C160.308 1.688 160.848 1.46 161.472 1.46ZM163.344 10.064V25.652C163.344 26.66 163.548 27.344 163.956 27.704C164.388 28.064 165.096 28.244 166.08 28.244V29C165.672 28.976 165.048 28.952 164.208 28.928C163.392 28.88 162.564 28.856 161.724 28.856C160.908 28.856 160.08 28.88 159.24 28.928C158.4 28.952 157.776 28.976 157.368 29V28.244C158.352 28.244 159.048 28.064 159.456 27.704C159.888 27.344 160.104 26.66 160.104 25.652V14.384C160.104 13.304 159.912 12.512 159.528 12.008C159.144 11.48 158.424 11.216 157.368 11.216V10.46C158.136 10.532 158.88 10.568 159.6 10.568C160.296 10.568 160.956 10.532 161.58 10.46C162.228 10.364 162.816 10.232 163.344 10.064ZM174.359 9.956C175.319 9.956 176.135 10.112 176.807 10.424C177.479 10.736 177.971 11.024 178.283 11.288C179.075 11.936 179.555 11.504 179.723 9.992H180.551C180.503 10.664 180.467 11.468 180.443 12.404C180.419 13.316 180.407 14.552 180.407 16.112H179.579C179.435 15.224 179.183 14.36 178.823 13.52C178.487 12.68 177.983 11.996 177.311 11.468C176.639 10.916 175.763 10.64 174.683 10.64C173.843 10.64 173.135 10.88 172.559 11.36C172.007 11.816 171.731 12.5 171.731 13.412C171.731 14.132 171.947 14.756 172.379 15.284C172.811 15.788 173.375 16.268 174.071 16.724C174.767 17.156 175.523 17.636 176.339 18.164C177.251 18.74 178.079 19.328 178.823 19.928C179.567 20.528 180.155 21.188 180.587 21.908C181.043 22.628 181.271 23.48 181.271 24.464C181.271 25.568 180.983 26.492 180.407 27.236C179.831 27.98 179.075 28.544 178.139 28.928C177.227 29.312 176.219 29.504 175.115 29.504C174.587 29.504 174.083 29.456 173.603 29.36C173.147 29.288 172.703 29.168 172.271 29C172.031 28.88 171.779 28.736 171.515 28.568C171.275 28.4 171.035 28.22 170.795 28.028C170.555 27.836 170.339 27.848 170.147 28.064C169.955 28.256 169.811 28.652 169.715 29.252H168.887C168.935 28.484 168.971 27.548 168.995 26.444C169.019 25.34 169.031 23.876 169.031 22.052H169.859C170.027 23.396 170.267 24.572 170.579 25.58C170.891 26.588 171.383 27.38 172.055 27.956C172.727 28.508 173.663 28.784 174.863 28.784C175.343 28.784 175.823 28.676 176.303 28.46C176.807 28.244 177.227 27.884 177.563 27.38C177.899 26.876 178.067 26.204 178.067 25.364C178.067 24.308 177.683 23.444 176.915 22.772C176.147 22.1 175.175 21.392 173.999 20.648C173.135 20.096 172.319 19.544 171.551 18.992C170.807 18.44 170.195 17.816 169.715 17.12C169.259 16.424 169.031 15.584 169.031 14.6C169.031 13.52 169.271 12.644 169.751 11.972C170.255 11.276 170.915 10.772 171.731 10.46C172.547 10.124 173.423 9.956 174.359 9.956ZM189.741 10.064V32.168C189.741 33.2 190.041 33.884 190.641 34.22C191.265 34.58 192.117 34.76 193.197 34.76V35.516C192.669 35.492 191.937 35.456 191.001 35.408C190.065 35.384 189.069 35.372 188.013 35.372C187.269 35.372 186.525 35.384 185.781 35.408C185.061 35.456 184.509 35.492 184.125 35.516V34.76C184.989 34.76 185.601 34.604 185.961 34.292C186.321 33.98 186.501 33.392 186.501 32.528V14.384C186.501 13.304 186.309 12.512 185.925 12.008C185.541 11.48 184.821 11.216 183.765 11.216V10.46C184.533 10.532 185.277 10.568 185.997 10.568C186.693 10.568 187.353 10.532 187.977 10.46C188.625 10.364 189.213 10.232 189.741 10.064ZM195.501 9.956C196.773 9.956 197.913 10.304 198.921 11C199.929 11.672 200.721 12.668 201.297 13.988C201.897 15.308 202.197 16.94 202.197 18.884C202.197 20.18 202.041 21.464 201.729 22.736C201.417 23.984 200.925 25.124 200.253 26.156C199.605 27.164 198.753 27.98 197.697 28.604C196.665 29.204 195.417 29.504 193.953 29.504C192.825 29.504 191.841 29.24 191.001 28.712C190.185 28.184 189.633 27.548 189.345 26.804L189.705 26.3C190.041 26.972 190.521 27.536 191.145 27.992C191.793 28.448 192.597 28.676 193.557 28.676C194.901 28.676 195.945 28.256 196.689 27.416C197.433 26.576 197.949 25.46 198.237 24.068C198.549 22.652 198.705 21.092 198.705 19.388C198.705 17.468 198.549 15.896 198.237 14.672C197.925 13.448 197.457 12.536 196.833 11.936C196.209 11.336 195.441 11.036 194.529 11.036C193.353 11.036 192.285 11.528 191.325 12.512C190.365 13.472 189.753 14.936 189.489 16.904L189.057 16.4C189.321 14.36 190.041 12.776 191.217 11.648C192.417 10.52 193.845 9.956 195.501 9.956ZM210.659 0.775999V25.652C210.659 26.66 210.863 27.344 211.271 27.704C211.703 28.064 212.411 28.244 213.395 28.244V29C212.987 28.976 212.363 28.952 211.523 28.928C210.707 28.88 209.879 28.856 209.039 28.856C208.223 28.856 207.395 28.88 206.555 28.928C205.715 28.952 205.091 28.976 204.683 29V28.244C205.667 28.244 206.363 28.064 206.771 27.704C207.203 27.344 207.419 26.66 207.419 25.652V5.096C207.419 4.016 207.227 3.224 206.843 2.72C206.459 2.192 205.739 1.928 204.683 1.928V1.172C205.451 1.244 206.195 1.28 206.915 1.28C207.611 1.28 208.271 1.244 208.895 1.172C209.543 1.076 210.131 0.943999 210.659 0.775999ZM220.347 29.252C219.363 29.252 218.511 29.072 217.791 28.712C217.071 28.328 216.519 27.8 216.135 27.128C215.775 26.456 215.595 25.676 215.595 24.788C215.595 23.732 215.835 22.868 216.315 22.196C216.819 21.524 217.455 20.984 218.223 20.576C218.991 20.168 219.795 19.832 220.635 19.568C221.499 19.28 222.315 19.016 223.083 18.776C223.851 18.512 224.475 18.212 224.955 17.876C225.459 17.54 225.711 17.096 225.711 16.544V14.312C225.711 13.304 225.555 12.536 225.243 12.008C224.955 11.48 224.559 11.132 224.055 10.964C223.551 10.772 222.987 10.676 222.363 10.676C221.763 10.676 221.115 10.76 220.419 10.928C219.747 11.096 219.207 11.444 218.799 11.972C219.255 12.068 219.651 12.308 219.987 12.692C220.323 13.076 220.491 13.568 220.491 14.168C220.491 14.768 220.299 15.248 219.915 15.608C219.531 15.944 219.039 16.112 218.439 16.112C217.743 16.112 217.227 15.896 216.891 15.464C216.579 15.008 216.423 14.504 216.423 13.952C216.423 13.328 216.579 12.824 216.891 12.44C217.203 12.056 217.599 11.696 218.079 11.36C218.631 10.976 219.339 10.652 220.203 10.388C221.091 10.1 222.087 9.956 223.191 9.956C224.175 9.956 225.015 10.076 225.711 10.316C226.407 10.532 226.983 10.856 227.439 11.288C228.063 11.864 228.471 12.572 228.663 13.412C228.855 14.228 228.951 15.212 228.951 16.364V26.372C228.951 26.972 229.035 27.404 229.203 27.668C229.395 27.932 229.683 28.064 230.067 28.064C230.331 28.064 230.583 28.004 230.823 27.884C231.063 27.764 231.351 27.572 231.687 27.308L232.083 27.92C231.579 28.304 231.099 28.628 230.643 28.892C230.187 29.132 229.575 29.252 228.807 29.252C228.111 29.252 227.535 29.132 227.079 28.892C226.623 28.652 226.275 28.304 226.035 27.848C225.819 27.368 225.711 26.768 225.711 26.048C225.063 27.128 224.283 27.932 223.371 28.46C222.483 28.988 221.475 29.252 220.347 29.252ZM221.643 27.812C222.435 27.812 223.167 27.584 223.839 27.128C224.535 26.672 225.159 25.988 225.711 25.076V18.02C225.423 18.428 225.003 18.776 224.451 19.064C223.899 19.328 223.299 19.604 222.651 19.892C222.003 20.156 221.379 20.48 220.779 20.864C220.203 21.224 219.723 21.704 219.339 22.304C218.955 22.904 218.763 23.684 218.763 24.644C218.763 25.604 219.015 26.372 219.519 26.948C220.047 27.524 220.755 27.812 221.643 27.812ZM249.694 10.46V11.18C249.238 11.228 248.818 11.432 248.434 11.792C248.05 12.152 247.69 12.788 247.354 13.7L241.45 29.18H240.838L234.214 13.232C233.758 12.296 233.302 11.732 232.846 11.54C232.414 11.324 232.054 11.216 231.766 11.216V10.46C232.294 10.532 232.846 10.592 233.422 10.64C233.998 10.664 234.622 10.676 235.294 10.676C236.038 10.676 236.818 10.652 237.634 10.604C238.474 10.556 239.254 10.508 239.974 10.46V11.216C239.374 11.216 238.834 11.264 238.354 11.36C237.898 11.432 237.61 11.684 237.49 12.116C237.37 12.524 237.514 13.232 237.922 14.24L242.35 25.22L242.134 25.292L246.238 14.564C246.55 13.772 246.67 13.148 246.598 12.692C246.55 12.212 246.31 11.852 245.878 11.612C245.446 11.372 244.798 11.228 243.934 11.18V10.46C244.366 10.484 244.738 10.508 245.05 10.532C245.362 10.532 245.662 10.544 245.95 10.568C246.262 10.568 246.598 10.568 246.958 10.568C247.51 10.568 248.002 10.556 248.434 10.532C248.89 10.508 249.31 10.484 249.694 10.46ZM241.45 29.18L240.226 32.312C239.986 32.912 239.734 33.416 239.47 33.824C239.23 34.232 238.966 34.568 238.678 34.832C238.294 35.192 237.838 35.432 237.31 35.552C236.782 35.696 236.302 35.768 235.87 35.768C235.414 35.768 234.994 35.684 234.61 35.516C234.25 35.348 233.962 35.096 233.746 34.76C233.53 34.448 233.422 34.064 233.422 33.608C233.422 33.032 233.59 32.564 233.926 32.204C234.262 31.868 234.73 31.7 235.33 31.7C235.834 31.7 236.266 31.844 236.626 32.132C236.986 32.42 237.166 32.84 237.166 33.392C237.166 33.8 237.07 34.136 236.878 34.4C236.686 34.664 236.458 34.868 236.194 35.012C236.242 35.036 236.278 35.048 236.302 35.048C236.35 35.048 236.386 35.048 236.41 35.048C237.058 35.048 237.634 34.82 238.138 34.364C238.642 33.932 239.086 33.224 239.47 32.24L240.766 28.892L241.45 29.18Z" fill="#353A37"/>
</svg>
