<svg width="221" height="54" viewBox="0 0 221 54" fill="none" xmlns="http://www.w3.org/2000/svg">
<path d="M11.88 6.136C16.5733 3.27733 19.2613 1.848 19.944 1.848C20.6267 1.848 21.6933 2.72267 23.144 4.472C24.6373 6.22133 25.384 7.8 25.384 9.208V29.112C25.384 29.4107 23.6773 30.2427 20.264 31.608C16.8933 32.9733 14.0987 33.9973 11.88 34.68V41.144C11.88 42.7227 12.0507 43.8533 12.392 44.536C12.7333 45.2187 13.4373 45.56 14.504 45.56V47.544L1.384 53.048L0.36 51C1.29867 51 2.19467 50.4453 3.048 49.336C3.816 48.2693 4.2 46.648 4.2 44.472V11.32C4.2 8.71733 3.32533 7.24533 1.576 6.904V5.496L8.04 1.848C8.89333 2.18933 9.74667 2.808 10.6 3.704C11.4533 4.6 11.88 5.41066 11.88 6.136ZM14.376 7.992C13.608 7.992 12.776 8.312 11.88 8.952V31.672C12.9893 31.672 14.2267 31.3307 15.592 30.648C16.9573 29.9227 17.64 29.176 17.64 28.408V12.728C17.64 9.57066 16.552 7.992 14.376 7.992ZM38.8175 18.872V41.528C38.8175 44.1307 39.6922 45.6027 41.4415 45.944V47.352L34.9775 51C34.0388 50.616 33.1642 49.9973 32.3535 49.144C31.5428 48.248 31.1375 47.416 31.1375 46.648V23.992C31.1375 21.3893 30.2628 19.9173 28.5135 19.576V18.168L34.9775 14.52C35.9162 14.904 36.7908 15.544 37.6015 16.44C38.4122 17.2933 38.8175 18.104 38.8175 18.872ZM30.1775 6.52V2.616C30.1775 2.488 31.0522 2.104 32.8015 1.464C34.5935 0.781331 35.6175 0.439999 35.8735 0.439999C36.1722 0.439999 36.5775 0.802664 37.0895 1.528C37.6442 2.25333 37.9215 3 37.9215 3.768V8.44C37.9215 8.568 37.0682 8.97333 35.3615 9.656C33.6548 10.296 32.6095 10.616 32.2255 10.616C31.8415 10.616 31.3935 10.2533 30.8815 9.528C30.4122 8.76 30.1775 7.75733 30.1775 6.52ZM42.064 18.36L49.104 14.52C49.4027 14.6053 49.744 14.7333 50.128 14.904C50.5547 15.032 51.1093 15.4373 51.792 16.12C52.5173 16.8027 52.88 17.5707 52.88 18.424C53.0933 18.3387 54.096 17.6773 55.888 16.44C57.7227 15.16 58.896 14.52 59.408 14.52C60.7733 14.52 62.0533 15.416 63.248 17.208C64.4427 19 65.04 20.6427 65.04 22.136V25.272L58.448 28.984L57.36 28.088C57.36 24.504 57.0187 22.456 56.336 21.944C55.568 21.3893 54.416 21.112 52.88 21.112V41.528C52.88 44.1307 53.7547 45.6027 55.504 45.944V47.352L49.04 51C48.1013 50.616 47.2267 49.9973 46.416 49.144C45.6053 48.248 45.2 47.416 45.2 46.648V25.4C45.2 23.5227 44.8587 22.1147 44.176 21.176C43.536 20.2373 42.832 19.768 42.064 19.768V18.36ZM85.54 22.968V41.08C85.54 42.6587 85.796 43.768 86.308 44.408C86.82 45.0053 87.6093 45.432 88.676 45.688V47.096L81.7 51C80.7613 50.616 79.8867 49.9973 79.076 49.144C78.2653 48.248 77.86 47.4373 77.86 46.712L69.86 51C69.732 50.9147 69.54 50.808 69.284 50.68C69.028 50.5093 68.58 50.1893 67.94 49.72C67.3427 49.208 66.8093 48.6747 66.34 48.12C65.06 46.712 64.42 45.112 64.42 43.32V32.824C64.42 32.1413 65.5293 31.2667 67.748 30.2C69.9667 29.1333 72.1853 28.2587 74.404 27.576L77.796 26.488C77.796 24.056 77.156 22.3707 75.876 21.432C74.596 20.4507 72.1213 19.96 68.452 19.96V18.04C75.0653 15.6933 78.7773 14.52 79.588 14.52C80.996 14.52 82.34 15.4373 83.62 17.272C84.9 19.1067 85.54 21.0053 85.54 22.968ZM72.1 41.016C72.1 42.1253 72.42 43.0427 73.06 43.768C73.7427 44.4507 74.4893 44.792 75.3 44.792C76.1107 44.792 76.964 44.472 77.86 43.832V29.368C76.7933 29.752 75.9827 30.072 75.428 30.328C74.916 30.584 74.3613 30.9893 73.764 31.544C72.6547 32.568 72.1 34.3387 72.1 36.856V41.016ZM99.63 7.864V15.48H102.894L102.254 18.616H99.63V41.528C99.63 44.1307 100.505 45.6027 102.254 45.944V47.352L95.79 51C94.8513 50.616 93.9767 49.9973 93.166 49.144C92.3553 48.248 91.95 47.416 91.95 46.648V18.68H89.326L89.966 15.992C91.246 15.992 92.782 15.1387 94.574 13.432C96.4087 11.6827 97.4967 9.82667 97.838 7.864H99.63ZM125.853 22.968V41.08C125.853 42.6587 126.109 43.768 126.621 44.408C127.133 45.0053 127.922 45.432 128.989 45.688V47.096L122.013 51C121.074 50.616 120.199 49.9973 119.389 49.144C118.578 48.248 118.173 47.4373 118.173 46.712L110.173 51C110.045 50.9147 109.853 50.808 109.597 50.68C109.341 50.5093 108.893 50.1893 108.253 49.72C107.655 49.208 107.122 48.6747 106.653 48.12C105.373 46.712 104.733 45.112 104.733 43.32V32.824C104.733 32.1413 105.842 31.2667 108.061 30.2C110.279 29.1333 112.498 28.2587 114.717 27.576L118.109 26.488C118.109 24.056 117.469 22.3707 116.189 21.432C114.909 20.4507 112.434 19.96 108.765 19.96V18.04C115.378 15.6933 119.09 14.52 119.901 14.52C121.309 14.52 122.653 15.4373 123.933 17.272C125.213 19.1067 125.853 21.0053 125.853 22.968ZM112.413 41.016C112.413 42.1253 112.733 43.0427 113.373 43.768C114.055 44.4507 114.802 44.792 115.613 44.792C116.423 44.792 117.277 44.472 118.173 43.832V29.368C117.106 29.752 116.295 30.072 115.741 30.328C115.229 30.584 114.674 30.9893 114.077 31.544C112.967 32.568 112.413 34.3387 112.413 36.856V41.016ZM144.45 41.656V7.608C144.45 7.30933 146.882 6.264 151.746 4.472C156.61 2.63733 159.405 1.72 160.13 1.72C160.855 1.72 161.943 2.59466 163.394 4.344C164.887 6.09333 165.634 7.672 165.634 9.08V45.048C165.634 45.3893 163.287 46.4773 158.594 48.312C153.943 50.104 151.085 51 150.018 51C148.994 51 147.799 50.0827 146.434 48.248C145.111 46.4133 144.45 44.216 144.45 41.656ZM155.394 45.112C156.205 45.112 157.037 44.7707 157.89 44.088V12.408C157.89 9.25066 156.802 7.672 154.626 7.672C153.773 7.672 152.941 7.992 152.13 8.632V40.376C152.13 43.5333 153.218 45.112 155.394 45.112ZM172.013 46.648V24.952C172.013 23.544 171.714 22.328 171.117 21.304C170.519 20.28 169.773 19.768 168.877 19.768V18.36C169.175 18.3173 171.501 17.016 175.853 14.456C176.151 14.5413 176.514 14.6693 176.941 14.84C177.367 14.968 177.922 15.3733 178.605 16.056C179.33 16.7387 179.693 17.528 179.693 18.424C179.949 18.296 180.674 17.8907 181.869 17.208C185.026 15.416 186.903 14.52 187.501 14.52C188.866 14.52 190.146 15.416 191.341 17.208C192.535 19 193.133 20.6427 193.133 22.136V41.528C193.133 43.8747 194.178 45.2613 196.269 45.688V47.096L189.293 51C188.354 50.616 187.479 49.9973 186.669 49.144C185.858 48.248 185.453 47.416 185.453 46.648V28.088C185.453 25.6987 185.175 23.8853 184.621 22.648C184.109 21.368 183.17 20.728 181.805 20.728L179.693 21.112V41.528C179.693 44.1307 180.567 45.6027 182.317 45.944V47.352L175.853 51C174.914 50.616 174.039 49.9973 173.229 49.144C172.418 48.248 172.013 47.416 172.013 46.648ZM215.193 14.52C215.406 14.52 215.939 14.8613 216.793 15.544C217.646 16.184 218.499 17.1013 219.353 18.296C220.206 19.448 220.633 20.5787 220.633 21.688V32.44C220.633 33.208 219.502 34.1467 217.241 35.256C214.979 36.3653 212.782 37.2827 210.649 38.008C208.558 38.6907 207.427 39.032 207.257 39.032C207.257 42.3173 208.686 44.344 211.545 45.112C212.953 45.4533 214.638 45.624 216.601 45.624V47.48C209.603 49.8267 205.87 51 205.401 51C204.121 51 202.819 50.104 201.497 48.312C200.174 46.4773 199.513 44.344 199.513 41.912V20.408C199.513 20.1093 201.945 19.064 206.809 17.272C211.673 15.4373 214.467 14.52 215.193 14.52ZM212.953 24.696C212.953 23.5013 212.675 22.4987 212.121 21.688C211.566 20.8347 210.862 20.408 210.009 20.408C209.155 20.408 208.217 20.728 207.193 21.368V36.152C211.033 35.0853 212.953 32.7813 212.953 29.24V24.696Z" fill="#4E4E4E"/>
</svg>
