<svg width="1000" height="250" viewBox="0 0 1000 250" fill="none" xmlns="http://www.w3.org/2000/svg">
<rect width="250" height="250" fill="#4E4E4E"/>
<path d="M101.528 239L105.824 212.818H108.381L104.085 239H101.528ZM89.6136 231.739L90.0227 229.182H109.557L109.148 231.739H89.6136ZM92.3239 239L96.6193 212.818H99.1761L94.8807 239H92.3239ZM91.1477 222.636L91.5568 220.08H111.091L110.682 222.636H91.1477ZM113.808 233.631V231.023L125.313 212.818H127.205V216.858H125.927L117.234 230.614V230.818H132.728V233.631H113.808ZM126.131 239V232.838V231.624V212.818H129.148V239H126.131ZM137.979 239V212.818H153.78V215.631H141.15V224.477H152.962V227.29H141.15V236.188H153.985V239H137.979ZM158.421 233.631V231.023L169.926 212.818H171.819V216.858H170.54L161.847 230.614V230.818H177.341V233.631H158.421ZM170.745 239V232.838V231.624V212.818H173.762V239H170.745ZM182.592 239V212.818H198.393V215.631H185.763V224.477H197.575V227.29H185.763V236.188H198.598V239H182.592ZM203.034 233.631V231.023L214.54 212.818H216.432V216.858H215.153L206.46 230.614V230.818H221.955V233.631H203.034ZM215.358 239V232.838V231.624V212.818H218.375V239H215.358ZM227.206 239V212.818H243.007V215.631H230.376V224.477H242.189V227.29H230.376V236.188H243.211V239H227.206Z" fill="white"/>
<rect x="750" width="250" height="250" fill="#252525"/>
<rect x="250" width="250" height="250" fill="#F5F1E3"/>
<path d="M359.528 241L363.824 214.818H366.381L362.085 241H359.528ZM347.614 233.739L348.023 231.182H367.557L367.148 233.739H347.614ZM350.324 241L354.619 214.818H357.176L352.881 241H350.324ZM349.148 224.636L349.557 222.08H369.091L368.682 224.636H349.148ZM372.881 241V214.818H388.58V217.631H376.052V226.477H387.404V229.29H376.052V241H372.881ZM401.732 241.358C400.232 241.358 398.881 241.06 397.679 240.463C396.478 239.866 395.515 239.048 394.79 238.009C394.066 236.969 393.669 235.784 393.601 234.455H396.669C396.789 235.639 397.326 236.619 398.28 237.395C399.243 238.162 400.394 238.545 401.732 238.545C402.806 238.545 403.76 238.294 404.596 237.791C405.439 237.288 406.1 236.598 406.577 235.72C407.063 234.834 407.306 233.832 407.306 232.716C407.306 231.574 407.054 230.555 406.551 229.661C406.057 228.757 405.375 228.045 404.506 227.526C403.637 227.006 402.644 226.741 401.527 226.733C400.726 226.724 399.904 226.848 399.06 227.104C398.216 227.351 397.522 227.67 396.976 228.062L394.01 227.705L395.596 214.818H409.198V217.631H398.255L397.334 225.352H397.488C398.025 224.926 398.698 224.572 399.507 224.291C400.317 224.01 401.161 223.869 402.039 223.869C403.641 223.869 405.069 224.253 406.321 225.02C407.583 225.778 408.571 226.818 409.287 228.139C410.012 229.46 410.374 230.969 410.374 232.665C410.374 234.335 409.999 235.827 409.249 237.139C408.507 238.443 407.485 239.474 406.181 240.233C404.877 240.983 403.394 241.358 401.732 241.358ZM415.913 241V214.818H431.612V217.631H419.083V226.477H430.435V229.29H419.083V241H415.913ZM445.786 214.818V241H442.615V218.142H442.462L436.07 222.386V219.165L442.615 214.818H445.786ZM453.776 241V214.818H469.577V217.631H456.946V226.477H468.759V229.29H456.946V238.188H469.782V241H453.776ZM483.678 241.358C481.99 241.358 480.486 241.068 479.165 240.489C477.853 239.909 476.809 239.104 476.033 238.072C475.266 237.033 474.848 235.827 474.78 234.455H478.002C478.07 235.298 478.36 236.027 478.871 236.641C479.382 237.246 480.051 237.714 480.878 238.047C481.705 238.379 482.621 238.545 483.627 238.545C484.752 238.545 485.749 238.349 486.618 237.957C487.488 237.565 488.169 237.02 488.664 236.321C489.158 235.622 489.405 234.812 489.405 233.892C489.405 232.929 489.167 232.081 488.689 231.348C488.212 230.607 487.513 230.027 486.593 229.609C485.672 229.192 484.547 228.983 483.218 228.983H481.121V226.17H483.218C484.257 226.17 485.169 225.983 485.953 225.608C486.746 225.233 487.364 224.705 487.807 224.023C488.259 223.341 488.485 222.54 488.485 221.619C488.485 220.733 488.289 219.962 487.897 219.305C487.505 218.649 486.951 218.138 486.235 217.771C485.527 217.405 484.692 217.222 483.729 217.222C482.826 217.222 481.973 217.388 481.172 217.72C480.38 218.044 479.732 218.517 479.229 219.139C478.726 219.753 478.453 220.494 478.411 221.364H475.343C475.394 219.991 475.807 218.79 476.583 217.759C477.358 216.719 478.373 215.909 479.625 215.33C480.887 214.75 482.272 214.46 483.78 214.46C485.4 214.46 486.789 214.788 487.948 215.445C489.107 216.092 489.998 216.949 490.62 218.014C491.242 219.08 491.553 220.23 491.553 221.466C491.553 222.94 491.165 224.197 490.39 225.237C489.623 226.277 488.578 226.997 487.257 227.398V227.602C488.911 227.875 490.202 228.578 491.131 229.712C492.06 230.837 492.525 232.23 492.525 233.892C492.525 235.315 492.137 236.594 491.361 237.727C490.594 238.852 489.546 239.739 488.216 240.386C486.887 241.034 485.374 241.358 483.678 241.358Z" fill="black"/>
<rect x="500" width="250" height="250" fill="#BBCDE5"/>
<path d="M592.528 241L596.824 214.818H599.381L595.085 241H592.528ZM580.614 233.739L581.023 231.182H600.557L600.148 233.739H580.614ZM583.324 241L587.619 214.818H590.176L585.881 241H583.324ZM582.148 224.636L582.557 222.08H602.091L601.682 224.636H582.148ZM605.881 241V214.818H615.035C616.859 214.818 618.363 215.134 619.548 215.764C620.732 216.386 621.614 217.226 622.194 218.283C622.773 219.331 623.063 220.494 623.063 221.773C623.063 222.898 622.863 223.827 622.462 224.56C622.07 225.293 621.55 225.872 620.903 226.298C620.263 226.724 619.569 227.04 618.819 227.244V227.5C619.62 227.551 620.425 227.832 621.235 228.344C622.045 228.855 622.722 229.588 623.268 230.543C623.813 231.497 624.086 232.665 624.086 234.045C624.086 235.358 623.788 236.538 623.191 237.587C622.594 238.635 621.653 239.466 620.366 240.08C619.079 240.693 617.404 241 615.342 241H605.881ZM609.052 238.188H615.342C617.413 238.188 618.883 237.787 619.752 236.986C620.63 236.176 621.069 235.196 621.069 234.045C621.069 233.159 620.843 232.341 620.391 231.591C619.94 230.832 619.296 230.227 618.461 229.776C617.626 229.315 616.637 229.085 615.495 229.085H609.052V238.188ZM609.052 226.324H614.933C615.887 226.324 616.748 226.136 617.515 225.761C618.29 225.386 618.904 224.858 619.356 224.176C619.816 223.494 620.046 222.693 620.046 221.773C620.046 220.622 619.646 219.646 618.844 218.845C618.043 218.036 616.773 217.631 615.035 217.631H609.052V226.324ZM629.295 241V214.818H638.449C640.273 214.818 641.777 215.134 642.962 215.764C644.146 216.386 645.028 217.226 645.608 218.283C646.188 219.331 646.477 220.494 646.477 221.773C646.477 222.898 646.277 223.827 645.876 224.56C645.484 225.293 644.964 225.872 644.317 226.298C643.678 226.724 642.983 227.04 642.233 227.244V227.5C643.034 227.551 643.839 227.832 644.649 228.344C645.459 228.855 646.136 229.588 646.682 230.543C647.227 231.497 647.5 232.665 647.5 234.045C647.5 235.358 647.202 236.538 646.605 237.587C646.009 238.635 645.067 239.466 643.78 240.08C642.493 240.693 640.818 241 638.756 241H629.295ZM632.466 238.188H638.756C640.827 238.188 642.297 237.787 643.166 236.986C644.044 236.176 644.483 235.196 644.483 234.045C644.483 233.159 644.257 232.341 643.805 231.591C643.354 230.832 642.71 230.227 641.875 229.776C641.04 229.315 640.051 229.085 638.909 229.085H632.466V238.188ZM632.466 226.324H638.347C639.301 226.324 640.162 226.136 640.929 225.761C641.705 225.386 642.318 224.858 642.77 224.176C643.23 223.494 643.46 222.693 643.46 221.773C643.46 220.622 643.06 219.646 642.259 218.845C641.457 218.036 640.188 217.631 638.449 217.631H632.466V226.324ZM673.778 223H670.607C670.42 222.088 670.092 221.287 669.623 220.597C669.163 219.906 668.6 219.327 667.935 218.858C667.279 218.381 666.55 218.023 665.749 217.784C664.948 217.545 664.113 217.426 663.244 217.426C661.658 217.426 660.222 217.827 658.935 218.628C657.657 219.429 656.638 220.609 655.88 222.169C655.13 223.729 654.755 225.642 654.755 227.909C654.755 230.176 655.13 232.089 655.88 233.649C656.638 235.209 657.657 236.389 658.935 237.19C660.222 237.991 661.658 238.392 663.244 238.392C664.113 238.392 664.948 238.273 665.749 238.034C666.55 237.795 667.279 237.442 667.935 236.973C668.6 236.496 669.163 235.912 669.623 235.222C670.092 234.523 670.42 233.722 670.607 232.818H673.778C673.539 234.156 673.104 235.354 672.474 236.411C671.843 237.467 671.059 238.366 670.121 239.108C669.184 239.841 668.131 240.399 666.964 240.783C665.805 241.166 664.565 241.358 663.244 241.358C661.011 241.358 659.025 240.812 657.286 239.722C655.548 238.631 654.18 237.08 653.183 235.068C652.185 233.057 651.687 230.67 651.687 227.909C651.687 225.148 652.185 222.761 653.183 220.75C654.18 218.739 655.548 217.188 657.286 216.097C659.025 215.006 661.011 214.46 663.244 214.46C664.565 214.46 665.805 214.652 666.964 215.036C668.131 215.419 669.184 215.982 670.121 216.723C671.059 217.456 671.843 218.351 672.474 219.408C673.104 220.456 673.539 221.653 673.778 223ZM686.98 241H678.901V214.818H687.338C689.878 214.818 692.051 215.342 693.858 216.391C695.665 217.43 697.05 218.926 698.013 220.878C698.976 222.821 699.458 225.148 699.458 227.858C699.458 230.585 698.972 232.933 698 234.902C697.029 236.862 695.614 238.371 693.756 239.428C691.898 240.476 689.64 241 686.98 241ZM682.071 238.188H686.776C688.941 238.188 690.735 237.77 692.158 236.935C693.581 236.099 694.642 234.911 695.341 233.368C696.04 231.825 696.39 229.989 696.39 227.858C696.39 225.744 696.044 223.925 695.354 222.399C694.664 220.865 693.632 219.689 692.26 218.871C690.888 218.044 689.179 217.631 687.134 217.631H682.071V238.188ZM704.776 241V214.818H720.577V217.631H707.946V226.477H719.759V229.29H707.946V238.188H720.782V241H704.776ZM734.013 241.358C732.513 241.358 731.162 241.06 729.961 240.463C728.759 239.866 727.796 239.048 727.071 238.009C726.347 236.969 725.951 235.784 725.882 234.455H728.951C729.07 235.639 729.607 236.619 730.561 237.395C731.525 238.162 732.675 238.545 734.013 238.545C735.087 238.545 736.042 238.294 736.877 237.791C737.721 237.288 738.381 236.598 738.858 235.72C739.344 234.834 739.587 233.832 739.587 232.716C739.587 231.574 739.336 230.555 738.833 229.661C738.338 228.757 737.657 228.045 736.787 227.526C735.918 227.006 734.925 226.741 733.809 226.733C733.007 226.724 732.185 226.848 731.341 227.104C730.498 227.351 729.803 227.67 729.257 228.062L726.292 227.705L727.877 214.818H741.479V217.631H730.536L729.615 225.352H729.769C730.306 224.926 730.979 224.572 731.789 224.291C732.598 224.01 733.442 223.869 734.32 223.869C735.922 223.869 737.35 224.253 738.603 225.02C739.864 225.778 740.853 226.818 741.569 228.139C742.293 229.46 742.655 230.969 742.655 232.665C742.655 234.335 742.28 235.827 741.53 237.139C740.789 238.443 739.766 239.474 738.462 240.233C737.158 240.983 735.675 241.358 734.013 241.358Z" fill="black"/>
<path d="M848.528 239L852.824 212.818H855.381L851.085 239H848.528ZM836.614 231.739L837.023 229.182H856.557L856.148 231.739H836.614ZM839.324 239L843.619 212.818H846.176L841.881 239H839.324ZM838.148 222.636L838.557 220.08H858.091L857.682 222.636H838.148ZM861.421 239V236.699L870.063 227.239C871.077 226.131 871.913 225.168 872.569 224.349C873.225 223.523 873.711 222.747 874.026 222.023C874.35 221.29 874.512 220.523 874.512 219.722C874.512 218.801 874.29 218.004 873.847 217.331C873.413 216.658 872.816 216.138 872.058 215.771C871.299 215.405 870.447 215.222 869.501 215.222C868.495 215.222 867.617 215.43 866.867 215.848C866.126 216.257 865.55 216.832 865.141 217.574C864.741 218.315 864.54 219.185 864.54 220.182H861.523C861.523 218.648 861.877 217.301 862.585 216.142C863.292 214.983 864.255 214.08 865.474 213.432C866.701 212.784 868.077 212.46 869.603 212.46C871.137 212.46 872.496 212.784 873.681 213.432C874.866 214.08 875.795 214.953 876.468 216.053C877.141 217.152 877.478 218.375 877.478 219.722C877.478 220.685 877.303 221.626 876.954 222.547C876.613 223.459 876.016 224.477 875.164 225.602C874.32 226.719 873.148 228.082 871.648 229.693L865.768 235.983V236.188H877.938V239H861.421ZM891.4 239.358C889.9 239.358 888.549 239.06 887.347 238.463C886.146 237.866 885.183 237.048 884.458 236.009C883.734 234.969 883.337 233.784 883.269 232.455H886.337C886.457 233.639 886.994 234.619 887.948 235.395C888.911 236.162 890.062 236.545 891.4 236.545C892.474 236.545 893.428 236.294 894.263 235.791C895.107 235.288 895.768 234.598 896.245 233.72C896.731 232.834 896.974 231.832 896.974 230.716C896.974 229.574 896.722 228.555 896.219 227.661C895.725 226.757 895.043 226.045 894.174 225.526C893.305 225.006 892.312 224.741 891.195 224.733C890.394 224.724 889.572 224.848 888.728 225.104C887.884 225.351 887.19 225.67 886.644 226.062L883.678 225.705L885.263 212.818H898.866V215.631H887.923L887.002 223.352H887.156C887.692 222.926 888.366 222.572 889.175 222.291C889.985 222.01 890.829 221.869 891.707 221.869C893.309 221.869 894.737 222.253 895.989 223.02C897.251 223.778 898.239 224.818 898.955 226.139C899.68 227.46 900.042 228.969 900.042 230.665C900.042 232.335 899.667 233.827 898.917 235.139C898.175 236.443 897.153 237.474 895.849 238.233C894.545 238.983 893.062 239.358 891.4 239.358ZM905.12 239V236.699L913.762 227.239C914.777 226.131 915.612 225.168 916.268 224.349C916.924 223.523 917.41 222.747 917.725 222.023C918.049 221.29 918.211 220.523 918.211 219.722C918.211 218.801 917.99 218.004 917.547 217.331C917.112 216.658 916.515 216.138 915.757 215.771C914.998 215.405 914.146 215.222 913.2 215.222C912.194 215.222 911.316 215.43 910.566 215.848C909.825 216.257 909.25 216.832 908.841 217.574C908.44 218.315 908.24 219.185 908.24 220.182H905.223C905.223 218.648 905.576 217.301 906.284 216.142C906.991 214.983 907.954 214.08 909.173 213.432C910.4 212.784 911.777 212.46 913.302 212.46C914.836 212.46 916.196 212.784 917.38 213.432C918.565 214.08 919.494 214.953 920.167 216.053C920.841 217.152 921.177 218.375 921.177 219.722C921.177 220.685 921.002 221.626 920.653 222.547C920.312 223.459 919.716 224.477 918.863 225.602C918.02 226.719 916.848 228.082 915.348 229.693L909.467 235.983V236.188H921.637V239H905.12ZM935.099 239.358C933.599 239.358 932.248 239.06 931.047 238.463C929.845 237.866 928.882 237.048 928.157 236.009C927.433 234.969 927.037 233.784 926.968 232.455H930.037C930.156 233.639 930.693 234.619 931.647 235.395C932.61 236.162 933.761 236.545 935.099 236.545C936.173 236.545 937.127 236.294 937.963 235.791C938.806 235.288 939.467 234.598 939.944 233.72C940.43 232.834 940.673 231.832 940.673 230.716C940.673 229.574 940.422 228.555 939.919 227.661C939.424 226.757 938.743 226.045 937.873 225.526C937.004 225.006 936.011 224.741 934.895 224.733C934.093 224.724 933.271 224.848 932.427 225.104C931.583 225.351 930.889 225.67 930.343 226.062L927.377 225.705L928.963 212.818H942.565V215.631H931.622L930.701 223.352H930.855C931.392 222.926 932.065 222.572 932.875 222.291C933.684 222.01 934.528 221.869 935.406 221.869C937.008 221.869 938.436 222.253 939.689 223.02C940.95 223.778 941.939 224.818 942.654 226.139C943.379 227.46 943.741 228.969 943.741 230.665C943.741 232.335 943.366 233.827 942.616 235.139C941.875 236.443 940.852 237.474 939.548 238.233C938.244 238.983 936.761 239.358 935.099 239.358ZM948.82 239V236.699L957.462 227.239C958.476 226.131 959.311 225.168 959.967 224.349C960.624 223.523 961.109 222.747 961.425 222.023C961.749 221.29 961.911 220.523 961.911 219.722C961.911 218.801 961.689 218.004 961.246 217.331C960.811 216.658 960.214 216.138 959.456 215.771C958.697 215.405 957.845 215.222 956.899 215.222C955.893 215.222 955.016 215.43 954.266 215.848C953.524 216.257 952.949 216.832 952.54 217.574C952.139 218.315 951.939 219.185 951.939 220.182H948.922C948.922 218.648 949.276 217.301 949.983 216.142C950.69 214.983 951.653 214.08 952.872 213.432C954.099 212.784 955.476 212.46 957.001 212.46C958.536 212.46 959.895 212.784 961.08 213.432C962.264 214.08 963.193 214.953 963.866 216.053C964.54 217.152 964.876 218.375 964.876 219.722C964.876 220.685 964.702 221.626 964.352 222.547C964.011 223.459 963.415 224.477 962.562 225.602C961.719 226.719 960.547 228.082 959.047 229.693L953.166 235.983V236.188H965.337V239H948.82ZM978.798 239.358C977.298 239.358 975.947 239.06 974.746 238.463C973.544 237.866 972.581 237.048 971.857 236.009C971.132 234.969 970.736 233.784 970.668 232.455H973.736C973.855 233.639 974.392 234.619 975.347 235.395C976.31 236.162 977.46 236.545 978.798 236.545C979.872 236.545 980.827 236.294 981.662 235.791C982.506 235.288 983.166 234.598 983.643 233.72C984.129 232.834 984.372 231.832 984.372 230.716C984.372 229.574 984.121 228.555 983.618 227.661C983.124 226.757 982.442 226.045 981.572 225.526C980.703 225.006 979.71 224.741 978.594 224.733C977.793 224.724 976.97 224.848 976.126 225.104C975.283 225.351 974.588 225.67 974.043 226.062L971.077 225.705L972.662 212.818H986.264V215.631H975.321L974.401 223.352H974.554C975.091 222.926 975.764 222.572 976.574 222.291C977.384 222.01 978.227 221.869 979.105 221.869C980.707 221.869 982.135 222.253 983.388 223.02C984.649 223.778 985.638 224.818 986.354 226.139C987.078 227.46 987.44 228.969 987.44 230.665C987.44 232.335 987.065 233.827 986.315 235.139C985.574 236.443 984.551 237.474 983.247 238.233C981.943 238.983 980.46 239.358 978.798 239.358Z" fill="white"/>
</svg>
