<svg width="150" height="36" viewBox="0 0 150 36" fill="none" xmlns="http://www.w3.org/2000/svg">
<path d="M6.2 4.328C5.56 4.328 5.08 4.376 4.76 4.472C4.472 4.536 4.216 4.68 3.992 4.904C3.8 5.096 3.624 5.368 3.464 5.72C3.336 6.04 3.272 6.344 3.272 6.632L0.632 6.584C0.696 5.08 1.176 3.88 2.072 2.984C2.552 2.536 3.112 2.216 3.752 2.024C4.424 1.8 5.256 1.672 6.248 1.64H16.808C18.632 1.64 20.28 2.008 21.752 2.744C23.224 3.448 24.376 4.456 25.208 5.768C26.072 7.08 26.504 8.6 26.504 10.328C26.504 11.928 26.168 13.32 25.496 14.504C24.856 15.656 23.976 16.424 22.856 16.808C22.824 16.808 22.728 16.856 22.568 16.952C22.44 17.016 22.056 17.144 21.416 17.336C21.608 17.4 21.832 17.464 22.088 17.528C22.376 17.592 22.664 17.688 22.952 17.816C24.552 18.552 25.8 19.672 26.696 21.176C27.592 22.648 28.04 24.36 28.04 26.312C28.04 29.448 26.872 31.768 24.536 33.272C22.232 34.744 18.952 35.48 14.696 35.48C12.008 35.48 10.024 35.4 8.744 35.24L6.2 34.952V4.328ZM15.512 32.84C21.944 32.84 25.16 30.632 25.16 26.216C25.16 23.944 24.392 22.168 22.856 20.888C21.32 19.576 19.4 18.92 17.096 18.92H12.536V16.28H16.76C18.84 16.28 20.504 15.752 21.752 14.696C23 13.64 23.624 12.168 23.624 10.28C23.624 8.424 23.064 7 21.944 6.008C20.856 4.984 19.368 4.424 17.48 4.328H9.08V32.6L13.784 32.792L15.512 32.84ZM43.5125 35.48C41.1125 35.48 39.0805 34.984 37.4165 33.992C35.7525 33 34.4885 31.64 33.6245 29.912C32.7925 28.152 32.3765 26.168 32.3765 23.96C32.3765 21.784 32.7765 19.672 33.5765 17.624C34.4085 15.576 35.6405 13.896 37.2725 12.584C38.9365 11.272 40.9525 10.616 43.3205 10.616C44.8885 10.616 46.3445 10.92 47.6885 11.528C49.0325 12.136 50.0885 13 50.8565 14.12C51.6565 15.24 52.0565 16.536 52.0565 18.008C52.0565 20.376 51.0485 22.216 49.0325 23.528C47.0165 24.808 44.2325 25.432 40.6805 25.4L35.4005 25.352C35.6885 27.816 36.5045 29.688 37.8485 30.968C39.2245 32.248 41.1125 32.888 43.5125 32.888C44.9525 32.888 46.2805 32.696 47.4965 32.312C48.7445 31.896 49.9445 31.272 51.0965 30.44L52.5365 32.36C51.3205 33.32 49.9285 34.088 48.3605 34.664C46.8245 35.208 45.2085 35.48 43.5125 35.48ZM41.3045 22.904C46.5525 22.904 49.1765 21.256 49.1765 17.96C49.1765 16.36 48.6165 15.176 47.4965 14.408C46.4085 13.608 45.0645 13.208 43.4645 13.208C41.6725 13.208 40.1525 13.72 38.9045 14.744C37.6885 15.768 36.7765 17.032 36.1685 18.536C35.5605 20.04 35.2565 21.496 35.2565 22.904H41.3045ZM60.7456 30.968C60.7456 31.416 60.8896 31.8 61.1776 32.12C61.4976 32.408 61.8656 32.552 62.2816 32.552C62.9216 32.552 63.3856 32.28 63.6736 31.736L65.7856 33.32C65.5296 33.864 65.0816 34.328 64.4416 34.712C63.8016 35.064 63.0816 35.24 62.2816 35.24C61.0016 35.24 59.9456 34.84 59.1136 34.04C58.2816 33.24 57.8656 32.2 57.8656 30.92V0.151999H60.7456V30.968ZM72.8863 30.968C72.8863 31.416 73.0303 31.8 73.3183 32.12C73.6383 32.408 74.0063 32.552 74.4223 32.552C75.0623 32.552 75.5263 32.28 75.8143 31.736L77.9263 33.32C77.6703 33.864 77.2223 34.328 76.5823 34.712C75.9423 35.064 75.2223 35.24 74.4223 35.24C73.1423 35.24 72.0863 34.84 71.2543 34.04C70.4223 33.24 70.0063 32.2 70.0063 30.92V0.151999H72.8863V30.968ZM91.5294 35.48C89.2574 35.48 87.2254 34.952 85.4334 33.896C83.6734 32.84 82.2974 31.368 81.3054 29.48C80.3134 27.592 79.8174 25.448 79.8174 23.048C79.8174 20.648 80.3134 18.504 81.3054 16.616C82.3294 14.696 83.7214 13.208 85.4814 12.152C87.2734 11.064 89.3054 10.52 91.5774 10.52C93.8174 10.52 95.8174 11.064 97.5774 12.152C99.3694 13.208 100.761 14.68 101.753 16.568C102.777 18.456 103.289 20.6 103.289 23C103.289 25.4 102.777 27.544 101.753 29.432C100.761 31.32 99.3694 32.808 97.5774 33.896C95.8174 34.952 93.8014 35.48 91.5294 35.48ZM91.5774 32.888C94.2334 32.888 96.3614 31.976 97.9614 30.152C99.5934 28.328 100.409 25.944 100.409 23C100.409 21.048 100.041 19.336 99.3054 17.864C98.5694 16.36 97.5294 15.192 96.1854 14.36C94.8414 13.528 93.3054 13.112 91.5774 13.112C89.8174 13.112 88.2654 13.528 86.9214 14.36C85.5774 15.192 84.5374 16.376 83.8014 17.912C83.0654 19.416 82.6974 21.128 82.6974 23.048C82.6974 24.968 83.0654 26.68 83.8014 28.184C84.5374 29.656 85.5774 30.808 86.9214 31.64C88.2654 32.472 89.8174 32.888 91.5774 32.888ZM115.292 35.48C113.116 35.48 111.516 34.872 110.492 33.656C109.468 32.408 108.956 30.552 108.956 28.088V5H111.836V11.096H119.372V13.688H111.836V28.088C111.836 31.288 112.988 32.888 115.292 32.888C117.116 32.888 118.524 31.912 119.516 29.96L121.676 31.448C120.94 32.792 120.06 33.8 119.036 34.472C118.012 35.144 116.764 35.48 115.292 35.48ZM134.152 35.48C131.944 35.48 130.056 34.92 128.488 33.8C126.92 32.68 125.736 31.192 124.936 29.336C124.136 27.48 123.736 25.432 123.736 23.192C123.736 20.728 124.216 18.552 125.176 16.664C126.136 14.744 127.512 13.256 129.304 12.2C131.096 11.144 133.192 10.616 135.592 10.616C136.328 10.616 137.256 10.664 138.376 10.76C139.496 10.824 140.488 10.92 141.352 11.048H144.232V30.872C144.232 31.512 144.376 32.008 144.664 32.36C144.984 32.68 145.368 32.84 145.816 32.84C146.392 32.84 146.856 32.568 147.208 32.024L149.272 33.656C148.792 34.328 148.248 34.792 147.64 35.048C147.064 35.336 146.392 35.48 145.624 35.48C144.504 35.48 143.512 35.096 142.648 34.328C141.816 33.56 141.4 32.632 141.4 31.544C140.632 32.824 139.624 33.8 138.376 34.472C137.128 35.144 135.72 35.48 134.152 35.48ZM134.2 32.888C135.64 32.888 136.936 32.536 138.088 31.832C139.24 31.128 140.104 30.2 140.68 29.048C141.128 28.12 141.352 27.096 141.352 25.976V13.4L138.184 13.304L135.4 13.208C132.488 13.208 130.296 14.12 128.824 15.944C127.352 17.768 126.616 20.152 126.616 23.096C126.616 25.816 127.256 28.136 128.536 30.056C129.848 31.944 131.736 32.888 134.2 32.888Z" fill="black"/>
</svg>
