<svg width="194" height="36" viewBox="0 0 194 36" fill="none" xmlns="http://www.w3.org/2000/svg">
<path d="M11.736 0.775999H14.508L25.02 29H21.708L18.324 19.352H7.596L4.068 29H0.936L11.736 0.775999ZM17.532 16.868L13.176 4.16L8.46 16.868H17.532ZM30.2611 27.272V35.192H27.7411V9.74H30.0811L30.2251 13.232C31.0171 11.936 31.9291 10.964 32.9611 10.316C33.9931 9.644 35.2411 9.308 36.7051 9.308C39.1051 9.308 41.0971 10.244 42.6811 12.116C43.4971 13.052 44.1091 14.108 44.5171 15.284C44.9251 16.436 45.1291 17.732 45.1291 19.172C45.1291 22.148 44.2291 24.608 42.4291 26.552C40.6291 28.496 38.4811 29.468 35.9851 29.468C34.7371 29.468 33.5851 29.204 32.5291 28.676C32.2171 28.556 31.8811 28.376 31.5211 28.136C31.1611 27.896 30.7411 27.608 30.2611 27.272ZM30.2611 18.74V24.5C30.6451 24.86 30.9931 25.172 31.3051 25.436C31.6411 25.676 31.9411 25.88 32.2051 26.048C33.3811 26.744 34.5691 27.092 35.7691 27.092C37.6891 27.092 39.2611 26.336 40.4851 24.824C41.7331 23.24 42.3571 21.32 42.3571 19.064C42.3571 16.952 41.7811 15.188 40.6291 13.772C39.5011 12.356 38.0611 11.648 36.3091 11.648C34.5091 11.648 33.0211 12.428 31.8451 13.988C30.7891 15.404 30.2611 16.988 30.2611 18.74ZM50.1947 27.272V35.192H47.6747V9.74H50.0147L50.1587 13.232C50.9507 11.936 51.8627 10.964 52.8947 10.316C53.9267 9.644 55.1747 9.308 56.6387 9.308C59.0387 9.308 61.0307 10.244 62.6147 12.116C63.4307 13.052 64.0427 14.108 64.4507 15.284C64.8587 16.436 65.0627 17.732 65.0627 19.172C65.0627 22.148 64.1627 24.608 62.3627 26.552C60.5627 28.496 58.4147 29.468 55.9187 29.468C54.6707 29.468 53.5187 29.204 52.4627 28.676C52.1507 28.556 51.8147 28.376 51.4547 28.136C51.0947 27.896 50.6747 27.608 50.1947 27.272ZM50.1947 18.74V24.5C50.5787 24.86 50.9267 25.172 51.2387 25.436C51.5747 25.676 51.8747 25.88 52.1387 26.048C53.3147 26.744 54.5027 27.092 55.7027 27.092C57.6227 27.092 59.1947 26.336 60.4187 24.824C61.6667 23.24 62.2907 21.32 62.2907 19.064C62.2907 16.952 61.7147 15.188 60.5627 13.772C59.4347 12.356 57.9947 11.648 56.2427 11.648C54.4427 11.648 52.9547 12.428 51.7787 13.988C50.7227 15.404 50.1947 16.988 50.1947 18.74ZM67.6083 0.775999H70.2003V29H67.6083V0.775999ZM90.54 18.596H75.888C75.888 21.356 76.524 23.468 77.796 24.932C79.092 26.372 80.784 27.092 82.872 27.092C84.456 27.092 85.98 26.588 87.444 25.58C87.852 25.316 88.284 24.992 88.74 24.608C89.196 24.2 89.688 23.732 90.216 23.204V26.336C89.64 26.768 89.1 27.152 88.596 27.488C88.116 27.8 87.66 28.064 87.228 28.28C85.716 29.072 84.204 29.468 82.692 29.468C80.076 29.468 77.856 28.568 76.032 26.768C74.064 24.872 73.08 22.412 73.08 19.388C73.08 16.532 73.968 14.144 75.744 12.224C77.544 10.28 79.764 9.308 82.404 9.308C84.972 9.308 87.012 10.244 88.524 12.116C89.868 13.82 90.54 15.98 90.54 18.596ZM76.248 16.4H87.516C87.228 14.768 86.604 13.556 85.644 12.764C84.708 11.948 83.568 11.54 82.224 11.54C80.736 11.54 79.476 12.008 78.444 12.944C77.484 13.808 76.752 14.96 76.248 16.4ZM115.014 2.936V6.68C113.694 5.504 112.422 4.628 111.198 4.052C109.758 3.332 108.282 2.972 106.77 2.972C103.722 2.972 101.19 4.232 99.1738 6.752C97.2538 9.056 96.2938 11.816 96.2938 15.032C96.2938 18.296 97.3258 21.128 99.3898 23.528C101.334 25.712 103.53 26.804 105.978 26.804C107.922 26.804 109.554 26.18 110.874 24.932C112.314 23.564 113.034 21.764 113.034 19.532V17.372H103.746V14.888H115.914V29H113.43L113.034 25.58C112.194 26.636 111.294 27.464 110.334 28.064C108.846 29 107.214 29.468 105.438 29.468C102.198 29.468 99.3778 28.088 96.9778 25.328C94.5058 22.544 93.2698 19.136 93.2698 15.104C93.2698 10.952 94.5538 7.448 97.1218 4.592C99.6898 1.736 102.894 0.307998 106.734 0.307998C108.414 0.307998 110.058 0.619998 111.666 1.244C112.506 1.556 113.622 2.12 115.014 2.936ZM129.167 29.468C126.695 29.468 124.523 28.568 122.651 26.768C120.659 24.872 119.663 22.412 119.663 19.388C119.663 16.532 120.539 14.144 122.291 12.224C124.091 10.28 126.311 9.308 128.951 9.308C131.567 9.308 133.775 10.28 135.575 12.224C137.351 14.144 138.239 16.52 138.239 19.352C138.239 22.328 137.279 24.788 135.359 26.732C133.583 28.556 131.519 29.468 129.167 29.468ZM128.915 27.092C130.643 27.092 132.179 26.372 133.523 24.932C134.819 23.468 135.467 21.608 135.467 19.352C135.467 17.024 134.771 15.128 133.379 13.664C132.107 12.32 130.631 11.648 128.951 11.648C127.223 11.648 125.747 12.344 124.523 13.736C123.179 15.272 122.507 17.156 122.507 19.388C122.507 21.644 123.167 23.528 124.487 25.04C125.711 26.408 127.187 27.092 128.915 27.092ZM143.423 4.052H145.799V9.704H150.875V12.044H145.799V24.284C145.799 25.292 145.979 26.012 146.339 26.444C146.723 26.876 147.371 27.092 148.283 27.092C148.811 27.092 149.255 27.032 149.615 26.912C149.999 26.792 150.419 26.636 150.875 26.444V28.784C150.491 28.904 150.023 29.012 149.471 29.108C148.943 29.228 148.403 29.288 147.851 29.288C146.411 29.288 145.295 28.964 144.503 28.316C143.615 27.644 143.171 26.564 143.171 25.076V12.044H139.931V9.704H143.171L143.423 4.052ZM153.46 0.775999H156.052V13.196C156.652 12.236 157.384 11.432 158.248 10.784C159.568 9.8 161.044 9.308 162.676 9.308C163.684 9.308 164.584 9.452 165.376 9.74C166.192 10.028 166.936 10.448 167.608 11C169.024 12.248 169.732 14 169.732 16.256V29H167.104V16.616C167.104 15.224 166.66 14.048 165.772 13.088C164.884 12.128 163.804 11.648 162.532 11.648C160.684 11.648 159.148 12.38 157.924 13.844C156.676 15.356 156.052 17.084 156.052 19.028V29H153.46V0.775999ZM172.088 9.74H174.68V29H172.088V9.74ZM173.348 1.604C173.852 1.604 174.272 1.772 174.608 2.108C174.944 2.444 175.112 2.924 175.112 3.548C175.112 4.172 174.956 4.652 174.644 4.988C174.332 5.324 173.9 5.492 173.348 5.492C172.796 5.492 172.364 5.3 172.052 4.916C171.764 4.532 171.62 4.088 171.62 3.584C171.62 2.792 171.8 2.264 172.16 2C172.52 1.736 172.916 1.604 173.348 1.604ZM193.731 11.432V14.816C192.387 13.544 191.007 12.632 189.591 12.08C189.183 11.912 188.763 11.804 188.331 11.756C187.899 11.684 187.467 11.648 187.035 11.648C185.043 11.648 183.411 12.392 182.139 13.88C180.867 15.416 180.231 17.24 180.231 19.352C180.231 21.512 180.891 23.36 182.211 24.896C183.531 26.36 185.187 27.092 187.179 27.092C188.427 27.092 189.567 26.828 190.599 26.3C191.631 25.748 192.675 24.932 193.731 23.852V27.272C192.459 28.064 191.307 28.628 190.275 28.964C189.243 29.3 188.199 29.468 187.143 29.468C184.455 29.468 182.151 28.508 180.231 26.588C178.359 24.596 177.423 22.196 177.423 19.388C177.423 16.628 178.347 14.252 180.195 12.26C182.067 10.292 184.395 9.308 187.179 9.308C188.595 9.308 189.915 9.548 191.139 10.028C191.859 10.292 192.723 10.76 193.731 11.432Z" fill="black"/>
</svg>
