<svg width="750" height="250" viewBox="0 0 750 250" fill="none" xmlns="http://www.w3.org/2000/svg">
<rect x="250" width="250" height="250" fill="#D5C7BA"/>
<rect x="500" width="250" height="250" fill="#1B1B1B"/>
<path d="M610.528 241L614.824 214.818H617.381L613.085 241H610.528ZM598.614 233.739L599.023 231.182H618.557L618.148 233.739H598.614ZM601.324 241L605.619 214.818H608.176L603.881 241H601.324ZM600.148 224.636L600.557 222.08H620.091L619.682 224.636H600.148ZM632.626 214.818V241H629.455V218.142H629.302L622.91 222.386V219.165L629.455 214.818H632.626ZM640.616 241V214.818H649.769C651.593 214.818 653.097 215.134 654.282 215.764C655.467 216.386 656.349 217.226 656.928 218.283C657.508 219.331 657.798 220.494 657.798 221.773C657.798 222.898 657.597 223.827 657.197 224.56C656.805 225.293 656.285 225.872 655.637 226.298C654.998 226.724 654.303 227.04 653.553 227.244V227.5C654.354 227.551 655.16 227.832 655.969 228.344C656.779 228.855 657.457 229.588 658.002 230.543C658.548 231.497 658.82 232.665 658.82 234.045C658.82 235.358 658.522 236.538 657.925 237.587C657.329 238.635 656.387 239.466 655.1 240.08C653.813 240.693 652.138 241 650.076 241H640.616ZM643.786 238.188H650.076C652.147 238.188 653.617 237.787 654.487 236.986C655.364 236.176 655.803 235.196 655.803 234.045C655.803 233.159 655.577 232.341 655.126 231.591C654.674 230.832 654.031 230.227 653.195 229.776C652.36 229.315 651.371 229.085 650.229 229.085H643.786V238.188ZM643.786 226.324H649.667C650.621 226.324 651.482 226.136 652.249 225.761C653.025 225.386 653.638 224.858 654.09 224.176C654.55 223.494 654.781 222.693 654.781 221.773C654.781 220.622 654.38 219.646 653.579 218.845C652.778 218.036 651.508 217.631 649.769 217.631H643.786V226.324ZM672.774 214.818V241H669.604V218.142H669.45L663.058 222.386V219.165L669.604 214.818H672.774ZM680.764 241V214.818H689.918C691.741 214.818 693.246 215.134 694.43 215.764C695.615 216.386 696.497 217.226 697.077 218.283C697.656 219.331 697.946 220.494 697.946 221.773C697.946 222.898 697.746 223.827 697.345 224.56C696.953 225.293 696.433 225.872 695.786 226.298C695.146 226.724 694.452 227.04 693.702 227.244V227.5C694.503 227.551 695.308 227.832 696.118 228.344C696.928 228.855 697.605 229.588 698.151 230.543C698.696 231.497 698.969 232.665 698.969 234.045C698.969 235.358 698.67 236.538 698.074 237.587C697.477 238.635 696.536 239.466 695.249 240.08C693.962 240.693 692.287 241 690.224 241H680.764ZM683.935 238.188H690.224C692.295 238.188 693.766 237.787 694.635 236.986C695.513 236.176 695.952 235.196 695.952 234.045C695.952 233.159 695.726 232.341 695.274 231.591C694.822 230.832 694.179 230.227 693.344 229.776C692.509 229.315 691.52 229.085 690.378 229.085H683.935V238.188ZM683.935 226.324H689.815C690.77 226.324 691.631 226.136 692.398 225.761C693.173 225.386 693.787 224.858 694.239 224.176C694.699 223.494 694.929 222.693 694.929 221.773C694.929 220.622 694.528 219.646 693.727 218.845C692.926 218.036 691.656 217.631 689.918 217.631H683.935V226.324ZM712.923 214.818V241H709.752V218.142H709.599L703.207 222.386V219.165L709.752 214.818H712.923ZM720.913 241V214.818H730.066C731.89 214.818 733.394 215.134 734.579 215.764C735.763 216.386 736.646 217.226 737.225 218.283C737.805 219.331 738.094 220.494 738.094 221.773C738.094 222.898 737.894 223.827 737.494 224.56C737.102 225.293 736.582 225.872 735.934 226.298C735.295 226.724 734.6 227.04 733.85 227.244V227.5C734.651 227.551 735.457 227.832 736.266 228.344C737.076 228.855 737.754 229.588 738.299 230.543C738.844 231.497 739.117 232.665 739.117 234.045C739.117 235.358 738.819 236.538 738.222 237.587C737.626 238.635 736.684 239.466 735.397 240.08C734.11 240.693 732.435 241 730.373 241H720.913ZM724.083 238.188H730.373C732.444 238.188 733.914 237.787 734.783 236.986C735.661 236.176 736.1 235.196 736.1 234.045C736.1 233.159 735.874 232.341 735.423 231.591C734.971 230.832 734.327 230.227 733.492 229.776C732.657 229.315 731.668 229.085 730.526 229.085H724.083V238.188ZM724.083 226.324H729.964C730.918 226.324 731.779 226.136 732.546 225.761C733.322 225.386 733.935 224.858 734.387 224.176C734.847 223.494 735.077 222.693 735.077 221.773C735.077 220.622 734.677 219.646 733.876 218.845C733.075 218.036 731.805 217.631 730.066 217.631H724.083V226.324Z" fill="white"/>
<rect width="250" height="250" fill="#FEFEFE"/>
<path d="M104.528 241L108.824 214.818H111.381L107.085 241H104.528ZM92.6136 233.739L93.0227 231.182H112.557L112.148 233.739H92.6136ZM95.3239 241L99.6193 214.818H102.176L97.8807 241H95.3239ZM94.1477 224.636L94.5568 222.08H114.091L113.682 224.636H94.1477ZM117.881 241V214.818H133.58V217.631H121.052V226.477H132.404V229.29H121.052V241H117.881ZM139.01 241V214.818H154.811V217.631H142.181V226.477H153.993V229.29H142.181V238.188H155.016V241H139.01ZM160.526 241V214.818H176.225V217.631H163.696V226.477H175.049V229.29H163.696V241H160.526ZM181.655 241V214.818H197.456V217.631H184.825V226.477H196.638V229.29H184.825V238.188H197.661V241H181.655ZM203.17 241V214.818H218.869V217.631H206.341V226.477H217.693V229.29H206.341V241H203.17ZM224.299 241V214.818H240.1V217.631H227.47V226.477H239.282V229.29H227.47V238.188H240.305V241H224.299Z" fill="black"/>
<path d="M335.528 241L339.824 214.818H342.381L338.085 241H335.528ZM323.614 233.739L324.023 231.182H343.557L343.148 233.739H323.614ZM326.324 241L330.619 214.818H333.176L328.881 241H326.324ZM325.148 224.636L325.557 222.08H345.091L344.682 224.636H325.148ZM356.961 241H348.881V214.818H357.319C359.859 214.818 362.032 215.342 363.839 216.391C365.646 217.43 367.031 218.926 367.994 220.878C368.957 222.821 369.438 225.148 369.438 227.858C369.438 230.585 368.952 232.933 367.981 234.902C367.009 236.862 365.594 238.371 363.737 239.428C361.879 240.476 359.62 241 356.961 241ZM352.052 238.188H356.756C358.921 238.188 360.715 237.77 362.138 236.935C363.562 236.099 364.623 234.911 365.322 233.368C366.021 231.825 366.37 229.989 366.37 227.858C366.37 225.744 366.025 223.925 365.335 222.399C364.644 220.865 363.613 219.689 362.241 218.871C360.869 218.044 359.16 217.631 357.114 217.631H352.052V238.188ZM382.478 241.358C380.978 241.358 379.627 241.06 378.425 240.463C377.224 239.866 376.261 239.048 375.536 238.009C374.812 236.969 374.415 235.784 374.347 234.455H377.415C377.535 235.639 378.072 236.619 379.026 237.395C379.989 238.162 381.14 238.545 382.478 238.545C383.552 238.545 384.506 238.294 385.342 237.791C386.185 237.288 386.846 236.598 387.323 235.72C387.809 234.834 388.052 233.832 388.052 232.716C388.052 231.574 387.8 230.555 387.298 229.661C386.803 228.757 386.121 228.045 385.252 227.526C384.383 227.006 383.39 226.741 382.273 226.733C381.472 226.724 380.65 226.848 379.806 227.104C378.962 227.351 378.268 227.67 377.722 228.062L374.756 227.705L376.342 214.818H389.944V217.631H379.001L378.08 225.352H378.234C378.771 224.926 379.444 224.572 380.254 224.291C381.063 224.01 381.907 223.869 382.785 223.869C384.387 223.869 385.815 224.253 387.067 225.02C388.329 225.778 389.317 226.818 390.033 228.139C390.758 229.46 391.12 230.969 391.12 232.665C391.12 234.335 390.745 235.827 389.995 237.139C389.254 238.443 388.231 239.474 386.927 240.233C385.623 240.983 384.14 241.358 382.478 241.358ZM417.727 223H414.556C414.369 222.088 414.041 221.287 413.572 220.597C413.112 219.906 412.549 219.327 411.885 218.858C411.228 218.381 410.5 218.023 409.699 217.784C408.897 217.545 408.062 217.426 407.193 217.426C405.608 217.426 404.172 217.827 402.885 218.628C401.606 219.429 400.588 220.609 399.829 222.169C399.079 223.729 398.704 225.642 398.704 227.909C398.704 230.176 399.079 232.089 399.829 233.649C400.588 235.209 401.606 236.389 402.885 237.19C404.172 237.991 405.608 238.392 407.193 238.392C408.062 238.392 408.897 238.273 409.699 238.034C410.5 237.795 411.228 237.442 411.885 236.973C412.549 236.496 413.112 235.912 413.572 235.222C414.041 234.523 414.369 233.722 414.556 232.818H417.727C417.488 234.156 417.054 235.354 416.423 236.411C415.792 237.467 415.008 238.366 414.071 239.108C413.133 239.841 412.081 240.399 410.913 240.783C409.754 241.166 408.514 241.358 407.193 241.358C404.96 241.358 402.974 240.812 401.235 239.722C399.497 238.631 398.129 237.08 397.132 235.068C396.135 233.057 395.636 230.67 395.636 227.909C395.636 225.148 396.135 222.761 397.132 220.75C398.129 218.739 399.497 217.188 401.235 216.097C402.974 215.006 404.96 214.46 407.193 214.46C408.514 214.46 409.754 214.652 410.913 215.036C412.081 215.419 413.133 215.982 414.071 216.723C415.008 217.456 415.792 218.351 416.423 219.408C417.054 220.456 417.488 221.653 417.727 223ZM423.208 241L434.918 217.835V217.631H421.418V214.818H438.191V217.784L426.532 241H423.208ZM443.417 241V214.818H452.57C454.394 214.818 455.898 215.134 457.083 215.764C458.267 216.386 459.15 217.226 459.729 218.283C460.309 219.331 460.598 220.494 460.598 221.773C460.598 222.898 460.398 223.827 459.998 224.56C459.605 225.293 459.086 225.872 458.438 226.298C457.799 226.724 457.104 227.04 456.354 227.244V227.5C457.155 227.551 457.961 227.832 458.77 228.344C459.58 228.855 460.257 229.588 460.803 230.543C461.348 231.497 461.621 232.665 461.621 234.045C461.621 235.358 461.323 236.538 460.726 237.587C460.13 238.635 459.188 239.466 457.901 240.08C456.614 240.693 454.939 241 452.877 241H443.417ZM446.587 238.188H452.877C454.948 238.188 456.418 237.787 457.287 236.986C458.165 236.176 458.604 235.196 458.604 234.045C458.604 233.159 458.378 232.341 457.926 231.591C457.475 230.832 456.831 230.227 455.996 229.776C455.161 229.315 454.172 229.085 453.03 229.085H446.587V238.188ZM446.587 226.324H452.468C453.422 226.324 454.283 226.136 455.05 225.761C455.826 225.386 456.439 224.858 456.891 224.176C457.351 223.494 457.581 222.693 457.581 221.773C457.581 220.622 457.181 219.646 456.38 218.845C455.578 218.036 454.309 217.631 452.57 217.631H446.587V226.324ZM467.904 241H464.581L474.194 214.818H477.467L487.081 241H483.757L475.933 218.96H475.728L467.904 241ZM469.132 230.773H482.529V233.585H469.132V230.773Z" fill="black"/>
</svg>
