<svg width="85" height="63" viewBox="0 0 85 63" fill="none" xmlns="http://www.w3.org/2000/svg">
<path d="M1.86373 63H0.719727V1.4H3.71173L40.3197 58.336V1.4H41.4637V63H35.0397L1.86373 11.96V63Z" fill="#6D614E"/>
<path d="M39.2997 0.720001C46.2597 0.24 52.4097 0 57.7497 0C72.5697 0 79.9797 4.95 79.9797 14.85C79.9797 19.05 78.9597 22.8 76.9197 26.1C74.8797 29.4 71.3697 31.59 66.3897 32.67L84.3897 63H76.0197L58.3797 33.21H46.7697V63H39.2997V0.720001ZM57.7497 0.899999C54.2697 0.899999 50.6097 1.11 46.7697 1.53V32.31H60.0897C68.5497 31.95 72.7797 26.19 72.7797 15.03C72.7797 10.47 71.5197 6.99 68.9997 4.59C66.4797 2.13 62.7297 0.899999 57.7497 0.899999Z" fill="#6D614E"/>
</svg>
