<svg width="94" height="32" viewBox="0 0 94 32" fill="none" xmlns="http://www.w3.org/2000/svg">
<path d="M14.3 17.844C14.3 17.052 14.24 16.476 14.12 16.116C14 15.732 13.772 15.468 13.436 15.324C13.1 15.156 12.56 15.048 11.816 15V13.776C12.824 13.824 13.46 13.848 13.724 13.848C14.78 13.896 15.416 13.92 15.632 13.92C15.872 13.92 16.544 13.896 17.648 13.848C17.864 13.848 18.452 13.824 19.412 13.776V15C18.692 15.048 18.164 15.144 17.828 15.288C17.516 15.432 17.312 15.696 17.216 16.08C17.12 16.44 17.072 17.028 17.072 17.844V23.136C16.088 23.568 14.96 23.904 13.688 24.144C12.416 24.408 11.216 24.54 10.088 24.54C6.992 24.54 4.676 23.64 3.14 21.84C1.628 20.016 0.872 17.376 0.872 13.92C0.872 9.84 1.796 6.66 3.644 4.38C5.492 2.1 8.108 0.959998 11.492 0.959998C12.308 0.959998 13.244 1.032 14.3 1.176C15.356 1.32 16.292 1.5 17.108 1.716C16.964 3.3 16.892 5.28 16.892 7.656H15.488C15.464 6.12 14.996 4.884 14.084 3.948C13.196 3.012 12.008 2.544 10.52 2.544C8.168 2.544 6.464 3.456 5.408 5.28C4.376 7.08 3.86 9.648 3.86 12.984C3.86 16.2 4.412 18.66 5.516 20.364C6.644 22.044 8.264 22.884 10.376 22.884C11.936 22.884 13.244 22.488 14.3 21.696V17.844ZM35.4112 20.364C35.4112 20.964 35.4712 21.408 35.5912 21.696C35.7112 21.984 35.9392 22.188 36.2752 22.308C36.6352 22.428 37.1872 22.5 37.9312 22.524V23.676L33.6472 24.432L33.0712 24.216V20.472C32.4472 21.744 31.6792 22.728 30.7672 23.424C29.8552 24.096 28.9192 24.432 27.9592 24.432C26.9992 24.432 26.2312 24.276 25.6552 23.964C25.0792 23.652 24.6352 23.1 24.3232 22.308C24.0352 21.492 23.8912 20.364 23.8912 18.924V11.436C23.8912 10.836 23.8312 10.392 23.7112 10.104C23.5912 9.816 23.3512 9.612 22.9912 9.492C22.6552 9.372 22.1272 9.3 21.4072 9.276V8.16L25.8712 7.404L26.4112 7.584V19.392C26.4112 20.448 26.6032 21.192 26.9872 21.624C27.3952 22.056 27.9712 22.272 28.7152 22.272C29.6032 22.272 30.4072 21.972 31.1272 21.372C31.8712 20.748 32.4592 19.896 32.8912 18.816V11.436C32.8912 10.836 32.8312 10.392 32.7112 10.104C32.5912 9.816 32.3512 9.612 31.9912 9.492C31.6552 9.372 31.1152 9.3 30.3712 9.276V8.16L34.8712 7.404L35.4112 7.584V20.364ZM49.2771 7.404C50.9331 7.404 52.2531 8.052 53.2371 9.348C54.2211 10.644 54.7131 12.54 54.7131 15.036C54.7131 16.956 54.4251 18.624 53.8491 20.04C53.2731 21.456 52.4811 22.548 51.4731 23.316C50.4651 24.06 49.3131 24.432 48.0171 24.432C46.9611 24.432 45.9171 24.228 44.8851 23.82V27.348C44.8851 28.092 44.9451 28.644 45.0651 29.004C45.2091 29.364 45.4731 29.616 45.8571 29.76C46.2651 29.904 46.9131 29.988 47.8011 30.012V31.164C46.7931 31.116 46.1571 31.092 45.8931 31.092C44.6931 31.044 43.9731 31.02 43.7331 31.02C43.4691 31.02 42.7611 31.044 41.6091 31.092L39.8451 31.164V30.012C40.5891 29.988 41.1291 29.904 41.4651 29.76C41.8251 29.616 42.0651 29.364 42.1851 29.004C42.3051 28.644 42.3651 28.092 42.3651 27.348V11.436C42.3651 10.812 42.3051 10.356 42.1851 10.068C42.0651 9.78 41.8251 9.576 41.4651 9.456C41.1291 9.336 40.5891 9.276 39.8451 9.276V8.124L44.1291 7.404L44.7051 7.584V10.86C45.1611 9.804 45.8091 8.964 46.6491 8.34C47.4891 7.716 48.3651 7.404 49.2771 7.404ZM48.2691 23.244C49.6851 23.244 50.6571 22.524 51.1851 21.084C51.7371 19.644 52.0131 17.868 52.0131 15.756C52.0131 13.572 51.7131 11.964 51.1131 10.932C50.5131 9.9 49.6731 9.384 48.5931 9.384C47.7771 9.384 47.0451 9.672 46.3971 10.248C45.7731 10.8 45.2691 11.616 44.8851 12.696V19.896C44.8851 20.976 45.1971 21.804 45.8211 22.38C46.4451 22.956 47.2611 23.244 48.2691 23.244ZM66.7849 22.596C65.4889 23.82 64.1329 24.432 62.7169 24.432C61.5649 24.432 60.7729 24.048 60.3409 23.28C59.9089 22.512 59.6929 21.444 59.6929 20.076V9.276H57.0649V8.376L59.5849 7.764L60.7369 3.228H62.2489V7.836H66.1369V9.276H62.2489V19.464C62.2489 20.4 62.3689 21.144 62.6089 21.696C62.8489 22.248 63.2929 22.524 63.9409 22.524C64.4209 22.524 64.8289 22.476 65.1649 22.38C65.5009 22.26 65.9089 22.068 66.3889 21.804L66.7849 22.596ZM80.6252 20.688C79.2572 23.184 77.2652 24.432 74.6492 24.432C72.8492 24.432 71.4332 23.772 70.4012 22.452C69.3692 21.108 68.8532 19.2 68.8532 16.728C68.8532 14.664 69.1652 12.936 69.7892 11.544C70.4132 10.152 71.2412 9.12 72.2732 8.448C73.3052 7.752 74.4452 7.404 75.6932 7.404C77.1572 7.404 78.2372 7.788 78.9332 8.556C79.6532 9.3 80.1092 10.224 80.3012 11.328C80.4932 12.408 80.5892 13.752 80.5892 15.36H71.5172V16.08C71.5172 18.144 71.8412 19.716 72.4892 20.796C73.1372 21.876 74.0612 22.416 75.2612 22.416C76.9412 22.416 78.5012 21.696 79.9412 20.256L80.6252 20.688ZM75.2612 8.556C73.1492 8.556 71.9252 10.38 71.5892 14.028H77.9252C77.8772 10.38 76.9892 8.556 75.2612 8.556ZM92.5553 7.404C93.1073 7.404 93.5633 7.488 93.9233 7.656C93.8513 8.448 93.7913 9.156 93.7433 9.78C93.6953 10.38 93.6593 10.776 93.6353 10.968H92.5913C92.5673 10.8 92.4353 10.656 92.1953 10.536C91.9793 10.416 91.7273 10.356 91.4393 10.356C89.9033 10.356 88.7993 11.508 88.1273 13.812V20.256C88.1273 21.024 88.1873 21.588 88.3073 21.948C88.4513 22.284 88.7153 22.536 89.0993 22.704C89.5073 22.848 90.1553 22.932 91.0433 22.956V24.108L89.8553 24.036C88.5593 23.964 87.5873 23.928 86.9393 23.928C86.3153 23.928 85.4033 23.964 84.2033 24.036L83.0873 24.108V22.956C83.8553 22.932 84.4073 22.848 84.7433 22.704C85.0793 22.536 85.3073 22.284 85.4273 21.948C85.5473 21.588 85.6073 21.024 85.6073 20.256V11.436C85.6073 10.812 85.5473 10.356 85.4273 10.068C85.3073 9.78 85.0673 9.576 84.7073 9.456C84.3713 9.336 83.8313 9.276 83.0873 9.276V8.16L87.4073 7.404L87.9833 7.584V11.832C88.5353 10.512 89.1713 9.444 89.8913 8.628C90.6353 7.812 91.5233 7.404 92.5553 7.404Z" fill="black"/>
</svg>
